<svg xmlns="http://www.w3.org/2000/svg" width="1851" height="1581" viewBox="-12.00 -22.00 1851.00 1581.00">
<rect x="-12.00" y="-22.00" width="1851.00" height="1581.00" fill="#F7F8FC"/>
<rect x="55.00" y="215.00" width="1724.00" height="270.00" rx="18.00" stroke="#101828" fill="#101828" stroke-width="0.0" opacity="0.100"/>
<rect x="48.00" y="208.00" width="1724.00" height="270.00" rx="18.00" stroke="#D0D5DD" fill="#FFFFFF" stroke-width="1.4" opacity="1.000"/>
<rect x="55.00" y="515.00" width="1724.00" height="270.00" rx="18.00" stroke="#101828" fill="#101828" stroke-width="0.0" opacity="0.100"/>
<rect x="48.00" y="508.00" width="1724.00" height="270.00" rx="18.00" stroke="#D0D5DD" fill="#FFFFFF" stroke-width="1.4" opacity="1.000"/>
<rect x="55.00" y="815.00" width="1724.00" height="270.00" rx="18.00" stroke="#101828" fill="#101828" stroke-width="0.0" opacity="0.100"/>
<rect x="48.00" y="808.00" width="1724.00" height="270.00" rx="18.00" stroke="#D0D5DD" fill="#FFFFFF" stroke-width="1.4" opacity="1.000"/>
<rect x="55.00" y="1377.00" width="1724.00" height="122.00" rx="18.00" stroke="#101828" fill="#101828" stroke-width="0.0" opacity="0.100"/>
<rect x="48.00" y="1370.00" width="1724.00" height="122.00" rx="18.00" stroke="#D0D5DD" fill="#FFFFFF" stroke-width="1.4" opacity="1.000"/>
<rect x="185.00" y="327.00" width="354.00" height="138.00" rx="18.00" stroke="#101828" fill="#101828" stroke-width="0.0" opacity="0.100"/>
<rect x="573.00" y="327.00" width="354.00" height="138.00" rx="18.00" stroke="#101828" fill="#101828" stroke-width="0.0" opacity="0.100"/>
<rect x="961.00" y="327.00" width="354.00" height="138.00" rx="18.00" stroke="#101828" fill="#101828" stroke-width="0.0" opacity="0.100"/>
<rect x="1349.00" y="327.00" width="354.00" height="138.00" rx="18.00" stroke="#101828" fill="#101828" stroke-width="0.0" opacity="0.100"/>
<rect x="185.00" y="627.00" width="354.00" height="138.00" rx="18.00" stroke="#101828" fill="#101828" stroke-width="0.0" opacity="0.100"/>
<rect x="573.00" y="627.00" width="354.00" height="138.00" rx="18.00" stroke="#101828" fill="#101828" stroke-width="0.0" opacity="0.100"/>
<rect x="961.00" y="627.00" width="354.00" height="138.00" rx="18.00" stroke="#101828" fill="#101828" stroke-width="0.0" opacity="0.100"/>
<rect x="1349.00" y="627.00" width="354.00" height="138.00" rx="18.00" stroke="#101828" fill="#101828" stroke-width="0.0" opacity="0.100"/>
<rect x="185.00" y="927.00" width="354.00" height="138.00" rx="18.00" stroke="#101828" fill="#101828" stroke-width="0.0" opacity="0.100"/>
<rect x="573.00" y="927.00" width="354.00" height="138.00" rx="18.00" stroke="#101828" fill="#101828" stroke-width="0.0" opacity="0.100"/>
<rect x="961.00" y="927.00" width="354.00" height="138.00" rx="18.00" stroke="#101828" fill="#101828" stroke-width="0.0" opacity="0.100"/>
<rect x="1349.00" y="927.00" width="354.00" height="138.00" rx="18.00" stroke="#101828" fill="#101828" stroke-width="0.0" opacity="0.100"/>
<rect x="55.00" y="1185.00" width="548.00" height="170.00" rx="18.00" stroke="#101828" fill="#101828" stroke-width="0.0" opacity="0.100"/>
<rect x="637.00" y="1185.00" width="548.00" height="170.00" rx="18.00" stroke="#101828" fill="#101828" stroke-width="0.0" opacity="0.100"/>
<rect x="1219.00" y="1185.00" width="548.00" height="170.00" rx="18.00" stroke="#101828" fill="#101828" stroke-width="0.0" opacity="0.100"/>
<polyline points="537.00,389.00 561.00,389.00" stroke="#4F46E5" fill="none" stroke-width="3.0" opacity="1.000" stroke-linejoin="round" stroke-linecap="round"/><polygon points="561.00,389.00 542.00,397.55 542.00,380.45" fill="#4F46E5" opacity="1.000"/>
<polyline points="925.00,389.00 949.00,389.00" stroke="#4F46E5" fill="none" stroke-width="3.0" opacity="1.000" stroke-linejoin="round" stroke-linecap="round"/><polygon points="949.00,389.00 930.00,397.55 930.00,380.45" fill="#4F46E5" opacity="1.000"/>
<polyline points="1313.00,389.00 1337.00,389.00" stroke="#4F46E5" fill="none" stroke-width="3.0" opacity="1.000" stroke-linejoin="round" stroke-linecap="round"/><polygon points="1337.00,389.00 1318.00,397.55 1318.00,380.45" fill="#4F46E5" opacity="1.000"/>
<polyline points="1701.00,389.00 1752.00,389.00 1752.00,494.00 150.00,494.00 150.00,689.00 173.00,689.00" stroke="#4F46E5" fill="none" stroke-width="3.0" opacity="1.000" stroke-linejoin="round" stroke-linecap="round"/><polygon points="173.00,689.00 154.00,697.55 154.00,680.45" fill="#4F46E5" opacity="1.000"/>
<polyline points="537.00,689.00 561.00,689.00" stroke="#4F46E5" fill="none" stroke-width="3.0" opacity="1.000" stroke-linejoin="round" stroke-linecap="round"/><polygon points="561.00,689.00 542.00,697.55 542.00,680.45" fill="#4F46E5" opacity="1.000"/>
<polyline points="925.00,689.00 949.00,689.00" stroke="#4F46E5" fill="none" stroke-width="3.0" opacity="1.000" stroke-linejoin="round" stroke-linecap="round"/><polygon points="949.00,689.00 930.00,697.55 930.00,680.45" fill="#4F46E5" opacity="1.000"/>
<polyline points="1313.00,689.00 1337.00,689.00" stroke="#4F46E5" fill="none" stroke-width="3.0" opacity="1.000" stroke-linejoin="round" stroke-linecap="round"/><polygon points="1337.00,689.00 1318.00,697.55 1318.00,680.45" fill="#4F46E5" opacity="1.000"/>
<polyline points="1701.00,689.00 1752.00,689.00 1752.00,794.00 150.00,794.00 150.00,989.00 173.00,989.00" stroke="#4F46E5" fill="none" stroke-width="3.0" opacity="1.000" stroke-linejoin="round" stroke-linecap="round"/><polygon points="173.00,989.00 154.00,997.55 154.00,980.45" fill="#4F46E5" opacity="1.000"/>
<polyline points="537.00,989.00 561.00,989.00" stroke="#4F46E5" fill="none" stroke-width="3.0" opacity="1.000" stroke-linejoin="round" stroke-linecap="round"/><polygon points="561.00,989.00 542.00,997.55 542.00,980.45" fill="#4F46E5" opacity="1.000"/>
<polyline points="925.00,989.00 949.00,989.00" stroke="#4F46E5" fill="none" stroke-width="3.0" opacity="1.000" stroke-linejoin="round" stroke-linecap="round"/><polygon points="949.00,989.00 930.00,997.55 930.00,980.45" fill="#4F46E5" opacity="1.000"/>
<polyline points="1313.00,989.00 1337.00,989.00" stroke="#0E7490" fill="none" stroke-width="2.2" opacity="1.000" stroke-dasharray="12 8" stroke-linejoin="round" stroke-linecap="round"/><polygon points="1337.00,989.00 1319.60,996.83 1319.60,981.17" fill="#0E7490" opacity="1.000"/>
<rect x="56.00" y="38.00" width="125.44" height="30.00" rx="5.40" stroke="#4F46E5" fill="#EEF2FF" stroke-width="1.0" opacity="1.000"/>
<rect x="1660.00" y="81.00" width="104.00" height="30.00" rx="5.40" stroke="#667085" fill="#FFFFFF" stroke-width="1.0" opacity="1.000"/>
<rect x="1546.00" y="81.00" width="104.00" height="30.00" rx="5.40" stroke="#667085" fill="#FFFFFF" stroke-width="1.0" opacity="1.000"/>
<rect x="1432.00" y="81.00" width="104.00" height="30.00" rx="5.40" stroke="#667085" fill="#FFFFFF" stroke-width="1.0" opacity="1.000"/>
<rect x="1318.00" y="81.00" width="104.00" height="30.00" rx="5.40" stroke="#667085" fill="#FFFFFF" stroke-width="1.0" opacity="1.000"/>
<rect x="48.00" y="208.00" width="8.00" height="270.00" rx="0.64" stroke="#4F46E5" fill="#4F46E5" stroke-width="0.0" opacity="1.000"/>
<rect x="76.00" y="230.00" width="88.00" height="30.00" rx="5.40" stroke="#4F46E5" fill="#F2F4F7" stroke-width="1.0" opacity="1.000"/>
<rect x="48.00" y="508.00" width="8.00" height="270.00" rx="0.64" stroke="#7F56D9" fill="#7F56D9" stroke-width="0.0" opacity="1.000"/>
<rect x="76.00" y="530.00" width="88.00" height="30.00" rx="5.40" stroke="#7F56D9" fill="#F2F4F7" stroke-width="1.0" opacity="1.000"/>
<rect x="48.00" y="808.00" width="8.00" height="270.00" rx="0.64" stroke="#0E7490" fill="#0E7490" stroke-width="0.0" opacity="1.000"/>
<rect x="76.00" y="830.00" width="88.00" height="30.00" rx="5.40" stroke="#0E7490" fill="#F2F4F7" stroke-width="1.0" opacity="1.000"/>
<rect x="48.00" y="1370.00" width="8.00" height="122.00" rx="0.64" stroke="#98A2B3" fill="#98A2B3" stroke-width="0.0" opacity="1.000"/>
<rect x="178.00" y="320.00" width="354.00" height="138.00" rx="18.00" stroke="#4F46E5" fill="#EEF2FF" stroke-width="1.6" opacity="1.000"/>
<rect x="178.00" y="320.00" width="354.00" height="5.00" rx="0.90" stroke="#4F46E5" fill="#4F46E5" stroke-width="0.0" opacity="1.000"/>
<rect x="193.00" y="335.00" width="44.00" height="44.00" rx="3.52" stroke="#EEF2FF" fill="#EEF2FF" stroke-width="0.0" opacity="1.000"/>
<rect x="204.38" y="342.12" width="21.25" height="29.75" rx="1.70" stroke="#4F46E5" fill="none" stroke-width="2.1" opacity="1.000"/>
<ellipse cx="181.00" cy="323.00" rx="16.00" ry="16.00" stroke="#4F46E5" fill="#4F46E5" stroke-width="1.0" opacity="1.000"/>
<rect x="566.00" y="320.00" width="354.00" height="138.00" rx="18.00" stroke="#D97706" fill="#FFFAEB" stroke-width="2.2" opacity="1.000"/>
<rect x="566.00" y="320.00" width="354.00" height="5.00" rx="0.90" stroke="#D97706" fill="#D97706" stroke-width="0.0" opacity="1.000"/>
<rect x="581.00" y="335.00" width="44.00" height="44.00" rx="3.52" stroke="#FFFAEB" fill="#FFFAEB" stroke-width="0.0" opacity="1.000"/>
<ellipse cx="603.00" cy="357.00" rx="13.81" ry="13.81" stroke="#D97706" fill="none" stroke-width="2.1" opacity="1.000"/>
<ellipse cx="603.00" cy="367.10" rx="1.59" ry="1.59" stroke="#D97706" fill="#D97706" stroke-width="2.1" opacity="1.000"/>
<ellipse cx="569.00" cy="323.00" rx="16.00" ry="16.00" stroke="#4F46E5" fill="#4F46E5" stroke-width="1.0" opacity="1.000"/>
<rect x="836.00" y="424.00" width="62.00" height="30.00" rx="4.96" stroke="#D97706" fill="#FFFAEB" stroke-width="1.0" opacity="1.000"/>
<rect x="954.00" y="320.00" width="354.00" height="138.00" rx="18.00" stroke="#D97706" fill="#FFFAEB" stroke-width="2.2" opacity="1.000"/>
<rect x="954.00" y="320.00" width="354.00" height="5.00" rx="0.90" stroke="#D97706" fill="#D97706" stroke-width="0.0" opacity="1.000"/>
<rect x="969.00" y="335.00" width="44.00" height="44.00" rx="3.52" stroke="#FFFAEB" fill="#FFFAEB" stroke-width="0.0" opacity="1.000"/>
<ellipse cx="985.68" cy="351.69" rx="2.12" ry="2.12" stroke="#D97706" fill="none" stroke-width="2.1" opacity="1.000"/>
<ellipse cx="957.00" cy="323.00" rx="16.00" ry="16.00" stroke="#4F46E5" fill="#4F46E5" stroke-width="1.0" opacity="1.000"/>
<rect x="1224.00" y="424.00" width="62.00" height="30.00" rx="4.96" stroke="#D97706" fill="#FFFAEB" stroke-width="1.0" opacity="1.000"/>
<rect x="1342.00" y="320.00" width="354.00" height="138.00" rx="18.00" stroke="#7F56D9" fill="#F4F3FF" stroke-width="1.6" opacity="1.000"/>
<rect x="1342.00" y="320.00" width="354.00" height="5.00" rx="0.90" stroke="#7F56D9" fill="#7F56D9" stroke-width="0.0" opacity="1.000"/>
<rect x="1357.00" y="335.00" width="44.00" height="44.00" rx="3.52" stroke="#F4F3FF" fill="#F4F3FF" stroke-width="0.0" opacity="1.000"/>
<ellipse cx="1345.00" cy="323.00" rx="16.00" ry="16.00" stroke="#4F46E5" fill="#4F46E5" stroke-width="1.0" opacity="1.000"/>
<rect x="178.00" y="620.00" width="354.00" height="138.00" rx="18.00" stroke="#4F46E5" fill="#FFFFFF" stroke-width="1.6" opacity="1.000"/>
<rect x="178.00" y="620.00" width="354.00" height="5.00" rx="0.90" stroke="#4F46E5" fill="#4F46E5" stroke-width="0.0" opacity="1.000"/>
<rect x="193.00" y="635.00" width="44.00" height="44.00" rx="3.52" stroke="#FFFFFF" fill="#FFFFFF" stroke-width="0.0" opacity="1.000"/>
<rect x="201.19" y="645.31" width="27.62" height="23.38" rx="2.21" stroke="#4F46E5" fill="none" stroke-width="2.1" opacity="1.000"/>
<ellipse cx="207.56" cy="653.82" rx="2.12" ry="2.12" stroke="#4F46E5" fill="#4F46E5" stroke-width="2.1" opacity="1.000"/>
<ellipse cx="207.56" cy="662.32" rx="2.12" ry="2.12" stroke="#4F46E5" fill="#4F46E5" stroke-width="2.1" opacity="1.000"/>
<ellipse cx="181.00" cy="623.00" rx="16.00" ry="16.00" stroke="#4F46E5" fill="#4F46E5" stroke-width="1.0" opacity="1.000"/>
<rect x="566.00" y="620.00" width="354.00" height="138.00" rx="18.00" stroke="#D97706" fill="#FFFAEB" stroke-width="2.2" opacity="1.000"/>
<rect x="566.00" y="620.00" width="354.00" height="5.00" rx="0.90" stroke="#D97706" fill="#D97706" stroke-width="0.0" opacity="1.000"/>
<rect x="581.00" y="635.00" width="44.00" height="44.00" rx="3.52" stroke="#FFFAEB" fill="#FFFAEB" stroke-width="0.0" opacity="1.000"/>
<ellipse cx="603.00" cy="657.00" rx="13.81" ry="13.81" stroke="#D97706" fill="none" stroke-width="2.1" opacity="1.000"/>
<ellipse cx="603.00" cy="667.10" rx="1.59" ry="1.59" stroke="#D97706" fill="#D97706" stroke-width="2.1" opacity="1.000"/>
<ellipse cx="569.00" cy="623.00" rx="16.00" ry="16.00" stroke="#4F46E5" fill="#4F46E5" stroke-width="1.0" opacity="1.000"/>
<rect x="836.00" y="724.00" width="62.00" height="30.00" rx="4.96" stroke="#D97706" fill="#FFFAEB" stroke-width="1.0" opacity="1.000"/>
<rect x="954.00" y="620.00" width="354.00" height="138.00" rx="18.00" stroke="#7F56D9" fill="#F4F3FF" stroke-width="1.6" opacity="1.000"/>
<rect x="954.00" y="620.00" width="354.00" height="5.00" rx="0.90" stroke="#7F56D9" fill="#7F56D9" stroke-width="0.0" opacity="1.000"/>
<rect x="969.00" y="635.00" width="44.00" height="44.00" rx="3.52" stroke="#F4F3FF" fill="#F4F3FF" stroke-width="0.0" opacity="1.000"/>
<ellipse cx="957.00" cy="623.00" rx="16.00" ry="16.00" stroke="#4F46E5" fill="#4F46E5" stroke-width="1.0" opacity="1.000"/>
<rect x="1342.00" y="620.00" width="354.00" height="138.00" rx="18.00" stroke="#C11574" fill="#FDF2FA" stroke-width="1.6" opacity="1.000"/>
<rect x="1342.00" y="620.00" width="354.00" height="5.00" rx="0.90" stroke="#C11574" fill="#C11574" stroke-width="0.0" opacity="1.000"/>
<rect x="1357.00" y="635.00" width="44.00" height="44.00" rx="3.52" stroke="#FDF2FA" fill="#FDF2FA" stroke-width="0.0" opacity="1.000"/>
<rect x="1364.12" y="647.44" width="29.75" height="21.25" rx="2.38" stroke="#C11574" fill="none" stroke-width="2.1" opacity="1.000"/>
<ellipse cx="1345.00" cy="623.00" rx="16.00" ry="16.00" stroke="#4F46E5" fill="#4F46E5" stroke-width="1.0" opacity="1.000"/>
<rect x="178.00" y="920.00" width="354.00" height="138.00" rx="18.00" stroke="#D97706" fill="#FFFAEB" stroke-width="2.2" opacity="1.000"/>
<rect x="178.00" y="920.00" width="354.00" height="5.00" rx="0.90" stroke="#D97706" fill="#D97706" stroke-width="0.0" opacity="1.000"/>
<rect x="193.00" y="935.00" width="44.00" height="44.00" rx="3.52" stroke="#FFFAEB" fill="#FFFAEB" stroke-width="0.0" opacity="1.000"/>
<ellipse cx="215.00" cy="957.00" rx="13.81" ry="13.81" stroke="#D97706" fill="none" stroke-width="2.1" opacity="1.000"/>
<ellipse cx="215.00" cy="967.10" rx="1.59" ry="1.59" stroke="#D97706" fill="#D97706" stroke-width="2.1" opacity="1.000"/>
<ellipse cx="181.00" cy="923.00" rx="16.00" ry="16.00" stroke="#4F46E5" fill="#4F46E5" stroke-width="1.0" opacity="1.000"/>
<rect x="448.00" y="1024.00" width="62.00" height="30.00" rx="4.96" stroke="#D97706" fill="#FFFAEB" stroke-width="1.0" opacity="1.000"/>
<rect x="566.00" y="920.00" width="354.00" height="138.00" rx="18.00" stroke="#7F56D9" fill="#F4F3FF" stroke-width="1.6" opacity="1.000"/>
<rect x="566.00" y="920.00" width="354.00" height="5.00" rx="0.90" stroke="#7F56D9" fill="#7F56D9" stroke-width="0.0" opacity="1.000"/>
<rect x="581.00" y="935.00" width="44.00" height="44.00" rx="3.52" stroke="#F4F3FF" fill="#F4F3FF" stroke-width="0.0" opacity="1.000"/>
<ellipse cx="569.00" cy="923.00" rx="16.00" ry="16.00" stroke="#4F46E5" fill="#4F46E5" stroke-width="1.0" opacity="1.000"/>
<rect x="954.00" y="920.00" width="354.00" height="138.00" rx="18.00" stroke="#0E7490" fill="#ECFDFF" stroke-width="1.6" opacity="1.000"/>
<rect x="954.00" y="920.00" width="354.00" height="5.00" rx="0.90" stroke="#0E7490" fill="#0E7490" stroke-width="0.0" opacity="1.000"/>
<rect x="969.00" y="935.00" width="44.00" height="44.00" rx="3.52" stroke="#ECFDFF" fill="#ECFDFF" stroke-width="0.0" opacity="1.000"/>
<ellipse cx="957.00" cy="923.00" rx="16.00" ry="16.00" stroke="#4F46E5" fill="#4F46E5" stroke-width="1.0" opacity="1.000"/>
<rect x="1342.00" y="920.00" width="354.00" height="138.00" rx="18.00" stroke="#15803D" fill="#ECFDF3" stroke-width="1.6" opacity="1.000"/>
<rect x="1342.00" y="920.00" width="354.00" height="5.00" rx="0.90" stroke="#15803D" fill="#15803D" stroke-width="0.0" opacity="1.000"/>
<rect x="1357.00" y="935.00" width="44.00" height="44.00" rx="3.52" stroke="#ECFDF3" fill="#ECFDF3" stroke-width="0.0" opacity="1.000"/>
<ellipse cx="1345.00" cy="923.00" rx="16.00" ry="16.00" stroke="#4F46E5" fill="#4F46E5" stroke-width="1.0" opacity="1.000"/>
<rect x="48.00" y="1178.00" width="548.00" height="170.00" rx="18.00" stroke="#D92D20" fill="#FEF3F2" stroke-width="2.2" opacity="1.000"/>
<rect x="48.00" y="1178.00" width="548.00" height="6.00" rx="1.08" stroke="#D92D20" fill="#D92D20" stroke-width="0.0" opacity="1.000"/>
<rect x="66.00" y="1196.00" width="52.00" height="52.00" rx="4.16" stroke="#FEF3F2" fill="#FEF3F2" stroke-width="0.0" opacity="1.000"/>
<ellipse cx="92.00" cy="1233.88" rx="1.88" ry="1.88" stroke="#D92D20" fill="#D92D20" stroke-width="2.1" opacity="1.000"/>
<rect x="630.00" y="1178.00" width="548.00" height="170.00" rx="18.00" stroke="#15803D" fill="#ECFDF3" stroke-width="1.6" opacity="1.000"/>
<rect x="630.00" y="1178.00" width="548.00" height="6.00" rx="1.08" stroke="#15803D" fill="#15803D" stroke-width="0.0" opacity="1.000"/>
<rect x="648.00" y="1196.00" width="52.00" height="52.00" rx="4.16" stroke="#ECFDF3" fill="#ECFDF3" stroke-width="0.0" opacity="1.000"/>
<ellipse cx="674.00" cy="1233.88" rx="1.88" ry="1.88" stroke="#15803D" fill="#15803D" stroke-width="2.1" opacity="1.000"/>
<rect x="1212.00" y="1178.00" width="548.00" height="170.00" rx="18.00" stroke="#15803D" fill="#ECFDF3" stroke-width="1.6" opacity="1.000"/>
<rect x="1212.00" y="1178.00" width="548.00" height="6.00" rx="1.08" stroke="#15803D" fill="#15803D" stroke-width="0.0" opacity="1.000"/>
<rect x="1230.00" y="1196.00" width="52.00" height="52.00" rx="4.16" stroke="#ECFDF3" fill="#ECFDF3" stroke-width="0.0" opacity="1.000"/>
<rect x="1242.25" y="1204.50" width="27.50" height="35.00" rx="2.20" stroke="#15803D" fill="none" stroke-width="2.1" opacity="1.000"/>
<rect x="895.00" y="373.00" width="84.00" height="30.00" rx="5.40" stroke="#4F46E5" fill="#FFFFFF" stroke-width="1.0" opacity="1.000"/>
<rect x="1283.00" y="373.00" width="84.00" height="30.00" rx="5.40" stroke="#4F46E5" fill="#FFFFFF" stroke-width="1.0" opacity="1.000"/>
<rect x="895.00" y="673.00" width="84.00" height="30.00" rx="5.40" stroke="#4F46E5" fill="#FFFFFF" stroke-width="1.0" opacity="1.000"/>
<rect x="507.00" y="973.00" width="84.00" height="30.00" rx="5.40" stroke="#4F46E5" fill="#FFFFFF" stroke-width="1.0" opacity="1.000"/>
<rect x="1283.00" y="973.00" width="84.00" height="30.00" rx="5.40" stroke="#0E7490" fill="#FFFFFF" stroke-width="1.0" opacity="1.000"/>
<polyline points="208.62,349.56 221.37,349.56" stroke="#4F46E5" fill="none" stroke-width="2.1" opacity="1.000" stroke-linejoin="round" stroke-linecap="round"/>
<polyline points="208.62,355.94 221.37,355.94" stroke="#4F46E5" fill="none" stroke-width="2.1" opacity="1.000" stroke-linejoin="round" stroke-linecap="round"/>
<polyline points="208.62,362.31 218.18,362.31" stroke="#4F46E5" fill="none" stroke-width="2.1" opacity="1.000" stroke-linejoin="round" stroke-linecap="round"/>
<polyline points="597.69,351.69 599.81,348.50 605.13,348.50 608.31,351.69 608.31,354.88 604.07,358.06 603.00,361.25" stroke="#D97706" fill="none" stroke-width="2.1" opacity="1.000" stroke-linejoin="round" stroke-linecap="round"/>
<polyline points="978.25,345.31 995.25,345.31 1004.81,354.87 993.13,368.69 978.25,357.00 978.25,345.31" stroke="#D97706" fill="none" stroke-width="2.1" opacity="1.000" stroke-linejoin="round" stroke-linecap="round"/>
<polyline points="1365.19,349.56 1388.57,349.56" stroke="#7F56D9" fill="none" stroke-width="2.1" opacity="1.000" stroke-linejoin="round" stroke-linecap="round"/><polygon points="1388.57,349.56 1371.37,357.30 1371.37,341.82" fill="#7F56D9" opacity="1.000"/>
<polyline points="1392.82,364.44 1369.44,364.44" stroke="#7F56D9" fill="none" stroke-width="2.1" opacity="1.000" stroke-linejoin="round" stroke-linecap="round"/><polygon points="1369.44,364.44 1386.64,356.70 1386.64,372.18" fill="#7F56D9" opacity="1.000"/>
<polyline points="212.88,653.81 224.57,653.81" stroke="#4F46E5" fill="none" stroke-width="2.1" opacity="1.000" stroke-linejoin="round" stroke-linecap="round"/>
<polyline points="212.88,662.31 224.57,662.31" stroke="#4F46E5" fill="none" stroke-width="2.1" opacity="1.000" stroke-linejoin="round" stroke-linecap="round"/>
<polyline points="597.69,651.69 599.81,648.50 605.13,648.50 608.31,651.69 608.31,654.88 604.07,658.06 603.00,661.25" stroke="#D97706" fill="none" stroke-width="2.1" opacity="1.000" stroke-linejoin="round" stroke-linecap="round"/>
<polyline points="977.19,649.56 1000.57,649.56" stroke="#7F56D9" fill="none" stroke-width="2.1" opacity="1.000" stroke-linejoin="round" stroke-linecap="round"/><polygon points="1000.57,649.56 983.37,657.30 983.37,641.82" fill="#7F56D9" opacity="1.000"/>
<polyline points="1004.82,664.44 981.44,664.44" stroke="#7F56D9" fill="none" stroke-width="2.1" opacity="1.000" stroke-linejoin="round" stroke-linecap="round"/><polygon points="981.44,664.44 998.64,656.70 998.64,672.18" fill="#7F56D9" opacity="1.000"/>
<polyline points="1365.19,653.81 1392.81,653.81" stroke="#C11574" fill="none" stroke-width="2.1" opacity="1.000" stroke-linejoin="round" stroke-linecap="round"/>
<polyline points="1369.44,659.12 1375.82,659.12 1375.82,664.43 1369.44,664.43 1369.44,659.12" stroke="#C11574" fill="none" stroke-width="2.1" opacity="1.000" stroke-linejoin="round" stroke-linecap="round"/>
<polyline points="209.69,951.69 211.81,948.50 217.13,948.50 220.31,951.69 220.31,954.88 216.07,958.06 215.00,961.25" stroke="#D97706" fill="none" stroke-width="2.1" opacity="1.000" stroke-linejoin="round" stroke-linecap="round"/>
<polyline points="589.19,949.56 612.57,949.56" stroke="#7F56D9" fill="none" stroke-width="2.1" opacity="1.000" stroke-linejoin="round" stroke-linecap="round"/><polygon points="612.57,949.56 595.37,957.30 595.37,941.82" fill="#7F56D9" opacity="1.000"/>
<polyline points="616.82,964.44 593.44,964.44" stroke="#7F56D9" fill="none" stroke-width="2.1" opacity="1.000" stroke-linejoin="round" stroke-linecap="round"/><polygon points="593.44,964.44 610.64,956.70 610.64,972.18" fill="#7F56D9" opacity="1.000"/>
<polyline points="993.13,941.06 981.44,958.06 989.94,958.06 984.63,972.94 1002.69,952.75 993.13,952.75 993.13,941.06" stroke="#0E7490" fill="none" stroke-width="2.4" opacity="1.000" stroke-linejoin="round" stroke-linecap="round"/>
<polyline points="1366.25,958.06 1374.75,966.56 1391.75,947.44" stroke="#15803D" fill="none" stroke-width="2.8" opacity="1.000" stroke-linejoin="round" stroke-linecap="round"/>
<polyline points="92.00,1204.50 109.50,1238.25 74.50,1238.25 92.00,1204.50" stroke="#D92D20" fill="none" stroke-width="2.1" opacity="1.000" stroke-linejoin="round" stroke-linecap="round"/>
<polyline points="92.00,1214.50 92.00,1227.00" stroke="#D92D20" fill="none" stroke-width="2.8" opacity="1.000" stroke-linejoin="round" stroke-linecap="round"/>
<polyline points="674.00,1204.50 691.50,1238.25 656.50,1238.25 674.00,1204.50" stroke="#15803D" fill="none" stroke-width="2.1" opacity="1.000" stroke-linejoin="round" stroke-linecap="round"/>
<polyline points="674.00,1214.50 674.00,1227.00" stroke="#15803D" fill="none" stroke-width="2.8" opacity="1.000" stroke-linejoin="round" stroke-linecap="round"/>
<polyline points="1261.00,1204.50 1269.75,1213.25 1261.00,1213.25 1261.00,1204.50" stroke="#15803D" fill="none" stroke-width="2.1" opacity="1.000" stroke-linejoin="round" stroke-linecap="round"/>
<polyline points="1247.25,1219.50 1264.75,1219.50" stroke="#15803D" fill="none" stroke-width="2.1" opacity="1.000" stroke-linejoin="round" stroke-linecap="round"/>
<polyline points="1247.25,1227.00 1264.75,1227.00" stroke="#15803D" fill="none" stroke-width="2.1" opacity="1.000" stroke-linejoin="round" stroke-linecap="round"/>
<polyline points="1247.25,1234.50 1259.75,1234.50" stroke="#15803D" fill="none" stroke-width="2.1" opacity="1.000" stroke-linejoin="round" stroke-linecap="round"/>
<text x="118.72" y="57.50" font-size="12.00" font-family="NanumGothic, Noto Sans CJK KR, Apple SD Gothic Neo, Arial, sans-serif" text-anchor="middle" fill="#4F46E5" opacity="1.000"><tspan x="118.72" dy="0.00">FOCUS · 중심 업무…</tspan></text>
<text x="56.00" y="126.50" font-size="36.00" font-family="NanumGothic, Noto Sans CJK KR, Apple SD Gothic Neo, Arial, sans-serif" text-anchor="start" fill="#101828" opacity="1.000"><tspan x="56.00" dy="0.00">회원이 상품을 주문하는 흐름</tspan></text>
<text x="56.00" y="159.00" font-size="16.00" font-family="NanumGothic, Noto Sans CJK KR, Apple SD Gothic Neo, Arial, sans-serif" text-anchor="start" fill="#667085" opacity="1.000"><tspan x="56.00" dy="0.00">주문 성공의 중심 흐름과 주문이 멈추는 핵심 이유를 이해한다.</tspan></text>
<a href="[[architecture/atlas/index.md]]"><text x="1712.00" y="100.50" font-size="12.00" font-family="NanumGothic, Noto Sans CJK KR, Apple SD Gothic Neo, Arial, sans-serif" text-anchor="middle" fill="#667085" opacity="1.000"><tspan x="1712.00" dy="0.00">Deep Atlas</tspan></text></a>
<a href="[[architecture/unknowns.md]]"><text x="1598.00" y="100.50" font-size="12.00" font-family="NanumGothic, Noto Sans CJK KR, Apple SD Gothic Neo, Arial, sans-serif" text-anchor="middle" fill="#667085" opacity="1.000"><tspan x="1598.00" dy="0.00">미확인 사항</tspan></text></a>
<a href="[[architecture/flows/member-place-order-focus.md]]"><text x="1484.00" y="100.50" font-size="12.00" font-family="NanumGothic, Noto Sans CJK KR, Apple SD Gothic Neo, Arial, sans-serif" text-anchor="middle" fill="#667085" opacity="1.000"><tspan x="1484.00" dy="0.00">흐름 문서</tspan></text></a>
<a href="[[architecture/understanding/understand-member-order.md]]"><text x="1370.00" y="100.50" font-size="12.00" font-family="NanumGothic, Noto Sans CJK KR, Apple SD Gothic Neo, Arial, sans-serif" text-anchor="middle" fill="#667085" opacity="1.000"><tspan x="1370.00" dy="0.00">질문 문서</tspan></text></a>
<text x="120.00" y="249.12" font-size="11.00" font-family="NanumGothic, Noto Sans CJK KR, Apple SD Gothic Neo, Arial, sans-serif" text-anchor="middle" fill="#4F46E5" opacity="1.000"><tspan x="120.00" dy="0.00">PHASE 1</tspan></text>
<text x="180.00" y="250.88" font-size="21.00" font-family="NanumGothic, Noto Sans CJK KR, Apple SD Gothic Neo, Arial, sans-serif" text-anchor="start" fill="#101828" opacity="1.000"><tspan x="180.00" dy="0.00">주문 가능성 확인</tspan></text>
<text x="76.00" y="279.00" font-size="13.00" font-family="NanumGothic, Noto Sans CJK KR, Apple SD Gothic Neo, Arial, sans-serif" text-anchor="start" fill="#667085" opacity="1.000"><tspan x="76.00" dy="0.00">회원과 상품이 지금 주문 가능한지 확인하고 주문을 접수합니다.</tspan></text>
<text x="120.00" y="549.12" font-size="11.00" font-family="NanumGothic, Noto Sans CJK KR, Apple SD Gothic Neo, Arial, sans-serif" text-anchor="middle" fill="#7F56D9" opacity="1.000"><tspan x="120.00" dy="0.00">PHASE 2</tspan></text>
<text x="180.00" y="550.88" font-size="21.00" font-family="NanumGothic, Noto Sans CJK KR, Apple SD Gothic Neo, Arial, sans-serif" text-anchor="start" fill="#101828" opacity="1.000"><tspan x="180.00" dy="0.00">재고와 결제 준비</tspan></text>
<text x="76.00" y="579.00" font-size="13.00" font-family="NanumGothic, Noto Sans CJK KR, Apple SD Gothic Neo, Arial, sans-serif" text-anchor="start" fill="#667085" opacity="1.000"><tspan x="76.00" dy="0.00">재고를 예약한 뒤 외부 결제 승인 요청을 시작합니다.</tspan></text>
<text x="120.00" y="849.12" font-size="11.00" font-family="NanumGothic, Noto Sans CJK KR, Apple SD Gothic Neo, Arial, sans-serif" text-anchor="middle" fill="#0E7490" opacity="1.000"><tspan x="120.00" dy="0.00">PHASE 3</tspan></text>
<text x="180.00" y="850.88" font-size="21.00" font-family="NanumGothic, Noto Sans CJK KR, Apple SD Gothic Neo, Arial, sans-serif" text-anchor="start" fill="#101828" opacity="1.000"><tspan x="180.00" dy="0.00">승인과 완료</tspan></text>
<text x="76.00" y="879.00" font-size="13.00" font-family="NanumGothic, Noto Sans CJK KR, Apple SD Gothic Neo, Arial, sans-serif" text-anchor="start" fill="#667085" opacity="1.000"><tspan x="76.00" dy="0.00">결제 결과를 반영하고 후속 처리 이벤트와 주문 번호를 반환합니다.</tspan></text>
<text x="48.00" y="1149.00" font-size="24.00" font-family="NanumGothic, Noto Sans CJK KR, Apple SD Gothic Neo, Arial, sans-serif" text-anchor="start" fill="#101828" opacity="1.000"><tspan x="48.00" dy="0.00">흐름이 멈추는 이유와 다음 탐색</tspan></text>
<text x="76.00" y="1412.88" font-size="21.00" font-family="NanumGothic, Noto Sans CJK KR, Apple SD Gothic Neo, Arial, sans-serif" text-anchor="start" fill="#101828" opacity="1.000"><tspan x="76.00" dy="0.00">이 그림이 답하지 않는 것</tspan></text>
<text x="76.00" y="1441.00" font-size="13.00" font-family="NanumGothic, Noto Sans CJK KR, Apple SD Gothic Neo, Arial, sans-serif" text-anchor="start" fill="#667085" opacity="1.000"><tspan x="76.00" dy="0.00">관리자 상품 등록 · 판매자 정산 · 추천 상품 생성 · 배송 이후 처리</tspan></text>
<text x="181.00" y="328.25" font-size="14.00" font-family="NanumGothic, Noto Sans CJK KR, Apple SD Gothic Neo, Arial, sans-serif" text-anchor="middle" fill="#FFFFFF" opacity="1.000"><tspan x="181.00" dy="0.00">1</tspan></text>
<a href="[[atlas/flows/member-place-order]]"><text x="250.00" y="355.62" font-size="15.00" font-family="NanumGothic, Noto Sans CJK KR, Apple SD Gothic Neo, Arial, sans-serif" text-anchor="start" fill="#101828" opacity="1.000"><tspan x="250.00" dy="0.00">주문 요청</tspan></text></a>
<a href="[[atlas/flows/member-place-order]]"><text x="193.00" y="389.00" font-size="12.00" font-family="NanumGothic, Noto Sans CJK KR, Apple SD Gothic Neo, Arial, sans-serif" text-anchor="start" fill="#667085" opacity="1.000"><tspan x="193.00" dy="0.00">회원이 상품, 수량, 결제 정보를 제출한다.</tspan></text></a>
<text x="569.00" y="328.25" font-size="14.00" font-family="NanumGothic, Noto Sans CJK KR, Apple SD Gothic Neo, Arial, sans-serif" text-anchor="middle" fill="#FFFFFF" opacity="1.000"><tspan x="569.00" dy="0.00">2</tspan></text>
<a href="[[atlas/flows/member-place-order]]"><text x="638.00" y="355.62" font-size="15.00" font-family="NanumGothic, Noto Sans CJK KR, Apple SD Gothic Neo, Arial, sans-serif" text-anchor="start" fill="#101828" opacity="1.000"><tspan x="638.00" dy="0.00">주문할 수 있는 회원인가?</tspan></text></a>
<text x="867.00" y="443.12" font-size="11.00" font-family="NanumGothic, Noto Sans CJK KR, Apple SD Gothic Neo, Arial, sans-serif" text-anchor="middle" fill="#D97706" opacity="1.000"><tspan x="867.00" dy="0.00">조건</tspan></text>
<a href="[[atlas/flows/member-place-order]]"><text x="581.00" y="389.00" font-size="12.00" font-family="NanumGothic, Noto Sans CJK KR, Apple SD Gothic Neo, Arial, sans-serif" text-anchor="start" fill="#667085" opacity="1.000"><tspan x="581.00" dy="0.00">회원 유형, 인증 상태, 정지 여부를 확인한다.</tspan></text></a>
<text x="957.00" y="328.25" font-size="14.00" font-family="NanumGothic, Noto Sans CJK KR, Apple SD Gothic Neo, Arial, sans-serif" text-anchor="middle" fill="#FFFFFF" opacity="1.000"><tspan x="957.00" dy="0.00">3</tspan></text>
<a href="[[atlas/flows/member-place-order]]"><text x="1026.00" y="355.62" font-size="15.00" font-family="NanumGothic, Noto Sans CJK KR, Apple SD Gothic Neo, Arial, sans-serif" text-anchor="start" fill="#101828" opacity="1.000"><tspan x="1026.00" dy="0.00">현재 주문 가능한 상품인가?</tspan></text></a>
<text x="1255.00" y="443.12" font-size="11.00" font-family="NanumGothic, Noto Sans CJK KR, Apple SD Gothic Neo, Arial, sans-serif" text-anchor="middle" fill="#D97706" opacity="1.000"><tspan x="1255.00" dy="0.00">조건</tspan></text>
<a href="[[atlas/flows/member-place-order]]"><text x="969.00" y="389.00" font-size="12.00" font-family="NanumGothic, Noto Sans CJK KR, Apple SD Gothic Neo, Arial, sans-serif" text-anchor="start" fill="#667085" opacity="1.000"><tspan x="969.00" dy="0.00">판매 중이고 판매 기간 안인지 판단한다.</tspan></text></a>
<text x="1345.00" y="328.25" font-size="14.00" font-family="NanumGothic, Noto Sans CJK KR, Apple SD Gothic Neo, Arial, sans-serif" text-anchor="middle" fill="#FFFFFF" opacity="1.000"><tspan x="1345.00" dy="0.00">4</tspan></text>
<a href="[[atlas/flows/member-place-order]]"><text x="1414.00" y="355.62" font-size="15.00" font-family="NanumGothic, Noto Sans CJK KR, Apple SD Gothic Neo, Arial, sans-serif" text-anchor="start" fill="#101828" opacity="1.000"><tspan x="1414.00" dy="0.00">주문 접수</tspan></text></a>
<a href="[[atlas/flows/member-place-order]]"><text x="1357.00" y="389.00" font-size="12.00" font-family="NanumGothic, Noto Sans CJK KR, Apple SD Gothic Neo, Arial, sans-serif" text-anchor="start" fill="#667085" opacity="1.000"><tspan x="1357.00" dy="0.00">상품과 가격을 고정해 주문을 접수 상태로</tspan><tspan x="1357.00" dy="15.00">만든다.</tspan><tspan x="1357.00" dy="15.00">NONE → PENDING</tspan></text></a>
<text x="181.00" y="628.25" font-size="14.00" font-family="NanumGothic, Noto Sans CJK KR, Apple SD Gothic Neo, Arial, sans-serif" text-anchor="middle" fill="#FFFFFF" opacity="1.000"><tspan x="181.00" dy="0.00">5</tspan></text>
<a href="[[atlas/flows/member-place-order]]"><text x="250.00" y="655.62" font-size="15.00" font-family="NanumGothic, Noto Sans CJK KR, Apple SD Gothic Neo, Arial, sans-serif" text-anchor="start" fill="#101828" opacity="1.000"><tspan x="250.00" dy="0.00">재고 확보</tspan></text></a>
<a href="[[atlas/flows/member-place-order]]"><text x="193.00" y="689.00" font-size="12.00" font-family="NanumGothic, Noto Sans CJK KR, Apple SD Gothic Neo, Arial, sans-serif" text-anchor="start" fill="#667085" opacity="1.000"><tspan x="193.00" dy="0.00">요청 수량을 주문에 맞춰 원자적으로 예약한다.</tspan></text></a>
<text x="569.00" y="628.25" font-size="14.00" font-family="NanumGothic, Noto Sans CJK KR, Apple SD Gothic Neo, Arial, sans-serif" text-anchor="middle" fill="#FFFFFF" opacity="1.000"><tspan x="569.00" dy="0.00">6</tspan></text>
<a href="[[atlas/flows/member-place-order]]"><text x="638.00" y="655.62" font-size="15.00" font-family="NanumGothic, Noto Sans CJK KR, Apple SD Gothic Neo, Arial, sans-serif" text-anchor="start" fill="#101828" opacity="1.000"><tspan x="638.00" dy="0.00">재고가 확보됐는가?</tspan></text></a>
<text x="867.00" y="743.12" font-size="11.00" font-family="NanumGothic, Noto Sans CJK KR, Apple SD Gothic Neo, Arial, sans-serif" text-anchor="middle" fill="#D97706" opacity="1.000"><tspan x="867.00" dy="0.00">조건</tspan></text>
<a href="[[atlas/flows/member-place-order]]"><text x="581.00" y="689.00" font-size="12.00" font-family="NanumGothic, Noto Sans CJK KR, Apple SD Gothic Neo, Arial, sans-serif" text-anchor="start" fill="#667085" opacity="1.000"><tspan x="581.00" dy="0.00">남은 수량이 주문 수량보다 충분한지 확인한다.</tspan></text></a>
<text x="957.00" y="628.25" font-size="14.00" font-family="NanumGothic, Noto Sans CJK KR, Apple SD Gothic Neo, Arial, sans-serif" text-anchor="middle" fill="#FFFFFF" opacity="1.000"><tspan x="957.00" dy="0.00">7</tspan></text>
<a href="[[atlas/flows/member-place-order]]"><text x="1026.00" y="655.62" font-size="15.00" font-family="NanumGothic, Noto Sans CJK KR, Apple SD Gothic Neo, Arial, sans-serif" text-anchor="start" fill="#101828" opacity="1.000"><tspan x="1026.00" dy="0.00">재고 확보 완료</tspan></text></a>
<a href="[[atlas/flows/member-place-order]]"><text x="969.00" y="689.00" font-size="12.00" font-family="NanumGothic, Noto Sans CJK KR, Apple SD Gothic Neo, Arial, sans-serif" text-anchor="start" fill="#667085" opacity="1.000"><tspan x="969.00" dy="0.00">주문에 재고 예약 정보를 기록한다.</tspan><tspan x="969.00" dy="15.00">PENDING → RESERVED</tspan></text></a>
<text x="1345.00" y="628.25" font-size="14.00" font-family="NanumGothic, Noto Sans CJK KR, Apple SD Gothic Neo, Arial, sans-serif" text-anchor="middle" fill="#FFFFFF" opacity="1.000"><tspan x="1345.00" dy="0.00">8</tspan></text>
<a href="[[atlas/flows/member-place-order]]"><text x="1414.00" y="655.62" font-size="15.00" font-family="NanumGothic, Noto Sans CJK KR, Apple SD Gothic Neo, Arial, sans-serif" text-anchor="start" fill="#101828" opacity="1.000"><tspan x="1414.00" dy="0.00">결제 승인 요청</tspan></text></a>
<a href="[[atlas/flows/member-place-order]]"><text x="1357.00" y="689.00" font-size="12.00" font-family="NanumGothic, Noto Sans CJK KR, Apple SD Gothic Neo, Arial, sans-serif" text-anchor="start" fill="#667085" opacity="1.000"><tspan x="1357.00" dy="0.00">재고가 확보된 뒤 결제 시스템에 승인을</tspan><tspan x="1357.00" dy="15.00">요청한다.</tspan><tspan x="1357.00" dy="15.00">NONE → REQUESTED</tspan></text></a>
<text x="181.00" y="928.25" font-size="14.00" font-family="NanumGothic, Noto Sans CJK KR, Apple SD Gothic Neo, Arial, sans-serif" text-anchor="middle" fill="#FFFFFF" opacity="1.000"><tspan x="181.00" dy="0.00">9</tspan></text>
<a href="[[atlas/flows/member-place-order]]"><text x="250.00" y="955.62" font-size="15.00" font-family="NanumGothic, Noto Sans CJK KR, Apple SD Gothic Neo, Arial, sans-serif" text-anchor="start" fill="#101828" opacity="1.000"><tspan x="250.00" dy="0.00">결제가 승인됐는가?</tspan></text></a>
<text x="479.00" y="1043.12" font-size="11.00" font-family="NanumGothic, Noto Sans CJK KR, Apple SD Gothic Neo, Arial, sans-serif" text-anchor="middle" fill="#D97706" opacity="1.000"><tspan x="479.00" dy="0.00">조건</tspan></text>
<a href="[[atlas/flows/member-place-order]]"><text x="193.00" y="989.00" font-size="12.00" font-family="NanumGothic, Noto Sans CJK KR, Apple SD Gothic Neo, Arial, sans-serif" text-anchor="start" fill="#667085" opacity="1.000"><tspan x="193.00" dy="0.00">승인, 거절, 응답 없음으로 결과를 나눈다.</tspan></text></a>
<text x="569.00" y="928.25" font-size="14.00" font-family="NanumGothic, Noto Sans CJK KR, Apple SD Gothic Neo, Arial, sans-serif" text-anchor="middle" fill="#FFFFFF" opacity="1.000"><tspan x="569.00" dy="0.00">10</tspan></text>
<a href="[[atlas/flows/member-place-order]]"><text x="638.00" y="955.62" font-size="15.00" font-family="NanumGothic, Noto Sans CJK KR, Apple SD Gothic Neo, Arial, sans-serif" text-anchor="start" fill="#101828" opacity="1.000"><tspan x="638.00" dy="0.00">주문 결제 완료</tspan></text></a>
<a href="[[atlas/flows/member-place-order]]"><text x="581.00" y="989.00" font-size="12.00" font-family="NanumGothic, Noto Sans CJK KR, Apple SD Gothic Neo, Arial, sans-serif" text-anchor="start" fill="#667085" opacity="1.000"><tspan x="581.00" dy="0.00">결제 승인 정보를 저장하고 주문을 완료한다.</tspan><tspan x="581.00" dy="15.00">RESERVED, REQUESTED →</tspan><tspan x="581.00" dy="15.00">PAID, AUTHORIZED</tspan></text></a>
<text x="957.00" y="928.25" font-size="14.00" font-family="NanumGothic, Noto Sans CJK KR, Apple SD Gothic Neo, Arial, sans-serif" text-anchor="middle" fill="#FFFFFF" opacity="1.000"><tspan x="957.00" dy="0.00">11</tspan></text>
<a href="[[atlas/flows/member-place-order]]"><text x="1026.00" y="955.62" font-size="15.00" font-family="NanumGothic, Noto Sans CJK KR, Apple SD Gothic Neo, Arial, sans-serif" text-anchor="start" fill="#101828" opacity="1.000"><tspan x="1026.00" dy="0.00">후속 처리 알림</tspan></text></a>
<a href="[[atlas/flows/member-place-order]]"><text x="969.00" y="989.00" font-size="12.00" font-family="NanumGothic, Noto Sans CJK KR, Apple SD Gothic Neo, Arial, sans-serif" text-anchor="start" fill="#667085" opacity="1.000"><tspan x="969.00" dy="0.00">확인·배송 처리를 위해 주문 완료 이벤트를</tspan><tspan x="969.00" dy="15.00">보낸다.</tspan></text></a>
<text x="1345.00" y="928.25" font-size="14.00" font-family="NanumGothic, Noto Sans CJK KR, Apple SD Gothic Neo, Arial, sans-serif" text-anchor="middle" fill="#FFFFFF" opacity="1.000"><tspan x="1345.00" dy="0.00">12</tspan></text>
<a href="[[atlas/flows/member-place-order]]"><text x="1414.00" y="955.62" font-size="15.00" font-family="NanumGothic, Noto Sans CJK KR, Apple SD Gothic Neo, Arial, sans-serif" text-anchor="start" fill="#101828" opacity="1.000"><tspan x="1414.00" dy="0.00">주문 완료</tspan></text></a>
<a href="[[atlas/flows/member-place-order]]"><text x="1357.00" y="989.00" font-size="12.00" font-family="NanumGothic, Noto Sans CJK KR, Apple SD Gothic Neo, Arial, sans-serif" text-anchor="start" fill="#667085" opacity="1.000"><tspan x="1357.00" dy="0.00">회원에게 주문 번호와 완료 상태를 반환한다.</tspan></text></a>
<a href="[[atlas/flows/member-place-order#errors-timeouts-and-retries]]"><text x="134.00" y="1219.38" font-size="17.00" font-family="NanumGothic, Noto Sans CJK KR, Apple SD Gothic Neo, Arial, sans-serif" text-anchor="start" fill="#101828" opacity="1.000"><tspan x="134.00" dy="0.00">왜 흐름이 멈추는가</tspan></text></a>
<a href="[[atlas/flows/member-place-order#errors-timeouts-and-retries]]"><text x="66.00" y="1260.00" font-size="14.00" font-family="NanumGothic, Noto Sans CJK KR, Apple SD Gothic Neo, Arial, sans-serif" text-anchor="start" fill="#667085" opacity="1.000"><tspan x="66.00" dy="0.00">• 회원이 미인증·정지 상태임 • 상품이</tspan><tspan x="66.00" dy="17.50">판매 중이 아니거나 판매 기간 밖임 •</tspan><tspan x="66.00" dy="17.50">주문할 재고가 부족함 • 결제가 거절되거나</tspan><tspan x="66.00" dy="17.50">응답을 확인할 수 없음</tspan></text></a>
<a href="[[unknowns]]"><text x="716.00" y="1219.38" font-size="17.00" font-family="NanumGothic, Noto Sans CJK KR, Apple SD Gothic Neo, Arial, sans-serif" text-anchor="start" fill="#101828" opacity="1.000"><tspan x="716.00" dy="0.00">아직 확인되지 않은 것</tspan></text></a>
<a href="[[unknowns]]"><text x="648.00" y="1260.00" font-size="14.00" font-family="NanumGothic, Noto Sans CJK KR, Apple SD Gothic Neo, Arial, sans-serif" text-anchor="start" fill="#667085" opacity="1.000"><tspan x="648.00" dy="0.00">• 결제 timeout 후 실제 재조회</tspan><tspan x="648.00" dy="17.50">정책</tspan></text></a>
<a href="[[atlas/index]]"><text x="1298.00" y="1219.38" font-size="17.00" font-family="NanumGothic, Noto Sans CJK KR, Apple SD Gothic Neo, Arial, sans-serif" text-anchor="start" fill="#101828" opacity="1.000"><tspan x="1298.00" dy="0.00">결제 실패·보상·상태 전이를 포함한 전체 지도 열기</tspan></text></a>
<a href="[[atlas/index]]"><text x="1230.00" y="1260.00" font-size="14.00" font-family="NanumGothic, Noto Sans CJK KR, Apple SD Gothic Neo, Arial, sans-serif" text-anchor="start" fill="#667085" opacity="1.000"><tspan x="1230.00" dy="0.00">• 결제 실패·timeout·재고 해제 •</tspan><tspan x="1230.00" dy="17.50">결제 후 주문 취소</tspan></text></a>
<text x="937.00" y="392.12" font-size="11.00" font-family="NanumGothic, Noto Sans CJK KR, Apple SD Gothic Neo, Arial, sans-serif" text-anchor="middle" fill="#4F46E5" opacity="1.000"><tspan x="937.00" dy="0.00">통과</tspan></text>
<text x="1325.00" y="392.12" font-size="11.00" font-family="NanumGothic, Noto Sans CJK KR, Apple SD Gothic Neo, Arial, sans-serif" text-anchor="middle" fill="#4F46E5" opacity="1.000"><tspan x="1325.00" dy="0.00">통과</tspan></text>
<text x="937.00" y="692.12" font-size="11.00" font-family="NanumGothic, Noto Sans CJK KR, Apple SD Gothic Neo, Arial, sans-serif" text-anchor="middle" fill="#4F46E5" opacity="1.000"><tspan x="937.00" dy="0.00">통과</tspan></text>
<text x="549.00" y="992.12" font-size="11.00" font-family="NanumGothic, Noto Sans CJK KR, Apple SD Gothic Neo, Arial, sans-serif" text-anchor="middle" fill="#4F46E5" opacity="1.000"><tspan x="549.00" dy="0.00">통과</tspan></text>
<text x="1325.00" y="992.12" font-size="11.00" font-family="NanumGothic, Noto Sans CJK KR, Apple SD Gothic Neo, Arial, sans-serif" text-anchor="middle" fill="#0E7490" opacity="1.000"><tspan x="1325.00" dy="0.00">비동기</tspan></text>
</svg>