<svg xmlns="http://www.w3.org/2000/svg" width="2200" height="925" viewBox="-12.00 -22.00 2307.00 971.00">
<rect x="-12.00" y="-22.00" width="2307.00" height="971.00" fill="#F7F8FC"/>
<rect x="55.00" y="215.00" width="2180.00" height="674.00" rx="18.00" stroke="#101828" fill="#101828" stroke-width="0.0" opacity="0.100"/>
<rect x="48.00" y="208.00" width="2180.00" height="674.00" rx="18.00" stroke="#D0D5DD" fill="#FFFFFF" stroke-width="1.4" opacity="1.000"/>
<rect x="78.00" y="308.00" width="2120.00" height="164.00" rx="18.00" stroke="#D0D5DD" fill="#F2F4F7" stroke-width="1.0" opacity="1.000"/>
<rect x="78.00" y="486.00" width="2120.00" height="164.00" rx="18.00" stroke="#D0D5DD" fill="#F2F4F7" stroke-width="1.0" opacity="1.000"/>
<rect x="78.00" y="664.00" width="2120.00" height="164.00" rx="18.00" stroke="#D0D5DD" fill="#F2F4F7" stroke-width="1.0" opacity="1.000"/>
<rect x="319.00" y="334.00" width="238.00" height="126.00" rx="18.00" stroke="#101828" fill="#101828" stroke-width="0.0" opacity="0.100"/>
<rect x="1429.00" y="334.00" width="238.00" height="126.00" rx="18.00" stroke="#101828" fill="#101828" stroke-width="0.0" opacity="0.100"/>
<rect x="1799.00" y="334.00" width="238.00" height="126.00" rx="18.00" stroke="#101828" fill="#101828" stroke-width="0.0" opacity="0.100"/>
<polyline points="555.00,390.00 616.00,390.00 616.00,568.00 677.00,568.00" stroke="#4F46E5" fill="none" stroke-width="3.0" opacity="1.000" stroke-linejoin="round" stroke-linecap="round"/><polygon points="677.00,568.00 658.00,576.55 658.00,559.45" fill="#4F46E5" opacity="1.000"/>
<polyline points="925.00,568.00 986.00,568.00 986.00,746.00 1047.00,746.00" stroke="#D97706" fill="none" stroke-width="2.2" opacity="1.000" stroke-linejoin="round" stroke-linecap="round"/><polygon points="1047.00,746.00 1029.60,753.83 1029.60,738.17" fill="#D97706" opacity="1.000"/>
<polyline points="925.00,568.00 1356.00,568.00 1356.00,390.00 1787.00,390.00" stroke="#D97706" fill="none" stroke-width="2.2" opacity="1.000" stroke-linejoin="round" stroke-linecap="round"/><polygon points="1787.00,390.00 1769.60,397.83 1769.60,382.17" fill="#D97706" opacity="1.000"/>
<polyline points="1295.00,746.00 1356.00,746.00 1356.00,390.00 1417.00,390.00" stroke="#D97706" fill="none" stroke-width="2.2" opacity="1.000" stroke-linejoin="round" stroke-linecap="round"/><polygon points="1417.00,390.00 1399.60,397.83 1399.60,382.17" fill="#D97706" opacity="1.000"/>
<polyline points="1295.00,746.00 1541.00,746.00 1541.00,390.00 1787.00,390.00" stroke="#D97706" fill="none" stroke-width="2.2" opacity="1.000" stroke-linejoin="round" stroke-linecap="round"/><polygon points="1787.00,390.00 1769.60,397.83 1769.60,382.17" fill="#D97706" opacity="1.000"/>
<rect x="56.00" y="38.00" width="139.36" height="30.00" rx="5.40" stroke="#4F46E5" fill="#EEF2FF" stroke-width="1.0" opacity="1.000"/>
<rect x="2073.68" y="81.00" width="146.32" height="30.00" rx="5.40" stroke="#667085" fill="#FFFFFF" stroke-width="1.0" opacity="1.000"/>
<rect x="48.00" y="208.00" width="8.00" height="674.00" rx="0.64" stroke="#4F46E5" fill="#4F46E5" stroke-width="0.0" opacity="1.000"/>
<rect x="76.00" y="230.00" width="88.00" height="30.00" rx="5.40" stroke="#4F46E5" fill="#F2F4F7" stroke-width="1.0" opacity="1.000"/>
<rect x="78.00" y="308.00" width="10.00" height="164.00" rx="0.80" stroke="#175CD3" fill="#175CD3" stroke-width="0.0" opacity="1.000"/>
<rect x="78.00" y="486.00" width="10.00" height="164.00" rx="0.80" stroke="#7F56D9" fill="#7F56D9" stroke-width="0.0" opacity="1.000"/>
<rect x="78.00" y="664.00" width="10.00" height="164.00" rx="0.80" stroke="#0E7490" fill="#0E7490" stroke-width="0.0" opacity="1.000"/>
<rect x="312.00" y="327.00" width="238.00" height="126.00" rx="18.00" stroke="#4F46E5" fill="#EEF2FF" stroke-width="1.6" opacity="1.000"/>
<rect x="312.00" y="327.00" width="238.00" height="5.00" rx="0.90" stroke="#4F46E5" fill="#4F46E5" stroke-width="0.0" opacity="1.000"/>
<rect x="327.00" y="342.00" width="44.00" height="44.00" rx="3.52" stroke="#EEF2FF" fill="#EEF2FF" stroke-width="0.0" opacity="1.000"/>
<rect x="1422.00" y="327.00" width="238.00" height="126.00" rx="18.00" stroke="#15803D" fill="#ECFDF3" stroke-width="1.6" opacity="1.000"/>
<rect x="1422.00" y="327.00" width="238.00" height="5.00" rx="0.90" stroke="#15803D" fill="#15803D" stroke-width="0.0" opacity="1.000"/>
<rect x="1437.00" y="342.00" width="44.00" height="44.00" rx="3.52" stroke="#ECFDF3" fill="#ECFDF3" stroke-width="0.0" opacity="1.000"/>
<rect x="1792.00" y="327.00" width="238.00" height="126.00" rx="18.00" stroke="#15803D" fill="#ECFDF3" stroke-width="1.6" opacity="1.000"/>
<rect x="1792.00" y="327.00" width="238.00" height="5.00" rx="0.90" stroke="#15803D" fill="#15803D" stroke-width="0.0" opacity="1.000"/>
<rect x="1807.00" y="342.00" width="44.00" height="44.00" rx="3.52" stroke="#ECFDF3" fill="#ECFDF3" stroke-width="0.0" opacity="1.000"/>
<polygon points="801.00,495.00 920.00,568.00 801.00,641.00 682.00,568.00" stroke="#D97706" fill="#FFFAEB" stroke-width="2.2" opacity="1.000" stroke-linejoin="round"/>
<rect x="779.00" y="509.00" width="44.00" height="44.00" rx="3.52" stroke="#FFFAEB" fill="#FFFAEB" stroke-width="0.0" opacity="1.000"/>
<ellipse cx="801.00" cy="531.00" rx="13.81" ry="13.81" stroke="#D97706" fill="none" stroke-width="2.1" opacity="1.000"/>
<ellipse cx="801.00" cy="541.10" rx="1.59" ry="1.59" stroke="#D97706" fill="#D97706" stroke-width="2.1" opacity="1.000"/>
<polygon points="1171.00,673.00 1290.00,746.00 1171.00,819.00 1052.00,746.00" stroke="#D97706" fill="#FFFAEB" stroke-width="2.2" opacity="1.000" stroke-linejoin="round"/>
<rect x="1149.00" y="687.00" width="44.00" height="44.00" rx="3.52" stroke="#FFFAEB" fill="#FFFAEB" stroke-width="0.0" opacity="1.000"/>
<ellipse cx="1171.00" cy="709.00" rx="13.81" ry="13.81" stroke="#D97706" fill="none" stroke-width="2.1" opacity="1.000"/>
<ellipse cx="1171.01" cy="719.10" rx="1.59" ry="1.59" stroke="#D97706" fill="#D97706" stroke-width="2.1" opacity="1.000"/>
<rect x="574.00" y="463.00" width="181.12" height="30.00" rx="5.40" stroke="#4F46E5" fill="#FFFFFF" stroke-width="1.0" opacity="1.000"/>
<rect x="944.00" y="641.00" width="168.36" height="30.00" rx="5.40" stroke="#D97706" fill="#FFFFFF" stroke-width="1.0" opacity="1.000"/>
<rect x="1314.00" y="463.00" width="136.46" height="30.00" rx="5.40" stroke="#D97706" fill="#FFFFFF" stroke-width="1.0" opacity="1.000"/>
<rect x="1314.00" y="552.00" width="161.98" height="30.00" rx="5.40" stroke="#D97706" fill="#FFFFFF" stroke-width="1.0" opacity="1.000"/>
<rect x="1499.00" y="552.00" width="161.98" height="30.00" rx="5.40" stroke="#D97706" fill="#FFFFFF" stroke-width="1.0" opacity="1.000"/>
<polyline points="341.56,352.31 341.56,375.69 358.56,364.00 341.56,352.31" stroke="#4F46E5" fill="none" stroke-width="2.1" opacity="1.000" stroke-linejoin="round" stroke-linecap="round"/>
<polyline points="1446.25,365.06 1454.75,373.56 1471.75,354.44" stroke="#15803D" fill="none" stroke-width="2.8" opacity="1.000" stroke-linejoin="round" stroke-linecap="round"/>
<polyline points="1816.25,365.06 1824.75,373.56 1841.75,354.44" stroke="#15803D" fill="none" stroke-width="2.8" opacity="1.000" stroke-linejoin="round" stroke-linecap="round"/>
<polyline points="795.69,525.69 797.81,522.50 803.13,522.50 806.31,525.69 806.31,528.88 802.07,532.06 801.00,535.25" stroke="#D97706" fill="none" stroke-width="2.1" opacity="1.000" stroke-linejoin="round" stroke-linecap="round"/>
<polyline points="1165.69,703.69 1167.81,700.50 1173.13,700.50 1176.31,703.69 1176.31,706.88 1172.07,710.06 1171.00,713.25" stroke="#D97706" fill="none" stroke-width="2.1" opacity="1.000" stroke-linejoin="round" stroke-linecap="round"/>
<text x="125.68" y="57.50" font-size="12.00" font-family="NanumGothic, Noto Sans CJK KR, Apple SD Gothic Neo, Arial, sans-serif" text-anchor="middle" fill="#4F46E5" opacity="1.000"><tspan x="125.68" dy="0.00">DEEP ATLAS · 검증…</tspan></text>
<text x="56.00" y="126.50" font-size="36.00" font-family="NanumGothic, Noto Sans CJK KR, Apple SD Gothic Neo, Arial, sans-serif" text-anchor="start" fill="#101828" opacity="1.000"><tspan x="56.00" dy="0.00">Browse products with orderability reason</tspan></text>
<text x="56.00" y="159.00" font-size="16.00" font-family="NanumGothic, Noto Sans CJK KR, Apple SD Gothic Neo, Arial, sans-serif" text-anchor="start" fill="#667085" opacity="1.000"><tspan x="56.00" dy="0.00">Show why a product appears orderable or blocked before checkout.</tspan></text>
<a href="[[architecture/atlas/flows/browse-orderable-products.md]]"><text x="2146.84" y="100.50" font-size="12.00" font-family="NanumGothic, Noto Sans CJK KR, Apple SD Gothic Neo, Arial, sans-serif" text-anchor="middle" fill="#667085" opacity="1.000"><tspan x="2146.84" dy="0.00">browse orderable…</tspan></text></a>
<text x="120.00" y="249.12" font-size="11.00" font-family="NanumGothic, Noto Sans CJK KR, Apple SD Gothic Neo, Arial, sans-serif" text-anchor="middle" fill="#4F46E5" opacity="1.000"><tspan x="120.00" dy="0.00">PHASE 1</tspan></text>
<text x="180.00" y="250.88" font-size="21.00" font-family="NanumGothic, Noto Sans CJK KR, Apple SD Gothic Neo, Arial, sans-serif" text-anchor="start" fill="#101828" opacity="1.000"><tspan x="180.00" dy="0.00">Catalog query</tspan></text>
<text x="76.00" y="279.00" font-size="13.00" font-family="NanumGothic, Noto Sans CJK KR, Apple SD Gothic Neo, Arial, sans-serif" text-anchor="start" fill="#667085" opacity="1.000"><tspan x="76.00" dy="0.00">Visibility plus orderability.</tspan></text>
<text x="98.00" y="340.25" font-size="14.00" font-family="NanumGothic, Noto Sans CJK KR, Apple SD Gothic Neo, Arial, sans-serif" text-anchor="start" fill="#101828" opacity="1.000"><tspan x="98.00" dy="0.00">Guest / member</tspan></text>
<text x="98.00" y="518.25" font-size="14.00" font-family="NanumGothic, Noto Sans CJK KR, Apple SD Gothic Neo, Arial, sans-serif" text-anchor="start" fill="#101828" opacity="1.000"><tspan x="98.00" dy="0.00">Catalog</tspan></text>
<text x="98.00" y="696.25" font-size="14.00" font-family="NanumGothic, Noto Sans CJK KR, Apple SD Gothic Neo, Arial, sans-serif" text-anchor="start" fill="#101828" opacity="1.000"><tspan x="98.00" dy="0.00">Inventory</tspan></text>
<text x="384.00" y="362.62" font-size="15.00" font-family="NanumGothic, Noto Sans CJK KR, Apple SD Gothic Neo, Arial, sans-serif" text-anchor="start" fill="#101828" opacity="1.000"><tspan x="384.00" dy="0.00">Open catalog</tspan></text>
<text x="327.00" y="396.00" font-size="12.00" font-family="NanumGothic, Noto Sans CJK KR, Apple SD Gothic Neo, Arial, sans-serif" text-anchor="start" fill="#667085" opacity="1.000"><tspan x="327.00" dy="0.00">Request products.</tspan></text>
<text x="1494.00" y="362.62" font-size="15.00" font-family="NanumGothic, Noto Sans CJK KR, Apple SD Gothic Neo, Arial, sans-serif" text-anchor="start" fill="#101828" opacity="1.000"><tspan x="1494.00" dy="0.00">Orderable</tspan></text>
<text x="1437.00" y="396.00" font-size="12.00" font-family="NanumGothic, Noto Sans CJK KR, Apple SD Gothic Neo, Arial, sans-serif" text-anchor="start" fill="#667085" opacity="1.000"><tspan x="1437.00" dy="0.00">Show product as orderable</tspan><tspan x="1437.00" dy="15.00">with current price.</tspan></text>
<text x="1864.00" y="362.62" font-size="15.00" font-family="NanumGothic, Noto Sans CJK KR, Apple SD Gothic Neo, Arial, sans-serif" text-anchor="start" fill="#101828" opacity="1.000"><tspan x="1864.00" dy="0.00">Blocked with reason</tspan></text>
<text x="1807.00" y="396.00" font-size="12.00" font-family="NanumGothic, Noto Sans CJK KR, Apple SD Gothic Neo, Arial, sans-serif" text-anchor="start" fill="#667085" opacity="1.000"><tspan x="1807.00" dy="0.00">Show inactive,</tspan><tspan x="1807.00" dy="15.00">sale-window, or stock</tspan><tspan x="1807.00" dy="15.00">reason.</tspan></text>
<a href="[[rules/rule-product-active]]"><text x="801.00" y="563.00" font-size="14.00" font-family="NanumGothic, Noto Sans CJK KR, Apple SD Gothic Neo, Arial, sans-serif" text-anchor="middle" fill="#101828" opacity="1.000"><tspan x="801.00" dy="0.00">Product active &amp; sale</tspan><tspan x="801.00" dy="17.50">open?</tspan><tspan x="801.00" dy="17.50">Apply product state</tspan><tspan x="801.00" dy="17.50">and sale window.</tspan></text></a>
<a href="[[rules/rule-stock-available]]"><text x="1171.00" y="749.75" font-size="14.00" font-family="NanumGothic, Noto Sans CJK KR, Apple SD Gothic Neo, Arial, sans-serif" text-anchor="middle" fill="#101828" opacity="1.000"><tspan x="1171.00" dy="0.00">Stock available?</tspan><tspan x="1171.00" dy="17.50">Attach availability</tspan><tspan x="1171.00" dy="17.50">reason.</tspan></text></a>
<text x="664.56" y="482.12" font-size="11.00" font-family="NanumGothic, Noto Sans CJK KR, Apple SD Gothic Neo, Arial, sans-serif" text-anchor="middle" fill="#4F46E5" opacity="1.000"><tspan x="664.56" dy="0.00">request · catalog opened</tspan></text>
<text x="1028.18" y="660.12" font-size="11.00" font-family="NanumGothic, Noto Sans CJK KR, Apple SD Gothic Neo, Arial, sans-serif" text-anchor="middle" fill="#D97706" opacity="1.000"><tspan x="1028.18" dy="0.00">eligible · ACTIVE and…</tspan></text>
<text x="1382.23" y="482.12" font-size="11.00" font-family="NanumGothic, Noto Sans CJK KR, Apple SD Gothic Neo, Arial, sans-serif" text-anchor="middle" fill="#D97706" opacity="1.000"><tspan x="1382.23" dy="0.00">NO · inactive or…</tspan></text>
<text x="1394.99" y="571.12" font-size="11.00" font-family="NanumGothic, Noto Sans CJK KR, Apple SD Gothic Neo, Arial, sans-serif" text-anchor="middle" fill="#D97706" opacity="1.000"><tspan x="1394.99" dy="0.00">YES · availableQty &gt;…</tspan></text>
<text x="1579.99" y="571.12" font-size="11.00" font-family="NanumGothic, Noto Sans CJK KR, Apple SD Gothic Neo, Arial, sans-serif" text-anchor="middle" fill="#D97706" opacity="1.000"><tspan x="1579.99" dy="0.00">NO · availableQty ==…</tspan></text>
</svg>