<svg xmlns="http://www.w3.org/2000/svg" width="2453" height="647" viewBox="-12.00 -22.00 2453.00 647.00">
<rect x="-12.00" y="-22.00" width="2453.00" height="647.00" fill="#F7F8FC"/>
<rect x="55.00" y="215.00" width="2326.00" height="350.00" rx="18.00" stroke="#101828" fill="#101828" stroke-width="0.0" opacity="0.100"/>
<rect x="48.00" y="208.00" width="2326.00" height="350.00" rx="18.00" stroke="#D0D5DD" fill="#FFFFFF" stroke-width="1.4" opacity="1.000"/>
<rect x="85.00" y="351.00" width="286.00" height="158.00" rx="18.00" stroke="#101828" fill="#101828" stroke-width="0.0" opacity="0.100"/>
<rect x="481.00" y="351.00" width="286.00" height="158.00" rx="18.00" stroke="#101828" fill="#101828" stroke-width="0.0" opacity="0.100"/>
<rect x="877.00" y="351.00" width="286.00" height="158.00" rx="18.00" stroke="#101828" fill="#101828" stroke-width="0.0" opacity="0.100"/>
<rect x="1273.00" y="351.00" width="286.00" height="158.00" rx="18.00" stroke="#101828" fill="#101828" stroke-width="0.0" opacity="0.100"/>
<rect x="1669.00" y="351.00" width="286.00" height="158.00" rx="18.00" stroke="#101828" fill="#101828" stroke-width="0.0" opacity="0.100"/>
<rect x="2065.00" y="351.00" width="286.00" height="158.00" rx="18.00" stroke="#101828" fill="#101828" stroke-width="0.0" opacity="0.100"/>
<polyline points="1013.00,339.00 1013.00,306.00 221.00,306.00 221.00,339.00" stroke="#667085" fill="none" stroke-width="2.2" opacity="1.000" stroke-linejoin="round" stroke-linecap="round"/><polygon points="221.00,339.00 213.17,321.60 228.83,321.60" fill="#667085" opacity="1.000"/>
<polyline points="1013.00,339.00 1013.00,272.00 617.00,272.00 617.00,339.00" stroke="#667085" fill="none" stroke-width="2.2" opacity="1.000" stroke-linejoin="round" stroke-linecap="round"/><polygon points="617.00,339.00 609.17,321.60 624.83,321.60" fill="#667085" opacity="1.000"/>
<polyline points="1161.00,423.00 1261.00,423.00" stroke="#667085" fill="none" stroke-width="2.2" opacity="1.000" stroke-linejoin="round" stroke-linecap="round"/><polygon points="1261.00,423.00 1243.60,430.83 1243.60,415.17" fill="#667085" opacity="1.000"/>
<polyline points="1161.00,423.00 1657.00,423.00" stroke="#667085" fill="none" stroke-width="2.2" opacity="1.000" stroke-linejoin="round" stroke-linecap="round"/><polygon points="1657.00,423.00 1639.60,430.83 1639.60,415.17" fill="#667085" opacity="1.000"/>
<polyline points="1161.00,423.00 2053.00,423.00" stroke="#0E7490" fill="none" stroke-width="2.2" opacity="1.000" stroke-dasharray="12 8" stroke-linejoin="round" stroke-linecap="round"/><polygon points="2053.00,423.00 2035.60,430.83 2035.60,415.17" fill="#0E7490" opacity="1.000"/>
<rect x="56.00" y="38.00" width="146.32" height="30.00" rx="5.40" stroke="#4F46E5" fill="#EEF2FF" stroke-width="1.0" opacity="1.000"/>
<rect x="2262.00" y="81.00" width="104.00" height="30.00" rx="5.40" stroke="#667085" fill="#FFFFFF" stroke-width="1.0" opacity="1.000"/>
<rect x="2148.00" y="81.00" width="104.00" height="30.00" rx="5.40" stroke="#667085" fill="#FFFFFF" stroke-width="1.0" opacity="1.000"/>
<rect x="48.00" y="208.00" width="8.00" height="350.00" rx="0.64" stroke="#4F46E5" fill="#4F46E5" stroke-width="0.0" opacity="1.000"/>
<rect x="78.00" y="344.00" width="286.00" height="158.00" rx="18.00" stroke="#4F46E5" fill="#EEF2FF" stroke-width="1.6" opacity="1.000"/>
<rect x="78.00" y="344.00" width="286.00" height="6.00" rx="1.08" stroke="#4F46E5" fill="#4F46E5" stroke-width="0.0" opacity="1.000"/>
<rect x="96.00" y="362.00" width="52.00" height="52.00" rx="4.16" stroke="#EEF2FF" fill="#EEF2FF" stroke-width="0.0" opacity="1.000"/>
<rect x="104.50" y="370.50" width="15.00" height="15.00" rx="1.20" stroke="#4F46E5" fill="none" stroke-width="2.1" opacity="1.000"/>
<rect x="124.50" y="370.50" width="15.00" height="15.00" rx="1.20" stroke="#4F46E5" fill="none" stroke-width="2.1" opacity="1.000"/>
<rect x="104.50" y="390.50" width="15.00" height="15.00" rx="1.20" stroke="#4F46E5" fill="none" stroke-width="2.1" opacity="1.000"/>
<rect x="124.50" y="390.50" width="15.00" height="15.00" rx="1.20" stroke="#4F46E5" fill="none" stroke-width="2.1" opacity="1.000"/>
<rect x="474.00" y="344.00" width="286.00" height="158.00" rx="18.00" stroke="#4F46E5" fill="#EEF2FF" stroke-width="1.6" opacity="1.000"/>
<rect x="474.00" y="344.00" width="286.00" height="6.00" rx="1.08" stroke="#4F46E5" fill="#4F46E5" stroke-width="0.0" opacity="1.000"/>
<rect x="492.00" y="362.00" width="52.00" height="52.00" rx="4.16" stroke="#EEF2FF" fill="#EEF2FF" stroke-width="0.0" opacity="1.000"/>
<rect x="500.50" y="370.50" width="15.00" height="15.00" rx="1.20" stroke="#4F46E5" fill="none" stroke-width="2.1" opacity="1.000"/>
<rect x="520.50" y="370.50" width="15.00" height="15.00" rx="1.20" stroke="#4F46E5" fill="none" stroke-width="2.1" opacity="1.000"/>
<rect x="500.50" y="390.50" width="15.00" height="15.00" rx="1.20" stroke="#4F46E5" fill="none" stroke-width="2.1" opacity="1.000"/>
<rect x="520.50" y="390.50" width="15.00" height="15.00" rx="1.20" stroke="#4F46E5" fill="none" stroke-width="2.1" opacity="1.000"/>
<rect x="870.00" y="344.00" width="286.00" height="158.00" rx="18.00" stroke="#4F46E5" fill="#EEF2FF" stroke-width="1.6" opacity="1.000"/>
<rect x="870.00" y="344.00" width="286.00" height="6.00" rx="1.08" stroke="#4F46E5" fill="#4F46E5" stroke-width="0.0" opacity="1.000"/>
<rect x="888.00" y="362.00" width="52.00" height="52.00" rx="4.16" stroke="#EEF2FF" fill="#EEF2FF" stroke-width="0.0" opacity="1.000"/>
<rect x="1266.00" y="344.00" width="286.00" height="158.00" rx="18.00" stroke="#4F46E5" fill="#EEF2FF" stroke-width="1.6" opacity="1.000"/>
<rect x="1266.00" y="344.00" width="286.00" height="6.00" rx="1.08" stroke="#4F46E5" fill="#4F46E5" stroke-width="0.0" opacity="1.000"/>
<rect x="1284.00" y="362.00" width="52.00" height="52.00" rx="4.16" stroke="#EEF2FF" fill="#EEF2FF" stroke-width="0.0" opacity="1.000"/>
<rect x="1292.50" y="370.50" width="15.00" height="15.00" rx="1.20" stroke="#4F46E5" fill="none" stroke-width="2.1" opacity="1.000"/>
<rect x="1312.50" y="370.50" width="15.00" height="15.00" rx="1.20" stroke="#4F46E5" fill="none" stroke-width="2.1" opacity="1.000"/>
<rect x="1292.50" y="390.50" width="15.00" height="15.00" rx="1.20" stroke="#4F46E5" fill="none" stroke-width="2.1" opacity="1.000"/>
<rect x="1312.50" y="390.50" width="15.00" height="15.00" rx="1.20" stroke="#4F46E5" fill="none" stroke-width="2.1" opacity="1.000"/>
<rect x="1662.00" y="344.00" width="286.00" height="158.00" rx="18.00" stroke="#4F46E5" fill="#EEF2FF" stroke-width="1.6" opacity="1.000"/>
<rect x="1662.00" y="344.00" width="286.00" height="6.00" rx="1.08" stroke="#4F46E5" fill="#4F46E5" stroke-width="0.0" opacity="1.000"/>
<rect x="1680.00" y="362.00" width="52.00" height="52.00" rx="4.16" stroke="#EEF2FF" fill="#EEF2FF" stroke-width="0.0" opacity="1.000"/>
<rect x="1688.50" y="370.50" width="15.00" height="15.00" rx="1.20" stroke="#4F46E5" fill="none" stroke-width="2.1" opacity="1.000"/>
<rect x="1708.50" y="370.50" width="15.00" height="15.00" rx="1.20" stroke="#4F46E5" fill="none" stroke-width="2.1" opacity="1.000"/>
<rect x="1688.50" y="390.50" width="15.00" height="15.00" rx="1.20" stroke="#4F46E5" fill="none" stroke-width="2.1" opacity="1.000"/>
<rect x="1708.50" y="390.50" width="15.00" height="15.00" rx="1.20" stroke="#4F46E5" fill="none" stroke-width="2.1" opacity="1.000"/>
<rect x="2058.00" y="344.00" width="286.00" height="158.00" rx="18.00" stroke="#C11574" fill="#FDF2FA" stroke-width="1.6" opacity="1.000"/>
<rect x="2058.00" y="344.00" width="286.00" height="6.00" rx="1.08" stroke="#C11574" fill="#C11574" stroke-width="0.0" opacity="1.000"/>
<rect x="2076.00" y="362.00" width="52.00" height="52.00" rx="4.16" stroke="#FDF2FA" fill="#FDF2FA" stroke-width="0.0" opacity="1.000"/>
<ellipse cx="2102.00" cy="388.00" rx="13.75" ry="13.75" stroke="#C11574" fill="none" stroke-width="2.1" opacity="1.000"/>
<ellipse cx="2102.00" cy="388.00" rx="5.00" ry="5.00" stroke="#C11574" fill="none" stroke-width="2.1" opacity="1.000"/>
<rect x="575.00" y="278.00" width="206.64" height="30.00" rx="5.40" stroke="#667085" fill="#FFFFFF" stroke-width="1.0" opacity="1.000"/>
<rect x="773.00" y="244.00" width="174.74" height="30.00" rx="5.40" stroke="#667085" fill="#FFFFFF" stroke-width="1.0" opacity="1.000"/>
<rect x="1169.00" y="385.00" width="155.60" height="30.00" rx="5.40" stroke="#667085" fill="#FFFFFF" stroke-width="1.0" opacity="1.000"/>
<rect x="1367.00" y="385.00" width="168.36" height="30.00" rx="5.40" stroke="#667085" fill="#FFFFFF" stroke-width="1.0" opacity="1.000"/>
<rect x="1565.00" y="385.00" width="193.88" height="30.00" rx="5.40" stroke="#0E7490" fill="#FFFFFF" stroke-width="1.0" opacity="1.000"/>
<polyline points="905.25,374.25 905.25,401.75 925.25,388.00 905.25,374.25" stroke="#4F46E5" fill="none" stroke-width="2.1" opacity="1.000" stroke-linejoin="round" stroke-linecap="round"/>
<polyline points="2102.00,369.25 2102.00,375.50 2102.00,400.50 2102.00,406.75 2083.25,388.00 2089.50,388.00 2114.50,388.00 2120.75,388.00" stroke="#C11574" fill="none" stroke-width="2.1" opacity="1.000" stroke-linejoin="round" stroke-linecap="round"/>
<text x="129.16" y="57.50" font-size="12.00" font-family="NanumGothic, Noto Sans CJK KR, Apple SD Gothic Neo, Arial, sans-serif" text-anchor="middle" fill="#4F46E5" opacity="1.000"><tspan x="129.16" dy="0.00">DEEP ATLAS · 도메인…</tspan></text>
<text x="56.00" y="126.50" font-size="36.00" font-family="NanumGothic, Noto Sans CJK KR, Apple SD Gothic Neo, Arial, sans-serif" text-anchor="start" fill="#101828" opacity="1.000"><tspan x="56.00" dy="0.00">Commerce responsibility and contract map</tspan></text>
<text x="56.00" y="159.00" font-size="16.00" font-family="NanumGothic, Noto Sans CJK KR, Apple SD Gothic Neo, Arial, sans-serif" text-anchor="start" fill="#667085" opacity="1.000"><tspan x="56.00" dy="0.00">Show domain ownership and typed contracts. This is context, not a substitute for a</tspan><tspan x="56.00" dy="20.00">business stream.</tspan></text>
<a href="[[architecture/atlas/flows/member-place-order.md]]"><text x="2314.00" y="100.50" font-size="12.00" font-family="NanumGothic, Noto Sans CJK KR, Apple SD Gothic Neo, Arial, sans-serif" text-anchor="middle" fill="#667085" opacity="1.000"><tspan x="2314.00" dy="0.00">흐름 문서</tspan></text></a>
<a href="[[architecture/atlas/domains/ordering.md]]"><text x="2200.00" y="100.50" font-size="12.00" font-family="NanumGothic, Noto Sans CJK KR, Apple SD Gothic Neo, Arial, sans-serif" text-anchor="middle" fill="#667085" opacity="1.000"><tspan x="2200.00" dy="0.00">Deep Atlas</tspan></text></a>
<text x="76.00" y="250.88" font-size="21.00" font-family="NanumGothic, Noto Sans CJK KR, Apple SD Gothic Neo, Arial, sans-serif" text-anchor="start" fill="#101828" opacity="1.000"><tspan x="76.00" dy="0.00">Business and supporting domains</tspan></text>
<text x="76.00" y="279.00" font-size="13.00" font-family="NanumGothic, Noto Sans CJK KR, Apple SD Gothic Neo, Arial, sans-serif" text-anchor="start" fill="#667085" opacity="1.000"><tspan x="76.00" dy="0.00">Show domain ownership and typed contracts. This is context, not a substitute for a</tspan><tspan x="76.00" dy="16.25">business stream.</tspan></text>
<a href="[[domains/identity-access]]"><text x="164.00" y="385.38" font-size="17.00" font-family="NanumGothic, Noto Sans CJK KR, Apple SD Gothic Neo, Arial, sans-serif" text-anchor="start" fill="#101828" opacity="1.000"><tspan x="164.00" dy="0.00">Identity &amp; access</tspan></text></a>
<a href="[[domains/identity-access]]"><text x="96.00" y="426.00" font-size="14.00" font-family="NanumGothic, Noto Sans CJK KR, Apple SD Gothic Neo, Arial, sans-serif" text-anchor="start" fill="#667085" opacity="1.000"><tspan x="96.00" dy="0.00">Member type,</tspan><tspan x="96.00" dy="17.50">verification,</tspan><tspan x="96.00" dy="17.50">permission.</tspan></text></a>
<a href="[[domains/catalog]]"><text x="560.00" y="385.38" font-size="17.00" font-family="NanumGothic, Noto Sans CJK KR, Apple SD Gothic Neo, Arial, sans-serif" text-anchor="start" fill="#101828" opacity="1.000"><tspan x="560.00" dy="0.00">Catalog</tspan></text></a>
<a href="[[domains/catalog]]"><text x="492.00" y="426.00" font-size="14.00" font-family="NanumGothic, Noto Sans CJK KR, Apple SD Gothic Neo, Arial, sans-serif" text-anchor="start" fill="#667085" opacity="1.000"><tspan x="492.00" dy="0.00">Product state, sale</tspan><tspan x="492.00" dy="17.50">window, price.</tspan></text></a>
<a href="[[domains/ordering]]"><text x="956.00" y="385.38" font-size="17.00" font-family="NanumGothic, Noto Sans CJK KR, Apple SD Gothic Neo, Arial, sans-serif" text-anchor="start" fill="#101828" opacity="1.000"><tspan x="956.00" dy="0.00">Ordering</tspan></text></a>
<a href="[[domains/ordering]]"><text x="888.00" y="426.00" font-size="14.00" font-family="NanumGothic, Noto Sans CJK KR, Apple SD Gothic Neo, Arial, sans-serif" text-anchor="start" fill="#667085" opacity="1.000"><tspan x="888.00" dy="0.00">Order orchestration and</tspan><tspan x="888.00" dy="17.50">lifecycle.</tspan></text></a>
<a href="[[domains/inventory]]"><text x="1352.00" y="385.38" font-size="17.00" font-family="NanumGothic, Noto Sans CJK KR, Apple SD Gothic Neo, Arial, sans-serif" text-anchor="start" fill="#101828" opacity="1.000"><tspan x="1352.00" dy="0.00">Inventory</tspan></text></a>
<a href="[[domains/inventory]]"><text x="1284.00" y="426.00" font-size="14.00" font-family="NanumGothic, Noto Sans CJK KR, Apple SD Gothic Neo, Arial, sans-serif" text-anchor="start" fill="#667085" opacity="1.000"><tspan x="1284.00" dy="0.00">Availability, reserve,</tspan><tspan x="1284.00" dy="17.50">release.</tspan></text></a>
<a href="[[domains/payment]]"><text x="1748.00" y="385.38" font-size="17.00" font-family="NanumGothic, Noto Sans CJK KR, Apple SD Gothic Neo, Arial, sans-serif" text-anchor="start" fill="#101828" opacity="1.000"><tspan x="1748.00" dy="0.00">Payment</tspan></text></a>
<a href="[[domains/payment]]"><text x="1680.00" y="426.00" font-size="14.00" font-family="NanumGothic, Noto Sans CJK KR, Apple SD Gothic Neo, Arial, sans-serif" text-anchor="start" fill="#667085" opacity="1.000"><tspan x="1680.00" dy="0.00">Authorization, decline,</tspan><tspan x="1680.00" dy="17.50">refund.</tspan></text></a>
<a href="[[flows/member-place-order#event]]"><text x="2144.00" y="385.38" font-size="17.00" font-family="NanumGothic, Noto Sans CJK KR, Apple SD Gothic Neo, Arial, sans-serif" text-anchor="start" fill="#101828" opacity="1.000"><tspan x="2144.00" dy="0.00">Order event worker</tspan></text></a>
<a href="[[flows/member-place-order#event]]"><text x="2076.00" y="426.00" font-size="14.00" font-family="NanumGothic, Noto Sans CJK KR, Apple SD Gothic Neo, Arial, sans-serif" text-anchor="start" fill="#667085" opacity="1.000"><tspan x="2076.00" dy="0.00">Consumes order.placed</tspan><tspan x="2076.00" dy="17.50">for downstream work.</tspan></text></a>
<text x="678.32" y="297.12" font-size="11.00" font-family="NanumGothic, Noto Sans CJK KR, Apple SD Gothic Neo, Arial, sans-serif" text-anchor="middle" fill="#667085" opacity="1.000"><tspan x="678.32" dy="0.00">authorize · CanPlaceOrder p…</tspan></text>
<text x="860.37" y="263.12" font-size="11.00" font-family="NanumGothic, Noto Sans CJK KR, Apple SD Gothic Neo, Arial, sans-serif" text-anchor="middle" fill="#667085" opacity="1.000"><tspan x="860.37" dy="0.00">query · GetOrderability</tspan></text>
<text x="1246.80" y="404.12" font-size="11.00" font-family="NanumGothic, Noto Sans CJK KR, Apple SD Gothic Neo, Arial, sans-serif" text-anchor="middle" fill="#667085" opacity="1.000"><tspan x="1246.80" dy="0.00">command · Reserve /…</tspan></text>
<text x="1451.18" y="404.12" font-size="11.00" font-family="NanumGothic, Noto Sans CJK KR, Apple SD Gothic Neo, Arial, sans-serif" text-anchor="middle" fill="#667085" opacity="1.000"><tspan x="1451.18" dy="0.00">command · Authorize /…</tspan></text>
<text x="1661.94" y="404.12" font-size="11.00" font-family="NanumGothic, Noto Sans CJK KR, Apple SD Gothic Neo, Arial, sans-serif" text-anchor="middle" fill="#0E7490" opacity="1.000"><tspan x="1661.94" dy="0.00">order.placed · after PAID…</tspan></text>
</svg>