<svg xmlns="http://www.w3.org/2000/svg" width="2200" height="1559" viewBox="-12.00 -22.00 2577.00 1827.00">
<rect x="-12.00" y="-22.00" width="2577.00" height="1827.00" fill="#F7F8FC"/>
<rect x="55.00" y="215.00" width="2450.00" height="482.00" rx="18.00" stroke="#101828" fill="#101828" stroke-width="0.0" opacity="0.100"/>
<rect x="78.00" y="308.00" width="2390.00" height="342.00" rx="18.00" stroke="#D0D5DD" fill="#F2F4F7" stroke-width="1.0" opacity="1.000"/>
<rect x="55.00" y="739.00" width="2450.00" height="482.00" rx="18.00" stroke="#101828" fill="#101828" stroke-width="0.0" opacity="0.100"/>
<rect x="78.00" y="832.00" width="2390.00" height="342.00" rx="18.00" stroke="#D0D5DD" fill="#F2F4F7" stroke-width="1.0" opacity="1.000"/>
<rect x="55.00" y="1263.00" width="2450.00" height="482.00" rx="18.00" stroke="#101828" fill="#101828" stroke-width="0.0" opacity="0.100"/>
<rect x="78.00" y="1356.00" width="2390.00" height="342.00" rx="18.00" stroke="#D0D5DD" fill="#F2F4F7" stroke-width="1.0" opacity="1.000"/>
<rect x="325.00" y="369.00" width="238.00" height="126.00" rx="18.00" stroke="#101828" fill="#101828" stroke-width="0.0" opacity="0.100"/>
<rect x="795.00" y="369.00" width="238.00" height="126.00" rx="18.00" stroke="#101828" fill="#101828" stroke-width="0.0" opacity="0.100"/>
<rect x="1265.00" y="531.00" width="238.00" height="126.00" rx="18.00" stroke="#101828" fill="#101828" stroke-width="0.0" opacity="0.100"/>
<rect x="1735.00" y="369.00" width="238.00" height="126.00" rx="18.00" stroke="#101828" fill="#101828" stroke-width="0.0" opacity="0.100"/>
<rect x="325.00" y="893.00" width="238.00" height="126.00" rx="18.00" stroke="#101828" fill="#101828" stroke-width="0.0" opacity="0.100"/>
<rect x="795.00" y="893.00" width="238.00" height="126.00" rx="18.00" stroke="#101828" fill="#101828" stroke-width="0.0" opacity="0.100"/>
<rect x="1265.00" y="893.00" width="238.00" height="126.00" rx="18.00" stroke="#101828" fill="#101828" stroke-width="0.0" opacity="0.100"/>
<rect x="1735.00" y="893.00" width="238.00" height="126.00" rx="18.00" stroke="#101828" fill="#101828" stroke-width="0.0" opacity="0.100"/>
<rect x="2205.00" y="1055.00" width="238.00" height="126.00" rx="18.00" stroke="#101828" fill="#101828" stroke-width="0.0" opacity="0.100"/>
<polyline points="561.00,425.00 783.00,425.00" stroke="#D97706" fill="none" stroke-width="2.2" opacity="1.000" stroke-linejoin="round" stroke-linecap="round"/><polygon points="783.00,425.00 765.60,432.83 765.60,417.17" fill="#D97706" opacity="1.000"/>
<polyline points="907.00,493.00 907.00,512.00 1377.00,512.00 1377.00,519.00" stroke="#D97706" fill="none" stroke-width="2.2" opacity="1.000" stroke-linejoin="round" stroke-linecap="round"/><polygon points="1377.00,519.00 1369.17,501.60 1384.83,501.60" fill="#D97706" opacity="1.000"/>
<polyline points="1377.00,655.00 1377.00,686.00 907.00,686.00 907.00,493.00" stroke="#D97706" fill="none" stroke-width="2.2" opacity="1.000" stroke-linejoin="round" stroke-linecap="round"/><polygon points="907.00,493.00 914.83,510.40 899.17,510.40" fill="#D97706" opacity="1.000"/>
<polyline points="1031.00,425.00 1723.00,425.00" stroke="#D97706" fill="none" stroke-width="2.2" opacity="1.000" stroke-linejoin="round" stroke-linecap="round"/><polygon points="1723.00,425.00 1705.60,432.83 1705.60,417.17" fill="#D97706" opacity="1.000"/>
<polyline points="561.00,949.00 783.00,949.00" stroke="#4F46E5" fill="none" stroke-width="3.0" opacity="1.000" stroke-linejoin="round" stroke-linecap="round"/><polygon points="783.00,949.00 764.00,957.55 764.00,940.45" fill="#4F46E5" opacity="1.000"/>
<polyline points="1031.00,949.00 1253.00,949.00" stroke="#D97706" fill="none" stroke-width="2.2" opacity="1.000" stroke-linejoin="round" stroke-linecap="round"/><polygon points="1253.00,949.00 1235.60,956.83 1235.60,941.17" fill="#D97706" opacity="1.000"/>
<polyline points="907.00,1017.00 907.00,1036.00 2317.00,1036.00 2317.00,1043.00" stroke="#D92D20" fill="none" stroke-width="3.0" opacity="1.000" stroke-dasharray="12 8" stroke-linejoin="round" stroke-linecap="round"/><polygon points="2317.00,1043.00 2308.45,1024.00 2325.55,1024.00" fill="#D92D20" opacity="1.000"/>
<polyline points="1501.00,949.00 1723.00,949.00" stroke="#D97706" fill="none" stroke-width="2.2" opacity="1.000" stroke-linejoin="round" stroke-linecap="round"/><polygon points="1723.00,949.00 1705.60,956.83 1705.60,941.17" fill="#D97706" opacity="1.000"/>
<polyline points="1377.00,1017.00 1377.00,1036.00 2317.00,1036.00 2317.00,1043.00" stroke="#D92D20" fill="none" stroke-width="3.0" opacity="1.000" stroke-dasharray="12 8" stroke-linejoin="round" stroke-linecap="round"/><polygon points="2317.00,1043.00 2308.45,1024.00 2325.55,1024.00" fill="#D92D20" opacity="1.000"/>
<polyline points="907.00,493.00 907.00,532.00 437.00,532.00 437.00,1405.00" stroke="#98A2B3" fill="none" stroke-width="2.2" opacity="1.000" stroke-dasharray="3 7" stroke-linejoin="round" stroke-linecap="round"/><polygon points="437.00,1405.00 429.17,1387.60 444.83,1387.60" fill="#98A2B3" opacity="1.000"/>
<polyline points="437.00,1541.00 437.00,1560.00 907.00,1560.00 907.00,881.00" stroke="#98A2B3" fill="none" stroke-width="2.2" opacity="1.000" stroke-dasharray="3 7" stroke-linejoin="round" stroke-linecap="round"/><polygon points="907.00,881.00 914.83,898.40 899.17,898.40" fill="#98A2B3" opacity="1.000"/>
<rect x="56.00" y="38.00" width="139.36" height="30.00" rx="5.40" stroke="#4F46E5" fill="#EEF2FF" stroke-width="1.0" opacity="1.000"/>
<rect x="2371.52" y="81.00" width="118.48" height="30.00" rx="5.40" stroke="#667085" fill="#FFFFFF" stroke-width="1.0" opacity="1.000"/>
<rect x="2257.52" y="81.00" width="104.00" height="30.00" rx="5.40" stroke="#667085" fill="#FFFFFF" stroke-width="1.0" opacity="1.000"/>
<rect x="2143.52" y="81.00" width="104.00" height="30.00" rx="5.40" stroke="#667085" fill="#FFFFFF" stroke-width="1.0" opacity="1.000"/>
<rect x="48.00" y="208.00" width="2450.00" height="482.00" rx="18.00" stroke="#D0D5DD" fill="#FFFFFF" stroke-width="1.4" opacity="1.000"/>
<rect x="48.00" y="208.00" width="8.00" height="482.00" rx="0.64" stroke="#4F46E5" fill="#4F46E5" stroke-width="0.0" opacity="1.000"/>
<rect x="76.00" y="230.00" width="88.00" height="30.00" rx="5.40" stroke="#4F46E5" fill="#F2F4F7" stroke-width="1.0" opacity="1.000"/>
<rect x="78.00" y="308.00" width="10.00" height="342.00" rx="0.80" stroke="#175CD3" fill="#175CD3" stroke-width="0.0" opacity="1.000"/>
<rect x="48.00" y="732.00" width="2450.00" height="482.00" rx="18.00" stroke="#D0D5DD" fill="#FFFFFF" stroke-width="1.4" opacity="1.000"/>
<rect x="48.00" y="732.00" width="8.00" height="482.00" rx="0.64" stroke="#7F56D9" fill="#7F56D9" stroke-width="0.0" opacity="1.000"/>
<rect x="76.00" y="754.00" width="88.00" height="30.00" rx="5.40" stroke="#7F56D9" fill="#F2F4F7" stroke-width="1.0" opacity="1.000"/>
<rect x="78.00" y="832.00" width="10.00" height="342.00" rx="0.80" stroke="#7F56D9" fill="#7F56D9" stroke-width="0.0" opacity="1.000"/>
<rect x="48.00" y="1256.00" width="2450.00" height="482.00" rx="18.00" stroke="#D0D5DD" fill="#FFFFFF" stroke-width="1.4" opacity="1.000"/>
<rect x="48.00" y="1256.00" width="8.00" height="482.00" rx="0.64" stroke="#0E7490" fill="#0E7490" stroke-width="0.0" opacity="1.000"/>
<rect x="76.00" y="1278.00" width="88.00" height="30.00" rx="5.40" stroke="#0E7490" fill="#F2F4F7" stroke-width="1.0" opacity="1.000"/>
<rect x="78.00" y="1356.00" width="10.00" height="342.00" rx="0.80" stroke="#0E7490" fill="#0E7490" stroke-width="0.0" opacity="1.000"/>
<rect x="318.00" y="362.00" width="238.00" height="126.00" rx="18.00" stroke="#4F46E5" fill="#EEF2FF" stroke-width="1.6" opacity="1.000"/>
<rect x="318.00" y="362.00" width="238.00" height="5.00" rx="0.90" stroke="#4F46E5" fill="#4F46E5" stroke-width="0.0" opacity="1.000"/>
<rect x="333.00" y="377.00" width="44.00" height="44.00" rx="3.52" stroke="#EEF2FF" fill="#EEF2FF" stroke-width="0.0" opacity="1.000"/>
<rect x="788.00" y="362.00" width="238.00" height="126.00" rx="18.00" stroke="#7F56D9" fill="#F4F3FF" stroke-width="1.6" opacity="1.000"/>
<rect x="788.00" y="362.00" width="238.00" height="5.00" rx="0.90" stroke="#7F56D9" fill="#7F56D9" stroke-width="0.0" opacity="1.000"/>
<rect x="803.00" y="377.00" width="44.00" height="44.00" rx="3.52" stroke="#F4F3FF" fill="#F4F3FF" stroke-width="0.0" opacity="1.000"/>
<rect x="1258.00" y="524.00" width="238.00" height="126.00" rx="18.00" stroke="#7F56D9" fill="#F4F3FF" stroke-width="1.6" opacity="1.000"/>
<rect x="1258.00" y="524.00" width="238.00" height="5.00" rx="0.90" stroke="#7F56D9" fill="#7F56D9" stroke-width="0.0" opacity="1.000"/>
<rect x="1273.00" y="539.00" width="44.00" height="44.00" rx="3.52" stroke="#F4F3FF" fill="#F4F3FF" stroke-width="0.0" opacity="1.000"/>
<rect x="1728.00" y="362.00" width="238.00" height="126.00" rx="18.00" stroke="#15803D" fill="#ECFDF3" stroke-width="1.6" opacity="1.000"/>
<rect x="1728.00" y="362.00" width="238.00" height="5.00" rx="0.90" stroke="#15803D" fill="#15803D" stroke-width="0.0" opacity="1.000"/>
<rect x="1743.00" y="377.00" width="44.00" height="44.00" rx="3.52" stroke="#ECFDF3" fill="#ECFDF3" stroke-width="0.0" opacity="1.000"/>
<rect x="318.00" y="886.00" width="238.00" height="126.00" rx="18.00" stroke="#4F46E5" fill="#EEF2FF" stroke-width="1.6" opacity="1.000"/>
<rect x="318.00" y="886.00" width="238.00" height="5.00" rx="0.90" stroke="#4F46E5" fill="#4F46E5" stroke-width="0.0" opacity="1.000"/>
<rect x="333.00" y="901.00" width="44.00" height="44.00" rx="3.52" stroke="#EEF2FF" fill="#EEF2FF" stroke-width="0.0" opacity="1.000"/>
<rect x="788.00" y="886.00" width="238.00" height="126.00" rx="18.00" stroke="#7F56D9" fill="#F4F3FF" stroke-width="1.6" opacity="1.000"/>
<rect x="788.00" y="886.00" width="238.00" height="5.00" rx="0.90" stroke="#7F56D9" fill="#7F56D9" stroke-width="0.0" opacity="1.000"/>
<rect x="803.00" y="901.00" width="44.00" height="44.00" rx="3.52" stroke="#F4F3FF" fill="#F4F3FF" stroke-width="0.0" opacity="1.000"/>
<rect x="1258.00" y="886.00" width="238.00" height="126.00" rx="18.00" stroke="#7F56D9" fill="#F4F3FF" stroke-width="1.6" opacity="1.000"/>
<rect x="1258.00" y="886.00" width="238.00" height="5.00" rx="0.90" stroke="#7F56D9" fill="#7F56D9" stroke-width="0.0" opacity="1.000"/>
<rect x="1273.00" y="901.00" width="44.00" height="44.00" rx="3.52" stroke="#F4F3FF" fill="#F4F3FF" stroke-width="0.0" opacity="1.000"/>
<rect x="1728.00" y="886.00" width="238.00" height="126.00" rx="18.00" stroke="#15803D" fill="#ECFDF3" stroke-width="1.6" opacity="1.000"/>
<rect x="1728.00" y="886.00" width="238.00" height="5.00" rx="0.90" stroke="#15803D" fill="#15803D" stroke-width="0.0" opacity="1.000"/>
<rect x="1743.00" y="901.00" width="44.00" height="44.00" rx="3.52" stroke="#ECFDF3" fill="#ECFDF3" stroke-width="0.0" opacity="1.000"/>
<rect x="2198.00" y="1048.00" width="238.00" height="126.00" rx="18.00" stroke="#15803D" fill="#ECFDF3" stroke-width="1.6" opacity="1.000"/>
<rect x="2198.00" y="1048.00" width="238.00" height="5.00" rx="0.90" stroke="#15803D" fill="#15803D" stroke-width="0.0" opacity="1.000"/>
<rect x="2213.00" y="1063.00" width="44.00" height="44.00" rx="3.52" stroke="#ECFDF3" fill="#ECFDF3" stroke-width="0.0" opacity="1.000"/>
<polygon points="437.00,1410.00 556.00,1473.00 437.00,1536.00 318.00,1473.00" stroke="#D97706" fill="#FFFAEB" stroke-width="2.2" opacity="1.000" stroke-linejoin="round"/>
<rect x="415.00" y="1424.00" width="44.00" height="44.00" rx="3.52" stroke="#FFFAEB" fill="#FFFAEB" stroke-width="0.0" opacity="1.000"/>
<ellipse cx="437.00" cy="1446.00" rx="13.81" ry="13.81" stroke="#D97706" fill="none" stroke-width="2.1" opacity="1.000"/>
<ellipse cx="437.01" cy="1456.10" rx="1.59" ry="1.59" stroke="#D97706" fill="#D97706" stroke-width="2.1" opacity="1.000"/>
<rect x="630.00" y="391.00" width="181.12" height="30.00" rx="5.40" stroke="#D97706" fill="#FFFFFF" stroke-width="1.0" opacity="1.000"/>
<rect x="1100.00" y="484.00" width="155.60" height="30.00" rx="5.40" stroke="#D97706" fill="#FFFFFF" stroke-width="1.0" opacity="1.000"/>
<rect x="1100.00" y="658.00" width="161.98" height="30.00" rx="5.40" stroke="#D97706" fill="#FFFFFF" stroke-width="1.0" opacity="1.000"/>
<rect x="1335.00" y="391.00" width="193.88" height="30.00" rx="5.40" stroke="#D97706" fill="#FFFFFF" stroke-width="1.0" opacity="1.000"/>
<rect x="630.00" y="915.00" width="142.84" height="30.00" rx="5.40" stroke="#4F46E5" fill="#FFFFFF" stroke-width="1.0" opacity="1.000"/>
<rect x="1100.00" y="915.00" width="193.88" height="30.00" rx="5.40" stroke="#D97706" fill="#FFFFFF" stroke-width="1.0" opacity="1.000"/>
<rect x="1570.00" y="1008.00" width="200.26" height="30.00" rx="5.40" stroke="#D92D20" fill="#FFFFFF" stroke-width="1.0" opacity="1.000"/>
<rect x="1570.00" y="915.00" width="206.64" height="30.00" rx="5.40" stroke="#D97706" fill="#FFFFFF" stroke-width="1.0" opacity="1.000"/>
<rect x="1805.00" y="1008.00" width="155.60" height="30.00" rx="5.40" stroke="#D92D20" fill="#FFFFFF" stroke-width="1.0" opacity="1.000"/>
<rect x="630.00" y="504.00" width="181.12" height="30.00" rx="5.40" stroke="#98A2B3" fill="#FFFFFF" stroke-width="1.0" opacity="1.000"/>
<rect x="630.00" y="1532.00" width="149.22" height="30.00" rx="5.40" stroke="#98A2B3" fill="#FFFFFF" stroke-width="1.0" opacity="1.000"/>
<polyline points="347.56,387.31 347.56,410.69 364.56,399.00 347.56,387.31" stroke="#4F46E5" fill="none" stroke-width="2.1" opacity="1.000" stroke-linejoin="round" stroke-linecap="round"/>
<polyline points="811.19,391.56 834.57,391.56" stroke="#7F56D9" fill="none" stroke-width="2.1" opacity="1.000" stroke-linejoin="round" stroke-linecap="round"/><polygon points="834.57,391.56 817.37,399.30 817.37,383.82" fill="#7F56D9" opacity="1.000"/>
<polyline points="838.82,406.44 815.44,406.44" stroke="#7F56D9" fill="none" stroke-width="2.1" opacity="1.000" stroke-linejoin="round" stroke-linecap="round"/><polygon points="815.44,406.44 832.64,398.70 832.64,414.18" fill="#7F56D9" opacity="1.000"/>
<polyline points="1281.19,553.56 1304.57,553.56" stroke="#7F56D9" fill="none" stroke-width="2.1" opacity="1.000" stroke-linejoin="round" stroke-linecap="round"/><polygon points="1304.57,553.56 1287.37,561.30 1287.37,545.82" fill="#7F56D9" opacity="1.000"/>
<polyline points="1308.82,568.44 1285.44,568.44" stroke="#7F56D9" fill="none" stroke-width="2.1" opacity="1.000" stroke-linejoin="round" stroke-linecap="round"/><polygon points="1285.44,568.44 1302.64,560.70 1302.64,576.18" fill="#7F56D9" opacity="1.000"/>
<polyline points="1752.25,400.06 1760.75,408.56 1777.75,389.44" stroke="#15803D" fill="none" stroke-width="2.8" opacity="1.000" stroke-linejoin="round" stroke-linecap="round"/>
<polyline points="347.56,911.31 347.56,934.69 364.56,923.00 347.56,911.31" stroke="#4F46E5" fill="none" stroke-width="2.1" opacity="1.000" stroke-linejoin="round" stroke-linecap="round"/>
<polyline points="811.19,915.56 834.57,915.56" stroke="#7F56D9" fill="none" stroke-width="2.1" opacity="1.000" stroke-linejoin="round" stroke-linecap="round"/><polygon points="834.57,915.56 817.37,923.30 817.37,907.82" fill="#7F56D9" opacity="1.000"/>
<polyline points="838.82,930.44 815.44,930.44" stroke="#7F56D9" fill="none" stroke-width="2.1" opacity="1.000" stroke-linejoin="round" stroke-linecap="round"/><polygon points="815.44,930.44 832.64,922.70 832.64,938.18" fill="#7F56D9" opacity="1.000"/>
<polyline points="1281.19,915.56 1304.57,915.56" stroke="#7F56D9" fill="none" stroke-width="2.1" opacity="1.000" stroke-linejoin="round" stroke-linecap="round"/><polygon points="1304.57,915.56 1287.37,923.30 1287.37,907.82" fill="#7F56D9" opacity="1.000"/>
<polyline points="1308.82,930.44 1285.44,930.44" stroke="#7F56D9" fill="none" stroke-width="2.1" opacity="1.000" stroke-linejoin="round" stroke-linecap="round"/><polygon points="1285.44,930.44 1302.64,922.70 1302.64,938.18" fill="#7F56D9" opacity="1.000"/>
<polyline points="1752.25,924.06 1760.75,932.56 1777.75,913.44" stroke="#15803D" fill="none" stroke-width="2.8" opacity="1.000" stroke-linejoin="round" stroke-linecap="round"/>
<polyline points="2222.25,1086.06 2230.75,1094.56 2247.75,1075.44" stroke="#15803D" fill="none" stroke-width="2.8" opacity="1.000" stroke-linejoin="round" stroke-linecap="round"/>
<polyline points="431.69,1440.69 433.81,1437.50 439.13,1437.50 442.31,1440.69 442.31,1443.88 438.07,1447.06 437.00,1450.25" stroke="#D97706" fill="none" stroke-width="2.1" opacity="1.000" stroke-linejoin="round" stroke-linecap="round"/>
<text x="125.68" y="57.50" font-size="12.00" font-family="NanumGothic, Noto Sans CJK KR, Apple SD Gothic Neo, Arial, sans-serif" text-anchor="middle" fill="#4F46E5" opacity="1.000"><tspan x="125.68" dy="0.00">DEEP ATLAS · 상태…</tspan></text>
<text x="56.00" y="126.50" font-size="36.00" font-family="NanumGothic, Noto Sans CJK KR, Apple SD Gothic Neo, Arial, sans-serif" text-anchor="start" fill="#101828" opacity="1.000"><tspan x="56.00" dy="0.00">Product orderability and order state lifecycle</tspan></text>
<text x="56.00" y="159.00" font-size="16.00" font-family="NanumGothic, Noto Sans CJK KR, Apple SD Gothic Neo, Arial, sans-serif" text-anchor="start" fill="#667085" opacity="1.000"><tspan x="56.00" dy="0.00">Make product-state eligibility and order-state transitions visible together without</tspan><tspan x="56.00" dy="20.00">pretending they are one state machine.</tspan></text>
<a href="[[architecture/atlas/flows/member-place-order.md]]"><text x="2430.76" y="100.50" font-size="12.00" font-family="NanumGothic, Noto Sans CJK KR, Apple SD Gothic Neo, Arial, sans-serif" text-anchor="middle" fill="#667085" opacity="1.000"><tspan x="2430.76" dy="0.00">member place…</tspan></text></a>
<a href="[[architecture/atlas/states/order-lifecycle.md]]"><text x="2309.52" y="100.50" font-size="12.00" font-family="NanumGothic, Noto Sans CJK KR, Apple SD Gothic Neo, Arial, sans-serif" text-anchor="middle" fill="#667085" opacity="1.000"><tspan x="2309.52" dy="0.00">order 상태</tspan></text></a>
<a href="[[architecture/atlas/states/product-lifecycle.md]]"><text x="2195.52" y="100.50" font-size="12.00" font-family="NanumGothic, Noto Sans CJK KR, Apple SD Gothic Neo, Arial, sans-serif" text-anchor="middle" fill="#667085" opacity="1.000"><tspan x="2195.52" dy="0.00">product 상태</tspan></text></a>
<text x="120.00" y="249.12" font-size="11.00" font-family="NanumGothic, Noto Sans CJK KR, Apple SD Gothic Neo, Arial, sans-serif" text-anchor="middle" fill="#4F46E5" opacity="1.000"><tspan x="120.00" dy="0.00">PHASE 1</tspan></text>
<text x="180.00" y="250.88" font-size="21.00" font-family="NanumGothic, Noto Sans CJK KR, Apple SD Gothic Neo, Arial, sans-serif" text-anchor="start" fill="#101828" opacity="1.000"><tspan x="180.00" dy="0.00">Product lifecycle</tspan></text>
<text x="76.00" y="279.00" font-size="13.00" font-family="NanumGothic, Noto Sans CJK KR, Apple SD Gothic Neo, Arial, sans-serif" text-anchor="start" fill="#667085" opacity="1.000"><tspan x="76.00" dy="0.00">State controls whether orderability can even be considered.</tspan></text>
<text x="98.00" y="340.25" font-size="14.00" font-family="NanumGothic, Noto Sans CJK KR, Apple SD Gothic Neo, Arial, sans-serif" text-anchor="start" fill="#101828" opacity="1.000"><tspan x="98.00" dy="0.00">Product</tspan></text>
<text x="100.00" y="419.88" font-size="13.00" font-family="NanumGothic, Noto Sans CJK KR, Apple SD Gothic Neo, Arial, sans-serif" text-anchor="start" fill="#667085" opacity="1.000"><tspan x="100.00" dy="0.00">주요 진행</tspan></text>
<text x="100.00" y="581.88" font-size="13.00" font-family="NanumGothic, Noto Sans CJK KR, Apple SD Gothic Neo, Arial, sans-serif" text-anchor="start" fill="#667085" opacity="1.000"><tspan x="100.00" dy="0.00">분기·중단·별도 상태</tspan></text>
<text x="120.00" y="773.12" font-size="11.00" font-family="NanumGothic, Noto Sans CJK KR, Apple SD Gothic Neo, Arial, sans-serif" text-anchor="middle" fill="#7F56D9" opacity="1.000"><tspan x="120.00" dy="0.00">PHASE 2</tspan></text>
<text x="180.00" y="774.88" font-size="21.00" font-family="NanumGothic, Noto Sans CJK KR, Apple SD Gothic Neo, Arial, sans-serif" text-anchor="start" fill="#101828" opacity="1.000"><tspan x="180.00" dy="0.00">Order lifecycle</tspan></text>
<text x="76.00" y="803.00" font-size="13.00" font-family="NanumGothic, Noto Sans CJK KR, Apple SD Gothic Neo, Arial, sans-serif" text-anchor="start" fill="#667085" opacity="1.000"><tspan x="76.00" dy="0.00">Order state transitions and terminal outcomes.</tspan></text>
<text x="98.00" y="864.25" font-size="14.00" font-family="NanumGothic, Noto Sans CJK KR, Apple SD Gothic Neo, Arial, sans-serif" text-anchor="start" fill="#101828" opacity="1.000"><tspan x="98.00" dy="0.00">Order</tspan></text>
<text x="100.00" y="943.88" font-size="13.00" font-family="NanumGothic, Noto Sans CJK KR, Apple SD Gothic Neo, Arial, sans-serif" text-anchor="start" fill="#667085" opacity="1.000"><tspan x="100.00" dy="0.00">주요 진행</tspan></text>
<text x="100.00" y="1105.88" font-size="13.00" font-family="NanumGothic, Noto Sans CJK KR, Apple SD Gothic Neo, Arial, sans-serif" text-anchor="start" fill="#667085" opacity="1.000"><tspan x="100.00" dy="0.00">분기·중단·별도 상태</tspan></text>
<text x="120.00" y="1297.12" font-size="11.00" font-family="NanumGothic, Noto Sans CJK KR, Apple SD Gothic Neo, Arial, sans-serif" text-anchor="middle" fill="#0E7490" opacity="1.000"><tspan x="120.00" dy="0.00">PHASE 3</tspan></text>
<text x="180.00" y="1298.88" font-size="21.00" font-family="NanumGothic, Noto Sans CJK KR, Apple SD Gothic Neo, Arial, sans-serif" text-anchor="start" fill="#101828" opacity="1.000"><tspan x="180.00" dy="0.00">Cross-entity orderability gate</tspan></text>
<text x="76.00" y="1327.00" font-size="13.00" font-family="NanumGothic, Noto Sans CJK KR, Apple SD Gothic Neo, Arial, sans-serif" text-anchor="start" fill="#667085" opacity="1.000"><tspan x="76.00" dy="0.00">Rules that combine member, product, time, and inventory.</tspan></text>
<text x="98.00" y="1388.25" font-size="14.00" font-family="NanumGothic, Noto Sans CJK KR, Apple SD Gothic Neo, Arial, sans-serif" text-anchor="start" fill="#101828" opacity="1.000"><tspan x="98.00" dy="0.00">Eligibility rules</tspan></text>
<text x="100.00" y="1467.88" font-size="13.00" font-family="NanumGothic, Noto Sans CJK KR, Apple SD Gothic Neo, Arial, sans-serif" text-anchor="start" fill="#667085" opacity="1.000"><tspan x="100.00" dy="0.00">주요 진행</tspan></text>
<text x="100.00" y="1629.88" font-size="13.00" font-family="NanumGothic, Noto Sans CJK KR, Apple SD Gothic Neo, Arial, sans-serif" text-anchor="start" fill="#667085" opacity="1.000"><tspan x="100.00" dy="0.00">분기·중단·별도 상태</tspan></text>
<text x="390.00" y="397.62" font-size="15.00" font-family="NanumGothic, Noto Sans CJK KR, Apple SD Gothic Neo, Arial, sans-serif" text-anchor="start" fill="#101828" opacity="1.000"><tspan x="390.00" dy="0.00">DRAFT</tspan></text>
<text x="333.00" y="431.00" font-size="12.00" font-family="NanumGothic, Noto Sans CJK KR, Apple SD Gothic Neo, Arial, sans-serif" text-anchor="start" fill="#667085" opacity="1.000"><tspan x="333.00" dy="0.00">Not visible or orderable.</tspan></text>
<a href="[[states/product-lifecycle]]"><text x="860.00" y="397.62" font-size="15.00" font-family="NanumGothic, Noto Sans CJK KR, Apple SD Gothic Neo, Arial, sans-serif" text-anchor="start" fill="#101828" opacity="1.000"><tspan x="860.00" dy="0.00">ACTIVE</tspan></text></a>
<a href="[[states/product-lifecycle]]"><text x="803.00" y="431.00" font-size="12.00" font-family="NanumGothic, Noto Sans CJK KR, Apple SD Gothic Neo, Arial, sans-serif" text-anchor="start" fill="#667085" opacity="1.000"><tspan x="803.00" dy="0.00">Orderable only while sale</tspan><tspan x="803.00" dy="15.00">window is open.</tspan><tspan x="803.00" dy="15.00">DRAFT → ACTIVE</tspan></text></a>
<a href="[[states/product-lifecycle]]"><text x="1330.00" y="559.62" font-size="15.00" font-family="NanumGothic, Noto Sans CJK KR, Apple SD Gothic Neo, Arial, sans-serif" text-anchor="start" fill="#101828" opacity="1.000"><tspan x="1330.00" dy="0.00">PAUSED</tspan></text></a>
<a href="[[states/product-lifecycle]]"><text x="1273.00" y="593.00" font-size="12.00" font-family="NanumGothic, Noto Sans CJK KR, Apple SD Gothic Neo, Arial, sans-serif" text-anchor="start" fill="#667085" opacity="1.000"><tspan x="1273.00" dy="0.00">Visible policy may vary;</tspan><tspan x="1273.00" dy="15.00">ordering rejected.</tspan><tspan x="1273.00" dy="15.00">ACTIVE → PAUSED</tspan></text></a>
<text x="1800.00" y="397.62" font-size="15.00" font-family="NanumGothic, Noto Sans CJK KR, Apple SD Gothic Neo, Arial, sans-serif" text-anchor="start" fill="#101828" opacity="1.000"><tspan x="1800.00" dy="0.00">DISCONTINUED</tspan></text>
<text x="1743.00" y="431.00" font-size="12.00" font-family="NanumGothic, Noto Sans CJK KR, Apple SD Gothic Neo, Arial, sans-serif" text-anchor="start" fill="#667085" opacity="1.000"><tspan x="1743.00" dy="0.00">Terminal: never orderable.</tspan></text>
<text x="390.00" y="921.62" font-size="15.00" font-family="NanumGothic, Noto Sans CJK KR, Apple SD Gothic Neo, Arial, sans-serif" text-anchor="start" fill="#101828" opacity="1.000"><tspan x="390.00" dy="0.00">NONE</tspan></text>
<text x="333.00" y="955.00" font-size="12.00" font-family="NanumGothic, Noto Sans CJK KR, Apple SD Gothic Neo, Arial, sans-serif" text-anchor="start" fill="#667085" opacity="1.000"><tspan x="333.00" dy="0.00">No order exists.</tspan></text>
<a href="[[states/order-lifecycle]]"><text x="860.00" y="921.62" font-size="15.00" font-family="NanumGothic, Noto Sans CJK KR, Apple SD Gothic Neo, Arial, sans-serif" text-anchor="start" fill="#101828" opacity="1.000"><tspan x="860.00" dy="0.00">PENDING</tspan></text></a>
<a href="[[states/order-lifecycle]]"><text x="803.00" y="955.00" font-size="12.00" font-family="NanumGothic, Noto Sans CJK KR, Apple SD Gothic Neo, Arial, sans-serif" text-anchor="start" fill="#667085" opacity="1.000"><tspan x="803.00" dy="0.00">Request validated; stock</tspan><tspan x="803.00" dy="15.00">not guaranteed.</tspan><tspan x="803.00" dy="15.00">NONE → PENDING</tspan></text></a>
<a href="[[states/order-lifecycle]]"><text x="1330.00" y="921.62" font-size="15.00" font-family="NanumGothic, Noto Sans CJK KR, Apple SD Gothic Neo, Arial, sans-serif" text-anchor="start" fill="#101828" opacity="1.000"><tspan x="1330.00" dy="0.00">RESERVED</tspan></text></a>
<a href="[[states/order-lifecycle]]"><text x="1273.00" y="955.00" font-size="12.00" font-family="NanumGothic, Noto Sans CJK KR, Apple SD Gothic Neo, Arial, sans-serif" text-anchor="start" fill="#667085" opacity="1.000"><tspan x="1273.00" dy="0.00">Stock held; payment</tspan><tspan x="1273.00" dy="15.00">pending.</tspan><tspan x="1273.00" dy="15.00">PENDING → RESERVED</tspan></text></a>
<text x="1800.00" y="921.62" font-size="15.00" font-family="NanumGothic, Noto Sans CJK KR, Apple SD Gothic Neo, Arial, sans-serif" text-anchor="start" fill="#101828" opacity="1.000"><tspan x="1800.00" dy="0.00">PAID</tspan></text>
<text x="1743.00" y="955.00" font-size="12.00" font-family="NanumGothic, Noto Sans CJK KR, Apple SD Gothic Neo, Arial, sans-serif" text-anchor="start" fill="#667085" opacity="1.000"><tspan x="1743.00" dy="0.00">Successful terminal state.</tspan></text>
<text x="2270.00" y="1083.62" font-size="15.00" font-family="NanumGothic, Noto Sans CJK KR, Apple SD Gothic Neo, Arial, sans-serif" text-anchor="start" fill="#101828" opacity="1.000"><tspan x="2270.00" dy="0.00">FAILED</tspan></text>
<text x="2213.00" y="1117.00" font-size="12.00" font-family="NanumGothic, Noto Sans CJK KR, Apple SD Gothic Neo, Arial, sans-serif" text-anchor="start" fill="#667085" opacity="1.000"><tspan x="2213.00" dy="0.00">Failure terminal state.</tspan></text>
<a href="[[flows/member-place-order#eligibility]]"><text x="437.00" y="1459.25" font-size="14.00" font-family="NanumGothic, Noto Sans CJK KR, Apple SD Gothic Neo, Arial, sans-serif" text-anchor="middle" fill="#101828" opacity="1.000"><tspan x="437.00" dy="0.00">Orderability gate</tspan><tspan x="437.00" dy="17.50">member VERIFIED ∧</tspan><tspan x="437.00" dy="17.50">product ACTIVE ∧ sale</tspan><tspan x="437.00" dy="17.50">window open ∧ stock</tspan><tspan x="437.00" dy="17.50">sufficient.</tspan></text></a>
<text x="720.56" y="410.12" font-size="11.00" font-family="NanumGothic, Noto Sans CJK KR, Apple SD Gothic Neo, Arial, sans-serif" text-anchor="middle" fill="#D97706" opacity="1.000"><tspan x="720.56" dy="0.00">publish · required data…</tspan></text>
<text x="1177.80" y="503.12" font-size="11.00" font-family="NanumGothic, Noto Sans CJK KR, Apple SD Gothic Neo, Arial, sans-serif" text-anchor="middle" fill="#D97706" opacity="1.000"><tspan x="1177.80" dy="0.00">pause · admin action</tspan></text>
<text x="1180.99" y="677.12" font-size="11.00" font-family="NanumGothic, Noto Sans CJK KR, Apple SD Gothic Neo, Arial, sans-serif" text-anchor="middle" fill="#D97706" opacity="1.000"><tspan x="1180.99" dy="0.00">resume · admin action</tspan></text>
<text x="1431.94" y="410.12" font-size="11.00" font-family="NanumGothic, Noto Sans CJK KR, Apple SD Gothic Neo, Arial, sans-serif" text-anchor="middle" fill="#D97706" opacity="1.000"><tspan x="1431.94" dy="0.00">discontinue · admin action</tspan></text>
<text x="701.42" y="934.12" font-size="11.00" font-family="NanumGothic, Noto Sans CJK KR, Apple SD Gothic Neo, Arial, sans-serif" text-anchor="middle" fill="#4F46E5" opacity="1.000"><tspan x="701.42" dy="0.00">create · member +…</tspan></text>
<text x="1196.94" y="934.12" font-size="11.00" font-family="NanumGothic, Noto Sans CJK KR, Apple SD Gothic Neo, Arial, sans-serif" text-anchor="middle" fill="#D97706" opacity="1.000"><tspan x="1196.94" dy="0.00">reserve · stock sufficient</tspan></text>
<text x="1670.13" y="1027.12" font-size="11.00" font-family="NanumGothic, Noto Sans CJK KR, Apple SD Gothic Neo, Arial, sans-serif" text-anchor="middle" fill="#D92D20" opacity="1.000"><tspan x="1670.13" dy="0.00">reject · stock insufficient</tspan></text>
<text x="1673.32" y="934.12" font-size="11.00" font-family="NanumGothic, Noto Sans CJK KR, Apple SD Gothic Neo, Arial, sans-serif" text-anchor="middle" fill="#D97706" opacity="1.000"><tspan x="1673.32" dy="0.00">authorize · payment authori…</tspan></text>
<text x="1882.80" y="1027.12" font-size="11.00" font-family="NanumGothic, Noto Sans CJK KR, Apple SD Gothic Neo, Arial, sans-serif" text-anchor="middle" fill="#D92D20" opacity="1.000"><tspan x="1882.80" dy="0.00">decline + release ·…</tspan></text>
<text x="720.56" y="523.12" font-size="11.00" font-family="NanumGothic, Noto Sans CJK KR, Apple SD Gothic Neo, Arial, sans-serif" text-anchor="middle" fill="#98A2B3" opacity="1.000"><tspan x="720.56" dy="0.00">candidate · sale window…</tspan></text>
<text x="704.61" y="1551.12" font-size="11.00" font-family="NanumGothic, Noto Sans CJK KR, Apple SD Gothic Neo, Arial, sans-serif" text-anchor="middle" fill="#98A2B3" opacity="1.000"><tspan x="704.61" dy="0.00">allowed · all gate…</tspan></text>
</svg>