<svg xmlns="http://www.w3.org/2000/svg" width="2607" height="1335" viewBox="-12.00 -22.00 2607.00 1335.00">
<rect x="-12.00" y="-22.00" width="2607.00" height="1335.00" fill="#F7F8FC"/>
<rect x="55.00" y="215.00" width="2480.00" height="318.00" rx="18.00" stroke="#101828" fill="#101828" stroke-width="0.0" opacity="0.100"/>
<rect x="48.00" y="208.00" width="2480.00" height="318.00" rx="18.00" stroke="#D0D5DD" fill="#FFFFFF" stroke-width="1.4" opacity="1.000"/>
<rect x="78.00" y="308.00" width="2420.00" height="164.00" rx="18.00" stroke="#D0D5DD" fill="#F2F4F7" stroke-width="1.0" opacity="1.000"/>
<rect x="55.00" y="575.00" width="2480.00" height="318.00" rx="18.00" stroke="#101828" fill="#101828" stroke-width="0.0" opacity="0.100"/>
<rect x="48.00" y="568.00" width="2480.00" height="318.00" rx="18.00" stroke="#D0D5DD" fill="#FFFFFF" stroke-width="1.4" opacity="1.000"/>
<rect x="78.00" y="668.00" width="2420.00" height="164.00" rx="18.00" stroke="#D0D5DD" fill="#F2F4F7" stroke-width="1.0" opacity="1.000"/>
<rect x="55.00" y="935.00" width="2480.00" height="318.00" rx="18.00" stroke="#101828" fill="#101828" stroke-width="0.0" opacity="0.100"/>
<rect x="48.00" y="928.00" width="2480.00" height="318.00" rx="18.00" stroke="#D0D5DD" fill="#FFFFFF" stroke-width="1.4" opacity="1.000"/>
<rect x="78.00" y="1028.00" width="2420.00" height="164.00" rx="18.00" stroke="#D0D5DD" fill="#F2F4F7" stroke-width="1.0" opacity="1.000"/>
<rect x="319.00" y="334.00" width="238.00" height="126.00" rx="18.00" stroke="#101828" fill="#101828" stroke-width="0.0" opacity="0.100"/>
<rect x="749.00" y="334.00" width="238.00" height="126.00" rx="18.00" stroke="#101828" fill="#101828" stroke-width="0.0" opacity="0.100"/>
<rect x="1179.00" y="334.00" width="238.00" height="126.00" rx="18.00" stroke="#101828" fill="#101828" stroke-width="0.0" opacity="0.100"/>
<rect x="1609.00" y="334.00" width="238.00" height="126.00" rx="18.00" stroke="#101828" fill="#101828" stroke-width="0.0" opacity="0.100"/>
<rect x="319.00" y="694.00" width="238.00" height="126.00" rx="18.00" stroke="#101828" fill="#101828" stroke-width="0.0" opacity="0.100"/>
<rect x="749.00" y="694.00" width="238.00" height="126.00" rx="18.00" stroke="#101828" fill="#101828" stroke-width="0.0" opacity="0.100"/>
<rect x="1179.00" y="694.00" width="238.00" height="126.00" rx="18.00" stroke="#101828" fill="#101828" stroke-width="0.0" opacity="0.100"/>
<rect x="1609.00" y="694.00" width="238.00" height="126.00" rx="18.00" stroke="#101828" fill="#101828" stroke-width="0.0" opacity="0.100"/>
<rect x="2039.00" y="694.00" width="238.00" height="126.00" rx="18.00" stroke="#101828" fill="#101828" stroke-width="0.0" opacity="0.100"/>
<polyline points="555.00,390.00 646.00,390.00 646.00,390.00 737.00,390.00" stroke="#D97706" fill="none" stroke-width="2.2" opacity="1.000" stroke-linejoin="round" stroke-linecap="round"/><polygon points="737.00,390.00 719.60,397.83 719.60,382.17" fill="#D97706" opacity="1.000"/>
<polyline points="985.00,390.00 1076.00,390.00 1076.00,390.00 1167.00,390.00" stroke="#D97706" fill="none" stroke-width="2.2" opacity="1.000" stroke-linejoin="round" stroke-linecap="round"/><polygon points="1167.00,390.00 1149.60,397.83 1149.60,382.17" fill="#D97706" opacity="1.000"/>
<polyline points="1415.00,390.00 1452.00,390.00 1452.00,390.00 985.00,390.00" stroke="#D97706" fill="none" stroke-width="2.2" opacity="1.000" stroke-linejoin="round" stroke-linecap="round"/><polygon points="985.00,390.00 1002.40,382.17 1002.40,397.83" fill="#D97706" opacity="1.000"/>
<polyline points="985.00,390.00 1291.00,390.00 1291.00,390.00 1597.00,390.00" stroke="#D97706" fill="none" stroke-width="2.2" opacity="1.000" stroke-linejoin="round" stroke-linecap="round"/><polygon points="1597.00,390.00 1579.60,397.83 1579.60,382.17" fill="#D97706" opacity="1.000"/>
<polyline points="555.00,750.00 646.00,750.00 646.00,750.00 737.00,750.00" stroke="#4F46E5" fill="none" stroke-width="3.0" opacity="1.000" stroke-linejoin="round" stroke-linecap="round"/><polygon points="737.00,750.00 718.00,758.55 718.00,741.45" fill="#4F46E5" opacity="1.000"/>
<polyline points="985.00,750.00 1076.00,750.00 1076.00,750.00 1167.00,750.00" stroke="#D97706" fill="none" stroke-width="2.2" opacity="1.000" stroke-linejoin="round" stroke-linecap="round"/><polygon points="1167.00,750.00 1149.60,757.83 1149.60,742.17" fill="#D97706" opacity="1.000"/>
<polyline points="985.00,750.00 1506.00,750.00 1506.00,750.00 2027.00,750.00" stroke="#D92D20" fill="none" stroke-width="3.0" opacity="1.000" stroke-dasharray="12 8" stroke-linejoin="round" stroke-linecap="round"/><polygon points="2027.00,750.00 2008.00,758.55 2008.00,741.45" fill="#D92D20" opacity="1.000"/>
<polyline points="1415.00,750.00 1506.00,750.00 1506.00,750.00 1597.00,750.00" stroke="#D97706" fill="none" stroke-width="2.2" opacity="1.000" stroke-linejoin="round" stroke-linecap="round"/><polygon points="1597.00,750.00 1579.60,757.83 1579.60,742.17" fill="#D97706" opacity="1.000"/>
<polyline points="1415.00,750.00 1721.00,750.00 1721.00,750.00 2027.00,750.00" stroke="#D92D20" fill="none" stroke-width="3.0" opacity="1.000" stroke-dasharray="12 8" stroke-linejoin="round" stroke-linecap="round"/><polygon points="2027.00,750.00 2008.00,758.55 2008.00,741.45" fill="#D92D20" opacity="1.000"/>
<polyline points="985.00,390.00 1022.00,390.00 1022.00,1110.00 555.00,1110.00" stroke="#98A2B3" fill="none" stroke-width="2.2" opacity="1.000" stroke-dasharray="3 7" stroke-linejoin="round" stroke-linecap="round"/><polygon points="555.00,1110.00 572.40,1102.17 572.40,1117.83" fill="#98A2B3" opacity="1.000"/>
<polyline points="555.00,1110.00 646.00,1110.00 646.00,750.00 737.00,750.00" stroke="#98A2B3" fill="none" stroke-width="2.2" opacity="1.000" stroke-dasharray="3 7" stroke-linejoin="round" stroke-linecap="round"/><polygon points="737.00,750.00 719.60,757.83 719.60,742.17" fill="#98A2B3" opacity="1.000"/>
<rect x="56.00" y="38.00" width="139.36" height="30.00" rx="5.40" stroke="#4F46E5" fill="#EEF2FF" stroke-width="1.0" opacity="1.000"/>
<rect x="2416.00" y="81.00" width="104.00" height="30.00" rx="5.40" stroke="#667085" fill="#FFFFFF" stroke-width="1.0" opacity="1.000"/>
<rect x="2302.00" y="81.00" width="104.00" height="30.00" rx="5.40" stroke="#667085" fill="#FFFFFF" stroke-width="1.0" opacity="1.000"/>
<rect x="2188.00" y="81.00" width="104.00" height="30.00" rx="5.40" stroke="#667085" fill="#FFFFFF" stroke-width="1.0" opacity="1.000"/>
<rect x="48.00" y="208.00" width="8.00" height="318.00" rx="0.64" stroke="#4F46E5" fill="#4F46E5" stroke-width="0.0" opacity="1.000"/>
<rect x="76.00" y="230.00" width="88.00" height="30.00" rx="5.40" stroke="#4F46E5" fill="#F2F4F7" stroke-width="1.0" opacity="1.000"/>
<rect x="78.00" y="308.00" width="10.00" height="164.00" rx="0.80" stroke="#175CD3" fill="#175CD3" stroke-width="0.0" opacity="1.000"/>
<rect x="48.00" y="568.00" width="8.00" height="318.00" rx="0.64" stroke="#7F56D9" fill="#7F56D9" stroke-width="0.0" opacity="1.000"/>
<rect x="76.00" y="590.00" width="88.00" height="30.00" rx="5.40" stroke="#7F56D9" fill="#F2F4F7" stroke-width="1.0" opacity="1.000"/>
<rect x="78.00" y="668.00" width="10.00" height="164.00" rx="0.80" stroke="#175CD3" fill="#175CD3" stroke-width="0.0" opacity="1.000"/>
<rect x="48.00" y="928.00" width="8.00" height="318.00" rx="0.64" stroke="#0E7490" fill="#0E7490" stroke-width="0.0" opacity="1.000"/>
<rect x="76.00" y="950.00" width="88.00" height="30.00" rx="5.40" stroke="#0E7490" fill="#F2F4F7" stroke-width="1.0" opacity="1.000"/>
<rect x="78.00" y="1028.00" width="10.00" height="164.00" rx="0.80" stroke="#175CD3" fill="#175CD3" stroke-width="0.0" opacity="1.000"/>
<rect x="312.00" y="327.00" width="238.00" height="126.00" rx="18.00" stroke="#4F46E5" fill="#EEF2FF" stroke-width="1.6" opacity="1.000"/>
<rect x="312.00" y="327.00" width="238.00" height="5.00" rx="0.90" stroke="#4F46E5" fill="#4F46E5" stroke-width="0.0" opacity="1.000"/>
<rect x="327.00" y="342.00" width="44.00" height="44.00" rx="3.52" stroke="#EEF2FF" fill="#EEF2FF" stroke-width="0.0" opacity="1.000"/>
<rect x="742.00" y="327.00" width="238.00" height="126.00" rx="18.00" stroke="#7F56D9" fill="#F4F3FF" stroke-width="1.6" opacity="1.000"/>
<rect x="742.00" y="327.00" width="238.00" height="5.00" rx="0.90" stroke="#7F56D9" fill="#7F56D9" stroke-width="0.0" opacity="1.000"/>
<rect x="757.00" y="342.00" width="44.00" height="44.00" rx="3.52" stroke="#F4F3FF" fill="#F4F3FF" stroke-width="0.0" opacity="1.000"/>
<rect x="1172.00" y="327.00" width="238.00" height="126.00" rx="18.00" stroke="#7F56D9" fill="#F4F3FF" stroke-width="1.6" opacity="1.000"/>
<rect x="1172.00" y="327.00" width="238.00" height="5.00" rx="0.90" stroke="#7F56D9" fill="#7F56D9" stroke-width="0.0" opacity="1.000"/>
<rect x="1187.00" y="342.00" width="44.00" height="44.00" rx="3.52" stroke="#F4F3FF" fill="#F4F3FF" stroke-width="0.0" opacity="1.000"/>
<rect x="1602.00" y="327.00" width="238.00" height="126.00" rx="18.00" stroke="#15803D" fill="#ECFDF3" stroke-width="1.6" opacity="1.000"/>
<rect x="1602.00" y="327.00" width="238.00" height="5.00" rx="0.90" stroke="#15803D" fill="#15803D" stroke-width="0.0" opacity="1.000"/>
<rect x="1617.00" y="342.00" width="44.00" height="44.00" rx="3.52" stroke="#ECFDF3" fill="#ECFDF3" stroke-width="0.0" opacity="1.000"/>
<rect x="312.00" y="687.00" width="238.00" height="126.00" rx="18.00" stroke="#4F46E5" fill="#EEF2FF" stroke-width="1.6" opacity="1.000"/>
<rect x="312.00" y="687.00" width="238.00" height="5.00" rx="0.90" stroke="#4F46E5" fill="#4F46E5" stroke-width="0.0" opacity="1.000"/>
<rect x="327.00" y="702.00" width="44.00" height="44.00" rx="3.52" stroke="#EEF2FF" fill="#EEF2FF" stroke-width="0.0" opacity="1.000"/>
<rect x="742.00" y="687.00" width="238.00" height="126.00" rx="18.00" stroke="#7F56D9" fill="#F4F3FF" stroke-width="1.6" opacity="1.000"/>
<rect x="742.00" y="687.00" width="238.00" height="5.00" rx="0.90" stroke="#7F56D9" fill="#7F56D9" stroke-width="0.0" opacity="1.000"/>
<rect x="757.00" y="702.00" width="44.00" height="44.00" rx="3.52" stroke="#F4F3FF" fill="#F4F3FF" stroke-width="0.0" opacity="1.000"/>
<rect x="1172.00" y="687.00" width="238.00" height="126.00" rx="18.00" stroke="#7F56D9" fill="#F4F3FF" stroke-width="1.6" opacity="1.000"/>
<rect x="1172.00" y="687.00" width="238.00" height="5.00" rx="0.90" stroke="#7F56D9" fill="#7F56D9" stroke-width="0.0" opacity="1.000"/>
<rect x="1187.00" y="702.00" width="44.00" height="44.00" rx="3.52" stroke="#F4F3FF" fill="#F4F3FF" stroke-width="0.0" opacity="1.000"/>
<rect x="1602.00" y="687.00" width="238.00" height="126.00" rx="18.00" stroke="#15803D" fill="#ECFDF3" stroke-width="1.6" opacity="1.000"/>
<rect x="1602.00" y="687.00" width="238.00" height="5.00" rx="0.90" stroke="#15803D" fill="#15803D" stroke-width="0.0" opacity="1.000"/>
<rect x="1617.00" y="702.00" width="44.00" height="44.00" rx="3.52" stroke="#ECFDF3" fill="#ECFDF3" stroke-width="0.0" opacity="1.000"/>
<rect x="2032.00" y="687.00" width="238.00" height="126.00" rx="18.00" stroke="#15803D" fill="#ECFDF3" stroke-width="1.6" opacity="1.000"/>
<rect x="2032.00" y="687.00" width="238.00" height="5.00" rx="0.90" stroke="#15803D" fill="#15803D" stroke-width="0.0" opacity="1.000"/>
<rect x="2047.00" y="702.00" width="44.00" height="44.00" rx="3.52" stroke="#ECFDF3" fill="#ECFDF3" stroke-width="0.0" opacity="1.000"/>
<polygon points="431.00,1037.00 550.00,1110.00 431.00,1183.00 312.00,1110.00" stroke="#D97706" fill="#FFFAEB" stroke-width="2.2" opacity="1.000" stroke-linejoin="round"/>
<rect x="409.00" y="1051.00" width="44.00" height="44.00" rx="3.52" stroke="#FFFAEB" fill="#FFFAEB" stroke-width="0.0" opacity="1.000"/>
<ellipse cx="431.00" cy="1073.00" rx="13.81" ry="13.81" stroke="#D97706" fill="none" stroke-width="2.1" opacity="1.000"/>
<ellipse cx="431.01" cy="1083.10" rx="1.59" ry="1.59" stroke="#D97706" fill="#D97706" stroke-width="2.1" opacity="1.000"/>
<rect x="604.00" y="374.00" width="181.12" height="30.00" rx="5.40" stroke="#D97706" fill="#FFFFFF" stroke-width="1.0" opacity="1.000"/>
<rect x="1034.00" y="374.00" width="155.60" height="30.00" rx="5.40" stroke="#D97706" fill="#FFFFFF" stroke-width="1.0" opacity="1.000"/>
<rect x="1410.00" y="374.00" width="161.98" height="30.00" rx="5.40" stroke="#D97706" fill="#FFFFFF" stroke-width="1.0" opacity="1.000"/>
<rect x="1249.00" y="374.00" width="193.88" height="30.00" rx="5.40" stroke="#D97706" fill="#FFFFFF" stroke-width="1.0" opacity="1.000"/>
<rect x="604.00" y="734.00" width="142.84" height="30.00" rx="5.40" stroke="#4F46E5" fill="#FFFFFF" stroke-width="1.0" opacity="1.000"/>
<rect x="1034.00" y="734.00" width="193.88" height="30.00" rx="5.40" stroke="#D97706" fill="#FFFFFF" stroke-width="1.0" opacity="1.000"/>
<rect x="1464.00" y="734.00" width="200.26" height="30.00" rx="5.40" stroke="#D92D20" fill="#FFFFFF" stroke-width="1.0" opacity="1.000"/>
<rect x="1464.00" y="734.00" width="206.64" height="30.00" rx="5.40" stroke="#D97706" fill="#FFFFFF" stroke-width="1.0" opacity="1.000"/>
<rect x="1679.00" y="734.00" width="155.60" height="30.00" rx="5.40" stroke="#D92D20" fill="#FFFFFF" stroke-width="1.0" opacity="1.000"/>
<rect x="980.00" y="734.00" width="181.12" height="30.00" rx="5.40" stroke="#98A2B3" fill="#FFFFFF" stroke-width="1.0" opacity="1.000"/>
<rect x="604.00" y="914.00" width="149.22" height="30.00" rx="5.40" stroke="#98A2B3" fill="#FFFFFF" stroke-width="1.0" opacity="1.000"/>
<polyline points="341.56,352.31 341.56,375.69 358.56,364.00 341.56,352.31" stroke="#4F46E5" fill="none" stroke-width="2.1" opacity="1.000" stroke-linejoin="round" stroke-linecap="round"/>
<polyline points="765.19,356.56 788.57,356.56" stroke="#7F56D9" fill="none" stroke-width="2.1" opacity="1.000" stroke-linejoin="round" stroke-linecap="round"/><polygon points="788.57,356.56 771.37,364.30 771.37,348.82" fill="#7F56D9" opacity="1.000"/>
<polyline points="792.82,371.44 769.44,371.44" stroke="#7F56D9" fill="none" stroke-width="2.1" opacity="1.000" stroke-linejoin="round" stroke-linecap="round"/><polygon points="769.44,371.44 786.64,363.70 786.64,379.18" fill="#7F56D9" opacity="1.000"/>
<polyline points="1195.19,356.56 1218.57,356.56" stroke="#7F56D9" fill="none" stroke-width="2.1" opacity="1.000" stroke-linejoin="round" stroke-linecap="round"/><polygon points="1218.57,356.56 1201.37,364.30 1201.37,348.82" fill="#7F56D9" opacity="1.000"/>
<polyline points="1222.82,371.44 1199.44,371.44" stroke="#7F56D9" fill="none" stroke-width="2.1" opacity="1.000" stroke-linejoin="round" stroke-linecap="round"/><polygon points="1199.44,371.44 1216.64,363.70 1216.64,379.18" fill="#7F56D9" opacity="1.000"/>
<polyline points="1626.25,365.06 1634.75,373.56 1651.75,354.44" stroke="#15803D" fill="none" stroke-width="2.8" opacity="1.000" stroke-linejoin="round" stroke-linecap="round"/>
<polyline points="341.56,712.31 341.56,735.69 358.56,724.00 341.56,712.31" stroke="#4F46E5" fill="none" stroke-width="2.1" opacity="1.000" stroke-linejoin="round" stroke-linecap="round"/>
<polyline points="765.19,716.56 788.57,716.56" stroke="#7F56D9" fill="none" stroke-width="2.1" opacity="1.000" stroke-linejoin="round" stroke-linecap="round"/><polygon points="788.57,716.56 771.37,724.30 771.37,708.82" fill="#7F56D9" opacity="1.000"/>
<polyline points="792.82,731.44 769.44,731.44" stroke="#7F56D9" fill="none" stroke-width="2.1" opacity="1.000" stroke-linejoin="round" stroke-linecap="round"/><polygon points="769.44,731.44 786.64,723.70 786.64,739.18" fill="#7F56D9" opacity="1.000"/>
<polyline points="1195.19,716.56 1218.57,716.56" stroke="#7F56D9" fill="none" stroke-width="2.1" opacity="1.000" stroke-linejoin="round" stroke-linecap="round"/><polygon points="1218.57,716.56 1201.37,724.30 1201.37,708.82" fill="#7F56D9" opacity="1.000"/>
<polyline points="1222.82,731.44 1199.44,731.44" stroke="#7F56D9" fill="none" stroke-width="2.1" opacity="1.000" stroke-linejoin="round" stroke-linecap="round"/><polygon points="1199.44,731.44 1216.64,723.70 1216.64,739.18" fill="#7F56D9" opacity="1.000"/>
<polyline points="1626.25,725.06 1634.75,733.56 1651.75,714.44" stroke="#15803D" fill="none" stroke-width="2.8" opacity="1.000" stroke-linejoin="round" stroke-linecap="round"/>
<polyline points="2056.25,725.06 2064.75,733.56 2081.75,714.44" stroke="#15803D" fill="none" stroke-width="2.8" opacity="1.000" stroke-linejoin="round" stroke-linecap="round"/>
<polyline points="425.69,1067.69 427.81,1064.50 433.13,1064.50 436.31,1067.69 436.31,1070.88 432.07,1074.06 431.00,1077.25" stroke="#D97706" fill="none" stroke-width="2.1" opacity="1.000" stroke-linejoin="round" stroke-linecap="round"/>
<text x="125.68" y="57.50" font-size="12.00" font-family="NanumGothic, Noto Sans CJK KR, Apple SD Gothic Neo, Arial, sans-serif" text-anchor="middle" fill="#4F46E5" opacity="1.000"><tspan x="125.68" dy="0.00">DEEP ATLAS · 검증…</tspan></text>
<text x="56.00" y="126.50" font-size="36.00" font-family="NanumGothic, Noto Sans CJK KR, Apple SD Gothic Neo, Arial, sans-serif" text-anchor="start" fill="#101828" opacity="1.000"><tspan x="56.00" dy="0.00">Product orderability and order state lifecycle</tspan></text>
<text x="56.00" y="159.00" font-size="16.00" font-family="NanumGothic, Noto Sans CJK KR, Apple SD Gothic Neo, Arial, sans-serif" text-anchor="start" fill="#667085" opacity="1.000"><tspan x="56.00" dy="0.00">Make product-state eligibility and order-state transitions visible together without</tspan><tspan x="56.00" dy="20.00">pretending they are one state machine.</tspan></text>
<a href="[[architecture/atlas/flows/member-place-order.md]]"><text x="2468.00" y="100.50" font-size="12.00" font-family="NanumGothic, Noto Sans CJK KR, Apple SD Gothic Neo, Arial, sans-serif" text-anchor="middle" fill="#667085" opacity="1.000"><tspan x="2468.00" dy="0.00">흐름 문서</tspan></text></a>
<a href="[[architecture/atlas/states/order-lifecycle.md]]"><text x="2354.00" y="100.50" font-size="12.00" font-family="NanumGothic, Noto Sans CJK KR, Apple SD Gothic Neo, Arial, sans-serif" text-anchor="middle" fill="#667085" opacity="1.000"><tspan x="2354.00" dy="0.00">Deep Atlas</tspan></text></a>
<a href="[[architecture/atlas/states/product-lifecycle.md]]"><text x="2240.00" y="100.50" font-size="12.00" font-family="NanumGothic, Noto Sans CJK KR, Apple SD Gothic Neo, Arial, sans-serif" text-anchor="middle" fill="#667085" opacity="1.000"><tspan x="2240.00" dy="0.00">Deep Atlas</tspan></text></a>
<text x="120.00" y="249.12" font-size="11.00" font-family="NanumGothic, Noto Sans CJK KR, Apple SD Gothic Neo, Arial, sans-serif" text-anchor="middle" fill="#4F46E5" opacity="1.000"><tspan x="120.00" dy="0.00">PHASE 1</tspan></text>
<text x="180.00" y="250.88" font-size="21.00" font-family="NanumGothic, Noto Sans CJK KR, Apple SD Gothic Neo, Arial, sans-serif" text-anchor="start" fill="#101828" opacity="1.000"><tspan x="180.00" dy="0.00">Product lifecycle</tspan></text>
<text x="76.00" y="279.00" font-size="13.00" font-family="NanumGothic, Noto Sans CJK KR, Apple SD Gothic Neo, Arial, sans-serif" text-anchor="start" fill="#667085" opacity="1.000"><tspan x="76.00" dy="0.00">State controls whether orderability can even be considered.</tspan></text>
<text x="98.00" y="340.25" font-size="14.00" font-family="NanumGothic, Noto Sans CJK KR, Apple SD Gothic Neo, Arial, sans-serif" text-anchor="start" fill="#101828" opacity="1.000"><tspan x="98.00" dy="0.00">Product</tspan></text>
<text x="120.00" y="609.12" font-size="11.00" font-family="NanumGothic, Noto Sans CJK KR, Apple SD Gothic Neo, Arial, sans-serif" text-anchor="middle" fill="#7F56D9" opacity="1.000"><tspan x="120.00" dy="0.00">PHASE 2</tspan></text>
<text x="180.00" y="610.88" font-size="21.00" font-family="NanumGothic, Noto Sans CJK KR, Apple SD Gothic Neo, Arial, sans-serif" text-anchor="start" fill="#101828" opacity="1.000"><tspan x="180.00" dy="0.00">Order lifecycle</tspan></text>
<text x="76.00" y="639.00" font-size="13.00" font-family="NanumGothic, Noto Sans CJK KR, Apple SD Gothic Neo, Arial, sans-serif" text-anchor="start" fill="#667085" opacity="1.000"><tspan x="76.00" dy="0.00">Order state transitions and terminal outcomes.</tspan></text>
<text x="98.00" y="700.25" font-size="14.00" font-family="NanumGothic, Noto Sans CJK KR, Apple SD Gothic Neo, Arial, sans-serif" text-anchor="start" fill="#101828" opacity="1.000"><tspan x="98.00" dy="0.00">Order</tspan></text>
<text x="120.00" y="969.12" font-size="11.00" font-family="NanumGothic, Noto Sans CJK KR, Apple SD Gothic Neo, Arial, sans-serif" text-anchor="middle" fill="#0E7490" opacity="1.000"><tspan x="120.00" dy="0.00">PHASE 3</tspan></text>
<text x="180.00" y="970.88" font-size="21.00" font-family="NanumGothic, Noto Sans CJK KR, Apple SD Gothic Neo, Arial, sans-serif" text-anchor="start" fill="#101828" opacity="1.000"><tspan x="180.00" dy="0.00">Cross-entity orderability gate</tspan></text>
<text x="76.00" y="999.00" font-size="13.00" font-family="NanumGothic, Noto Sans CJK KR, Apple SD Gothic Neo, Arial, sans-serif" text-anchor="start" fill="#667085" opacity="1.000"><tspan x="76.00" dy="0.00">Rules that combine member, product, time, and inventory.</tspan></text>
<text x="98.00" y="1060.25" font-size="14.00" font-family="NanumGothic, Noto Sans CJK KR, Apple SD Gothic Neo, Arial, sans-serif" text-anchor="start" fill="#101828" opacity="1.000"><tspan x="98.00" dy="0.00">Eligibility rules</tspan></text>
<text x="384.00" y="362.62" font-size="15.00" font-family="NanumGothic, Noto Sans CJK KR, Apple SD Gothic Neo, Arial, sans-serif" text-anchor="start" fill="#101828" opacity="1.000"><tspan x="384.00" dy="0.00">DRAFT</tspan></text>
<text x="327.00" y="396.00" font-size="12.00" font-family="NanumGothic, Noto Sans CJK KR, Apple SD Gothic Neo, Arial, sans-serif" text-anchor="start" fill="#667085" opacity="1.000"><tspan x="327.00" dy="0.00">Not visible or orderable.</tspan></text>
<a href="[[states/product-lifecycle]]"><text x="814.00" y="362.62" font-size="15.00" font-family="NanumGothic, Noto Sans CJK KR, Apple SD Gothic Neo, Arial, sans-serif" text-anchor="start" fill="#101828" opacity="1.000"><tspan x="814.00" dy="0.00">ACTIVE</tspan></text></a>
<a href="[[states/product-lifecycle]]"><text x="757.00" y="396.00" font-size="12.00" font-family="NanumGothic, Noto Sans CJK KR, Apple SD Gothic Neo, Arial, sans-serif" text-anchor="start" fill="#667085" opacity="1.000"><tspan x="757.00" dy="0.00">Orderable only while sale</tspan><tspan x="757.00" dy="15.00">window is open.</tspan><tspan x="757.00" dy="15.00">DRAFT → ACTIVE</tspan></text></a>
<a href="[[states/product-lifecycle]]"><text x="1244.00" y="362.62" font-size="15.00" font-family="NanumGothic, Noto Sans CJK KR, Apple SD Gothic Neo, Arial, sans-serif" text-anchor="start" fill="#101828" opacity="1.000"><tspan x="1244.00" dy="0.00">PAUSED</tspan></text></a>
<a href="[[states/product-lifecycle]]"><text x="1187.00" y="396.00" font-size="12.00" font-family="NanumGothic, Noto Sans CJK KR, Apple SD Gothic Neo, Arial, sans-serif" text-anchor="start" fill="#667085" opacity="1.000"><tspan x="1187.00" dy="0.00">Visible policy may vary;</tspan><tspan x="1187.00" dy="15.00">ordering rejected.</tspan><tspan x="1187.00" dy="15.00">ACTIVE → PAUSED</tspan></text></a>
<text x="1674.00" y="362.62" font-size="15.00" font-family="NanumGothic, Noto Sans CJK KR, Apple SD Gothic Neo, Arial, sans-serif" text-anchor="start" fill="#101828" opacity="1.000"><tspan x="1674.00" dy="0.00">DISCONTINUED</tspan></text>
<text x="1617.00" y="396.00" font-size="12.00" font-family="NanumGothic, Noto Sans CJK KR, Apple SD Gothic Neo, Arial, sans-serif" text-anchor="start" fill="#667085" opacity="1.000"><tspan x="1617.00" dy="0.00">Terminal: never orderable.</tspan></text>
<text x="384.00" y="722.62" font-size="15.00" font-family="NanumGothic, Noto Sans CJK KR, Apple SD Gothic Neo, Arial, sans-serif" text-anchor="start" fill="#101828" opacity="1.000"><tspan x="384.00" dy="0.00">NONE</tspan></text>
<text x="327.00" y="756.00" font-size="12.00" font-family="NanumGothic, Noto Sans CJK KR, Apple SD Gothic Neo, Arial, sans-serif" text-anchor="start" fill="#667085" opacity="1.000"><tspan x="327.00" dy="0.00">No order exists.</tspan></text>
<a href="[[states/order-lifecycle]]"><text x="814.00" y="722.62" font-size="15.00" font-family="NanumGothic, Noto Sans CJK KR, Apple SD Gothic Neo, Arial, sans-serif" text-anchor="start" fill="#101828" opacity="1.000"><tspan x="814.00" dy="0.00">PENDING</tspan></text></a>
<a href="[[states/order-lifecycle]]"><text x="757.00" y="756.00" font-size="12.00" font-family="NanumGothic, Noto Sans CJK KR, Apple SD Gothic Neo, Arial, sans-serif" text-anchor="start" fill="#667085" opacity="1.000"><tspan x="757.00" dy="0.00">Request validated; stock</tspan><tspan x="757.00" dy="15.00">not guaranteed.</tspan><tspan x="757.00" dy="15.00">NONE → PENDING</tspan></text></a>
<a href="[[states/order-lifecycle]]"><text x="1244.00" y="722.62" font-size="15.00" font-family="NanumGothic, Noto Sans CJK KR, Apple SD Gothic Neo, Arial, sans-serif" text-anchor="start" fill="#101828" opacity="1.000"><tspan x="1244.00" dy="0.00">RESERVED</tspan></text></a>
<a href="[[states/order-lifecycle]]"><text x="1187.00" y="756.00" font-size="12.00" font-family="NanumGothic, Noto Sans CJK KR, Apple SD Gothic Neo, Arial, sans-serif" text-anchor="start" fill="#667085" opacity="1.000"><tspan x="1187.00" dy="0.00">Stock held; payment</tspan><tspan x="1187.00" dy="15.00">pending.</tspan><tspan x="1187.00" dy="15.00">PENDING → RESERVED</tspan></text></a>
<text x="1674.00" y="722.62" font-size="15.00" font-family="NanumGothic, Noto Sans CJK KR, Apple SD Gothic Neo, Arial, sans-serif" text-anchor="start" fill="#101828" opacity="1.000"><tspan x="1674.00" dy="0.00">PAID</tspan></text>
<text x="1617.00" y="756.00" font-size="12.00" font-family="NanumGothic, Noto Sans CJK KR, Apple SD Gothic Neo, Arial, sans-serif" text-anchor="start" fill="#667085" opacity="1.000"><tspan x="1617.00" dy="0.00">Successful terminal state.</tspan></text>
<text x="2104.00" y="722.62" font-size="15.00" font-family="NanumGothic, Noto Sans CJK KR, Apple SD Gothic Neo, Arial, sans-serif" text-anchor="start" fill="#101828" opacity="1.000"><tspan x="2104.00" dy="0.00">FAILED</tspan></text>
<text x="2047.00" y="756.00" font-size="12.00" font-family="NanumGothic, Noto Sans CJK KR, Apple SD Gothic Neo, Arial, sans-serif" text-anchor="start" fill="#667085" opacity="1.000"><tspan x="2047.00" dy="0.00">Failure terminal state.</tspan></text>
<a href="[[flows/member-place-order#eligibility]]"><text x="431.00" y="1096.25" font-size="14.00" font-family="NanumGothic, Noto Sans CJK KR, Apple SD Gothic Neo, Arial, sans-serif" text-anchor="middle" fill="#101828" opacity="1.000"><tspan x="431.00" dy="0.00">Orderability gate</tspan><tspan x="431.00" dy="17.50">member VERIFIED ∧</tspan><tspan x="431.00" dy="17.50">product ACTIVE ∧ sale</tspan><tspan x="431.00" dy="17.50">window open ∧ stock</tspan><tspan x="431.00" dy="17.50">sufficient.</tspan></text></a>
<text x="694.56" y="393.12" font-size="11.00" font-family="NanumGothic, Noto Sans CJK KR, Apple SD Gothic Neo, Arial, sans-serif" text-anchor="middle" fill="#D97706" opacity="1.000"><tspan x="694.56" dy="0.00">publish · required data…</tspan></text>
<text x="1111.80" y="393.12" font-size="11.00" font-family="NanumGothic, Noto Sans CJK KR, Apple SD Gothic Neo, Arial, sans-serif" text-anchor="middle" fill="#D97706" opacity="1.000"><tspan x="1111.80" dy="0.00">pause · admin action</tspan></text>
<text x="1490.99" y="393.12" font-size="11.00" font-family="NanumGothic, Noto Sans CJK KR, Apple SD Gothic Neo, Arial, sans-serif" text-anchor="middle" fill="#D97706" opacity="1.000"><tspan x="1490.99" dy="0.00">resume · admin action</tspan></text>
<text x="1345.94" y="393.12" font-size="11.00" font-family="NanumGothic, Noto Sans CJK KR, Apple SD Gothic Neo, Arial, sans-serif" text-anchor="middle" fill="#D97706" opacity="1.000"><tspan x="1345.94" dy="0.00">discontinue · admin action</tspan></text>
<text x="675.42" y="753.12" font-size="11.00" font-family="NanumGothic, Noto Sans CJK KR, Apple SD Gothic Neo, Arial, sans-serif" text-anchor="middle" fill="#4F46E5" opacity="1.000"><tspan x="675.42" dy="0.00">create · member +…</tspan></text>
<text x="1130.94" y="753.12" font-size="11.00" font-family="NanumGothic, Noto Sans CJK KR, Apple SD Gothic Neo, Arial, sans-serif" text-anchor="middle" fill="#D97706" opacity="1.000"><tspan x="1130.94" dy="0.00">reserve · stock sufficient</tspan></text>
<text x="1564.13" y="753.12" font-size="11.00" font-family="NanumGothic, Noto Sans CJK KR, Apple SD Gothic Neo, Arial, sans-serif" text-anchor="middle" fill="#D92D20" opacity="1.000"><tspan x="1564.13" dy="0.00">reject · stock insufficient</tspan></text>
<text x="1567.32" y="753.12" font-size="11.00" font-family="NanumGothic, Noto Sans CJK KR, Apple SD Gothic Neo, Arial, sans-serif" text-anchor="middle" fill="#D97706" opacity="1.000"><tspan x="1567.32" dy="0.00">authorize · payment authori…</tspan></text>
<text x="1756.80" y="753.12" font-size="11.00" font-family="NanumGothic, Noto Sans CJK KR, Apple SD Gothic Neo, Arial, sans-serif" text-anchor="middle" fill="#D92D20" opacity="1.000"><tspan x="1756.80" dy="0.00">decline + release ·…</tspan></text>
<text x="1070.56" y="753.12" font-size="11.00" font-family="NanumGothic, Noto Sans CJK KR, Apple SD Gothic Neo, Arial, sans-serif" text-anchor="middle" fill="#98A2B3" opacity="1.000"><tspan x="1070.56" dy="0.00">candidate · sale window…</tspan></text>
<text x="678.61" y="933.12" font-size="11.00" font-family="NanumGothic, Noto Sans CJK KR, Apple SD Gothic Neo, Arial, sans-serif" text-anchor="middle" fill="#98A2B3" opacity="1.000"><tspan x="678.61" dy="0.00">allowed · all gate…</tspan></text>
</svg>