<svg xmlns="http://www.w3.org/2000/svg" width="2231" height="971" viewBox="-12.00 -22.00 2231.00 971.00">
<rect x="-12.00" y="-22.00" width="2231.00" height="971.00" fill="#F7F8FC"/>
<rect x="55.00" y="215.00" width="2104.00" height="674.00" rx="18.00" stroke="#101828" fill="#101828" stroke-width="0.0" opacity="0.100"/>
<rect x="48.00" y="208.00" width="2104.00" height="674.00" rx="18.00" stroke="#D0D5DD" fill="#FFFFFF" stroke-width="1.4" opacity="1.000"/>
<rect x="78.00" y="308.00" width="2044.00" height="164.00" rx="18.00" stroke="#D0D5DD" fill="#F2F4F7" stroke-width="1.0" opacity="1.000"/>
<rect x="78.00" y="486.00" width="2044.00" height="164.00" rx="18.00" stroke="#D0D5DD" fill="#F2F4F7" stroke-width="1.0" opacity="1.000"/>
<rect x="78.00" y="664.00" width="2044.00" height="164.00" rx="18.00" stroke="#D0D5DD" fill="#F2F4F7" stroke-width="1.0" opacity="1.000"/>
<rect x="319.00" y="334.00" width="238.00" height="126.00" rx="18.00" stroke="#101828" fill="#101828" stroke-width="0.0" opacity="0.100"/>
<rect x="1129.00" y="334.00" width="238.00" height="126.00" rx="18.00" stroke="#101828" fill="#101828" stroke-width="0.0" opacity="0.100"/>
<rect x="1399.00" y="334.00" width="238.00" height="126.00" rx="18.00" stroke="#101828" fill="#101828" stroke-width="0.0" opacity="0.100"/>
<polyline points="555.00,390.00 566.00,390.00 566.00,568.00 577.00,568.00" stroke="#4F46E5" fill="none" stroke-width="3.0" opacity="1.000" stroke-linejoin="round" stroke-linecap="round"/><polygon points="577.00,568.00 558.00,576.55 558.00,559.45" fill="#4F46E5" opacity="1.000"/>
<polyline points="825.00,568.00 836.00,568.00 836.00,746.00 847.00,746.00" stroke="#D97706" fill="none" stroke-width="2.2" opacity="1.000" stroke-linejoin="round" stroke-linecap="round"/><polygon points="847.00,746.00 829.60,753.83 829.60,738.17" fill="#D97706" opacity="1.000"/>
<polyline points="825.00,568.00 1106.00,568.00 1106.00,390.00 1387.00,390.00" stroke="#D97706" fill="none" stroke-width="2.2" opacity="1.000" stroke-linejoin="round" stroke-linecap="round"/><polygon points="1387.00,390.00 1369.60,397.83 1369.60,382.17" fill="#D97706" opacity="1.000"/>
<polyline points="1095.00,746.00 1106.00,746.00 1106.00,390.00 1117.00,390.00" stroke="#D97706" fill="none" stroke-width="2.2" opacity="1.000" stroke-linejoin="round" stroke-linecap="round"/><polygon points="1117.00,390.00 1099.60,397.83 1099.60,382.17" fill="#D97706" opacity="1.000"/>
<polyline points="1095.00,746.00 1241.00,746.00 1241.00,390.00 1387.00,390.00" stroke="#D97706" fill="none" stroke-width="2.2" opacity="1.000" stroke-linejoin="round" stroke-linecap="round"/><polygon points="1387.00,390.00 1369.60,397.83 1369.60,382.17" fill="#D97706" opacity="1.000"/>
<rect x="56.00" y="38.00" width="139.36" height="30.00" rx="5.40" stroke="#4F46E5" fill="#EEF2FF" stroke-width="1.0" opacity="1.000"/>
<rect x="2040.00" y="81.00" width="104.00" height="30.00" rx="5.40" stroke="#667085" fill="#FFFFFF" stroke-width="1.0" opacity="1.000"/>
<rect x="48.00" y="208.00" width="8.00" height="674.00" rx="0.64" stroke="#4F46E5" fill="#4F46E5" stroke-width="0.0" opacity="1.000"/>
<rect x="76.00" y="230.00" width="88.00" height="30.00" rx="5.40" stroke="#4F46E5" fill="#F2F4F7" stroke-width="1.0" opacity="1.000"/>
<rect x="78.00" y="308.00" width="10.00" height="164.00" rx="0.80" stroke="#175CD3" fill="#175CD3" stroke-width="0.0" opacity="1.000"/>
<rect x="78.00" y="486.00" width="10.00" height="164.00" rx="0.80" stroke="#7F56D9" fill="#7F56D9" stroke-width="0.0" opacity="1.000"/>
<rect x="78.00" y="664.00" width="10.00" height="164.00" rx="0.80" stroke="#0E7490" fill="#0E7490" stroke-width="0.0" opacity="1.000"/>
<rect x="312.00" y="327.00" width="238.00" height="126.00" rx="18.00" stroke="#4F46E5" fill="#EEF2FF" stroke-width="1.6" opacity="1.000"/>
<rect x="312.00" y="327.00" width="238.00" height="5.00" rx="0.90" stroke="#4F46E5" fill="#4F46E5" stroke-width="0.0" opacity="1.000"/>
<rect x="327.00" y="342.00" width="44.00" height="44.00" rx="3.52" stroke="#EEF2FF" fill="#EEF2FF" stroke-width="0.0" opacity="1.000"/>
<rect x="1122.00" y="327.00" width="238.00" height="126.00" rx="18.00" stroke="#15803D" fill="#ECFDF3" stroke-width="1.6" opacity="1.000"/>
<rect x="1122.00" y="327.00" width="238.00" height="5.00" rx="0.90" stroke="#15803D" fill="#15803D" stroke-width="0.0" opacity="1.000"/>
<rect x="1137.00" y="342.00" width="44.00" height="44.00" rx="3.52" stroke="#ECFDF3" fill="#ECFDF3" stroke-width="0.0" opacity="1.000"/>
<rect x="1392.00" y="327.00" width="238.00" height="126.00" rx="18.00" stroke="#15803D" fill="#ECFDF3" stroke-width="1.6" opacity="1.000"/>
<rect x="1392.00" y="327.00" width="238.00" height="5.00" rx="0.90" stroke="#15803D" fill="#15803D" stroke-width="0.0" opacity="1.000"/>
<rect x="1407.00" y="342.00" width="44.00" height="44.00" rx="3.52" stroke="#ECFDF3" fill="#ECFDF3" stroke-width="0.0" opacity="1.000"/>
<polygon points="701.00,495.00 820.00,568.00 701.00,641.00 582.00,568.00" stroke="#D97706" fill="#FFFAEB" stroke-width="2.2" opacity="1.000" stroke-linejoin="round"/>
<rect x="679.00" y="509.00" width="44.00" height="44.00" rx="3.52" stroke="#FFFAEB" fill="#FFFAEB" stroke-width="0.0" opacity="1.000"/>
<ellipse cx="701.00" cy="531.00" rx="13.81" ry="13.81" stroke="#D97706" fill="none" stroke-width="2.1" opacity="1.000"/>
<ellipse cx="701.00" cy="541.10" rx="1.59" ry="1.59" stroke="#D97706" fill="#D97706" stroke-width="2.1" opacity="1.000"/>
<polygon points="971.00,673.00 1090.00,746.00 971.00,819.00 852.00,746.00" stroke="#D97706" fill="#FFFAEB" stroke-width="2.2" opacity="1.000" stroke-linejoin="round"/>
<rect x="949.00" y="687.00" width="44.00" height="44.00" rx="3.52" stroke="#FFFAEB" fill="#FFFAEB" stroke-width="0.0" opacity="1.000"/>
<ellipse cx="971.00" cy="709.00" rx="13.81" ry="13.81" stroke="#D97706" fill="none" stroke-width="2.1" opacity="1.000"/>
<ellipse cx="971.00" cy="719.10" rx="1.59" ry="1.59" stroke="#D97706" fill="#D97706" stroke-width="2.1" opacity="1.000"/>
<rect x="524.00" y="463.00" width="181.12" height="30.00" rx="5.40" stroke="#4F46E5" fill="#FFFFFF" stroke-width="1.0" opacity="1.000"/>
<rect x="794.00" y="641.00" width="168.36" height="30.00" rx="5.40" stroke="#D97706" fill="#FFFFFF" stroke-width="1.0" opacity="1.000"/>
<rect x="1064.00" y="463.00" width="136.46" height="30.00" rx="5.40" stroke="#D97706" fill="#FFFFFF" stroke-width="1.0" opacity="1.000"/>
<rect x="1064.00" y="552.00" width="161.98" height="30.00" rx="5.40" stroke="#D97706" fill="#FFFFFF" stroke-width="1.0" opacity="1.000"/>
<rect x="1199.00" y="552.00" width="161.98" height="30.00" rx="5.40" stroke="#D97706" fill="#FFFFFF" stroke-width="1.0" opacity="1.000"/>
<polyline points="341.56,352.31 341.56,375.69 358.56,364.00 341.56,352.31" stroke="#4F46E5" fill="none" stroke-width="2.1" opacity="1.000" stroke-linejoin="round" stroke-linecap="round"/>
<polyline points="1146.25,365.06 1154.75,373.56 1171.75,354.44" stroke="#15803D" fill="none" stroke-width="2.8" opacity="1.000" stroke-linejoin="round" stroke-linecap="round"/>
<polyline points="1416.25,365.06 1424.75,373.56 1441.75,354.44" stroke="#15803D" fill="none" stroke-width="2.8" opacity="1.000" stroke-linejoin="round" stroke-linecap="round"/>
<polyline points="695.69,525.69 697.81,522.50 703.13,522.50 706.31,525.69 706.31,528.88 702.07,532.06 701.00,535.25" stroke="#D97706" fill="none" stroke-width="2.1" opacity="1.000" stroke-linejoin="round" stroke-linecap="round"/>
<polyline points="965.69,703.69 967.81,700.50 973.13,700.50 976.31,703.69 976.31,706.88 972.07,710.06 971.00,713.25" stroke="#D97706" fill="none" stroke-width="2.1" opacity="1.000" stroke-linejoin="round" stroke-linecap="round"/>
<text x="125.68" y="57.50" font-size="12.00" font-family="NanumGothic, Noto Sans CJK KR, Apple SD Gothic Neo, Arial, sans-serif" text-anchor="middle" fill="#4F46E5" opacity="1.000"><tspan x="125.68" dy="0.00">DEEP ATLAS · 검증…</tspan></text>
<text x="56.00" y="126.50" font-size="36.00" font-family="NanumGothic, Noto Sans CJK KR, Apple SD Gothic Neo, Arial, sans-serif" text-anchor="start" fill="#101828" opacity="1.000"><tspan x="56.00" dy="0.00">Browse products with orderability reason</tspan></text>
<text x="56.00" y="159.00" font-size="16.00" font-family="NanumGothic, Noto Sans CJK KR, Apple SD Gothic Neo, Arial, sans-serif" text-anchor="start" fill="#667085" opacity="1.000"><tspan x="56.00" dy="0.00">Show why a product appears orderable or blocked before checkout.</tspan></text>
<a href="[[architecture/atlas/flows/browse-orderable-products.md]]"><text x="2092.00" y="100.50" font-size="12.00" font-family="NanumGothic, Noto Sans CJK KR, Apple SD Gothic Neo, Arial, sans-serif" text-anchor="middle" fill="#667085" opacity="1.000"><tspan x="2092.00" dy="0.00">흐름 문서</tspan></text></a>
<text x="120.00" y="249.12" font-size="11.00" font-family="NanumGothic, Noto Sans CJK KR, Apple SD Gothic Neo, Arial, sans-serif" text-anchor="middle" fill="#4F46E5" opacity="1.000"><tspan x="120.00" dy="0.00">PHASE 1</tspan></text>
<text x="180.00" y="250.88" font-size="21.00" font-family="NanumGothic, Noto Sans CJK KR, Apple SD Gothic Neo, Arial, sans-serif" text-anchor="start" fill="#101828" opacity="1.000"><tspan x="180.00" dy="0.00">Catalog query</tspan></text>
<text x="76.00" y="279.00" font-size="13.00" font-family="NanumGothic, Noto Sans CJK KR, Apple SD Gothic Neo, Arial, sans-serif" text-anchor="start" fill="#667085" opacity="1.000"><tspan x="76.00" dy="0.00">Visibility plus orderability.</tspan></text>
<text x="98.00" y="340.25" font-size="14.00" font-family="NanumGothic, Noto Sans CJK KR, Apple SD Gothic Neo, Arial, sans-serif" text-anchor="start" fill="#101828" opacity="1.000"><tspan x="98.00" dy="0.00">Guest / member</tspan></text>
<text x="98.00" y="518.25" font-size="14.00" font-family="NanumGothic, Noto Sans CJK KR, Apple SD Gothic Neo, Arial, sans-serif" text-anchor="start" fill="#101828" opacity="1.000"><tspan x="98.00" dy="0.00">Catalog</tspan></text>
<text x="98.00" y="696.25" font-size="14.00" font-family="NanumGothic, Noto Sans CJK KR, Apple SD Gothic Neo, Arial, sans-serif" text-anchor="start" fill="#101828" opacity="1.000"><tspan x="98.00" dy="0.00">Inventory</tspan></text>
<text x="384.00" y="362.62" font-size="15.00" font-family="NanumGothic, Noto Sans CJK KR, Apple SD Gothic Neo, Arial, sans-serif" text-anchor="start" fill="#101828" opacity="1.000"><tspan x="384.00" dy="0.00">Open catalog</tspan></text>
<text x="327.00" y="396.00" font-size="12.00" font-family="NanumGothic, Noto Sans CJK KR, Apple SD Gothic Neo, Arial, sans-serif" text-anchor="start" fill="#667085" opacity="1.000"><tspan x="327.00" dy="0.00">Request products.</tspan></text>
<text x="1194.00" y="362.62" font-size="15.00" font-family="NanumGothic, Noto Sans CJK KR, Apple SD Gothic Neo, Arial, sans-serif" text-anchor="start" fill="#101828" opacity="1.000"><tspan x="1194.00" dy="0.00">Orderable</tspan></text>
<text x="1137.00" y="396.00" font-size="12.00" font-family="NanumGothic, Noto Sans CJK KR, Apple SD Gothic Neo, Arial, sans-serif" text-anchor="start" fill="#667085" opacity="1.000"><tspan x="1137.00" dy="0.00">Show product as orderable</tspan><tspan x="1137.00" dy="15.00">with current price.</tspan></text>
<text x="1464.00" y="362.62" font-size="15.00" font-family="NanumGothic, Noto Sans CJK KR, Apple SD Gothic Neo, Arial, sans-serif" text-anchor="start" fill="#101828" opacity="1.000"><tspan x="1464.00" dy="0.00">Blocked with reason</tspan></text>
<text x="1407.00" y="396.00" font-size="12.00" font-family="NanumGothic, Noto Sans CJK KR, Apple SD Gothic Neo, Arial, sans-serif" text-anchor="start" fill="#667085" opacity="1.000"><tspan x="1407.00" dy="0.00">Show inactive,</tspan><tspan x="1407.00" dy="15.00">sale-window, or stock</tspan><tspan x="1407.00" dy="15.00">reason.</tspan></text>
<a href="[[rules/rule-product-active]]"><text x="701.00" y="563.00" font-size="14.00" font-family="NanumGothic, Noto Sans CJK KR, Apple SD Gothic Neo, Arial, sans-serif" text-anchor="middle" fill="#101828" opacity="1.000"><tspan x="701.00" dy="0.00">Product active &amp; sale</tspan><tspan x="701.00" dy="17.50">open?</tspan><tspan x="701.00" dy="17.50">Apply product state</tspan><tspan x="701.00" dy="17.50">and sale window.</tspan></text></a>
<a href="[[rules/rule-stock-available]]"><text x="971.00" y="749.75" font-size="14.00" font-family="NanumGothic, Noto Sans CJK KR, Apple SD Gothic Neo, Arial, sans-serif" text-anchor="middle" fill="#101828" opacity="1.000"><tspan x="971.00" dy="0.00">Stock available?</tspan><tspan x="971.00" dy="17.50">Attach availability</tspan><tspan x="971.00" dy="17.50">reason.</tspan></text></a>
<text x="614.56" y="482.12" font-size="11.00" font-family="NanumGothic, Noto Sans CJK KR, Apple SD Gothic Neo, Arial, sans-serif" text-anchor="middle" fill="#4F46E5" opacity="1.000"><tspan x="614.56" dy="0.00">request · catalog opened</tspan></text>
<text x="878.18" y="660.12" font-size="11.00" font-family="NanumGothic, Noto Sans CJK KR, Apple SD Gothic Neo, Arial, sans-serif" text-anchor="middle" fill="#D97706" opacity="1.000"><tspan x="878.18" dy="0.00">eligible · ACTIVE and…</tspan></text>
<text x="1132.23" y="482.12" font-size="11.00" font-family="NanumGothic, Noto Sans CJK KR, Apple SD Gothic Neo, Arial, sans-serif" text-anchor="middle" fill="#D97706" opacity="1.000"><tspan x="1132.23" dy="0.00">NO · inactive or…</tspan></text>
<text x="1144.99" y="571.12" font-size="11.00" font-family="NanumGothic, Noto Sans CJK KR, Apple SD Gothic Neo, Arial, sans-serif" text-anchor="middle" fill="#D97706" opacity="1.000"><tspan x="1144.99" dy="0.00">YES · availableQty &gt;…</tspan></text>
<text x="1279.99" y="571.12" font-size="11.00" font-family="NanumGothic, Noto Sans CJK KR, Apple SD Gothic Neo, Arial, sans-serif" text-anchor="middle" fill="#D97706" opacity="1.000"><tspan x="1279.99" dy="0.00">NO · availableQty ==…</tspan></text>
</svg>