<svg xmlns="http://www.w3.org/2000/svg" width="1601" height="1665" viewBox="-26.00 -26.00 1601.00 1665.00">
<rect x="-26.00" y="-26.00" width="1601.00" height="1665.00" fill="#F7F8FC"/>
<rect x="41.00" y="215.00" width="1474.00" height="1364.00" rx="18.00" stroke="#101828" fill="#101828" stroke-width="0.0" opacity="0.100"/>
<rect x="34.00" y="208.00" width="1474.00" height="1364.00" rx="18.00" stroke="#D0D5DD" fill="#FFFFFF" stroke-width="1.3" opacity="1.000"/>
<rect x="61.00" y="281.00" width="340.00" height="170.00" rx="18.00" stroke="#101828" fill="#101828" stroke-width="0.0" opacity="0.100"/>
<rect x="541.00" y="281.00" width="340.00" height="170.00" rx="18.00" stroke="#101828" fill="#101828" stroke-width="0.0" opacity="0.100"/>
<rect x="1021.00" y="281.00" width="340.00" height="170.00" rx="18.00" stroke="#101828" fill="#101828" stroke-width="0.0" opacity="0.100"/>
<rect x="541.00" y="543.00" width="340.00" height="170.00" rx="18.00" stroke="#101828" fill="#101828" stroke-width="0.0" opacity="0.100"/>
<rect x="1021.00" y="543.00" width="340.00" height="170.00" rx="18.00" stroke="#101828" fill="#101828" stroke-width="0.0" opacity="0.100"/>
<rect x="61.00" y="805.00" width="340.00" height="170.00" rx="18.00" stroke="#101828" fill="#101828" stroke-width="0.0" opacity="0.100"/>
<rect x="541.00" y="805.00" width="340.00" height="170.00" rx="18.00" stroke="#101828" fill="#101828" stroke-width="0.0" opacity="0.100"/>
<rect x="1021.00" y="805.00" width="340.00" height="170.00" rx="18.00" stroke="#101828" fill="#101828" stroke-width="0.0" opacity="0.100"/>
<rect x="61.00" y="1067.00" width="340.00" height="170.00" rx="18.00" stroke="#101828" fill="#101828" stroke-width="0.0" opacity="0.100"/>
<rect x="541.00" y="1067.00" width="340.00" height="170.00" rx="18.00" stroke="#101828" fill="#101828" stroke-width="0.0" opacity="0.100"/>
<rect x="1021.00" y="1067.00" width="340.00" height="170.00" rx="18.00" stroke="#101828" fill="#101828" stroke-width="0.0" opacity="0.100"/>
<rect x="61.00" y="1329.00" width="340.00" height="170.00" rx="18.00" stroke="#101828" fill="#101828" stroke-width="0.0" opacity="0.100"/>
<rect x="541.00" y="1329.00" width="340.00" height="170.00" rx="18.00" stroke="#101828" fill="#101828" stroke-width="0.0" opacity="0.100"/>
<rect x="54.00" y="230.00" width="190.00" height="30.00" rx="5.40" stroke="#667085" fill="#F2F4F7" stroke-width="1.0" opacity="1.000"/>
<rect x="54.00" y="274.00" width="340.00" height="170.00" rx="18.00" stroke="#175CD3" fill="#EFF8FF" stroke-width="1.6" opacity="1.000"/>
<rect x="54.00" y="274.00" width="340.00" height="6.00" rx="1.08" stroke="#175CD3" fill="#175CD3" stroke-width="0.0" opacity="1.000"/>
<rect x="72.00" y="292.00" width="52.00" height="52.00" rx="4.16" stroke="#EFF8FF" fill="#EFF8FF" stroke-width="0.0" opacity="1.000"/>
<ellipse cx="98.00" cy="305.50" rx="5.00" ry="5.00" stroke="#175CD3" fill="none" stroke-width="2.1" opacity="1.000"/>
<rect x="534.00" y="230.00" width="190.00" height="30.00" rx="5.40" stroke="#667085" fill="#F2F4F7" stroke-width="1.0" opacity="1.000"/>
<rect x="534.00" y="274.00" width="340.00" height="170.00" rx="18.00" stroke="#4F46E5" fill="#FFFFFF" stroke-width="1.6" opacity="1.000"/>
<rect x="534.00" y="274.00" width="340.00" height="6.00" rx="1.08" stroke="#4F46E5" fill="#4F46E5" stroke-width="0.0" opacity="1.000"/>
<rect x="552.00" y="292.00" width="52.00" height="52.00" rx="4.16" stroke="#FFFFFF" fill="#FFFFFF" stroke-width="0.0" opacity="1.000"/>
<rect x="561.75" y="304.25" width="32.50" height="27.50" rx="2.60" stroke="#4F46E5" fill="none" stroke-width="2.1" opacity="1.000"/>
<ellipse cx="569.25" cy="314.25" rx="2.50" ry="2.50" stroke="#4F46E5" fill="#4F46E5" stroke-width="2.1" opacity="1.000"/>
<ellipse cx="569.25" cy="324.25" rx="2.50" ry="2.50" stroke="#4F46E5" fill="#4F46E5" stroke-width="2.1" opacity="1.000"/>
<rect x="1014.00" y="230.00" width="190.00" height="30.00" rx="5.40" stroke="#667085" fill="#F2F4F7" stroke-width="1.0" opacity="1.000"/>
<rect x="1014.00" y="274.00" width="340.00" height="170.00" rx="18.00" stroke="#D97706" fill="#FFFAEB" stroke-width="2.2" opacity="1.000"/>
<rect x="1014.00" y="274.00" width="340.00" height="6.00" rx="1.08" stroke="#D97706" fill="#D97706" stroke-width="0.0" opacity="1.000"/>
<rect x="1032.00" y="292.00" width="52.00" height="52.00" rx="4.16" stroke="#FFFAEB" fill="#FFFAEB" stroke-width="0.0" opacity="1.000"/>
<ellipse cx="1058.00" cy="318.00" rx="16.25" ry="16.25" stroke="#D97706" fill="none" stroke-width="2.1" opacity="1.000"/>
<ellipse cx="1057.99" cy="329.88" rx="1.88" ry="1.88" stroke="#D97706" fill="#D97706" stroke-width="2.1" opacity="1.000"/>
<rect x="1270.00" y="410.00" width="62.00" height="30.00" rx="4.96" stroke="#D97706" fill="#FFFAEB" stroke-width="1.0" opacity="1.000"/>
<rect x="54.00" y="492.00" width="190.00" height="30.00" rx="5.40" stroke="#667085" fill="#F2F4F7" stroke-width="1.0" opacity="1.000"/>
<polygon points="204.00,536.00 354.00,631.00 204.00,726.00 54.00,631.00" stroke="#D97706" fill="#FFFAEB" stroke-width="2.2" opacity="1.000" stroke-linejoin="round"/>
<rect x="178.00" y="550.00" width="52.00" height="52.00" rx="4.16" stroke="#FFFAEB" fill="#FFFAEB" stroke-width="0.0" opacity="1.000"/>
<ellipse cx="204.00" cy="576.00" rx="16.25" ry="16.25" stroke="#D97706" fill="none" stroke-width="2.1" opacity="1.000"/>
<ellipse cx="204.00" cy="587.88" rx="1.88" ry="1.88" stroke="#D97706" fill="#D97706" stroke-width="2.1" opacity="1.000"/>
<rect x="534.00" y="492.00" width="190.00" height="30.00" rx="5.40" stroke="#667085" fill="#F2F4F7" stroke-width="1.0" opacity="1.000"/>
<rect x="534.00" y="536.00" width="340.00" height="170.00" rx="18.00" stroke="#7F56D9" fill="#F4F3FF" stroke-width="1.6" opacity="1.000"/>
<rect x="534.00" y="536.00" width="340.00" height="6.00" rx="1.08" stroke="#7F56D9" fill="#7F56D9" stroke-width="0.0" opacity="1.000"/>
<rect x="552.00" y="554.00" width="52.00" height="52.00" rx="4.16" stroke="#F4F3FF" fill="#F4F3FF" stroke-width="0.0" opacity="1.000"/>
<rect x="1014.00" y="492.00" width="190.00" height="30.00" rx="5.40" stroke="#667085" fill="#F2F4F7" stroke-width="1.0" opacity="1.000"/>
<rect x="1014.00" y="536.00" width="340.00" height="170.00" rx="18.00" stroke="#0E7490" fill="#ECFDFF" stroke-width="1.6" opacity="1.000"/>
<rect x="1014.00" y="536.00" width="340.00" height="6.00" rx="1.08" stroke="#0E7490" fill="#0E7490" stroke-width="0.0" opacity="1.000"/>
<rect x="1032.00" y="554.00" width="52.00" height="52.00" rx="4.16" stroke="#ECFDFF" fill="#ECFDFF" stroke-width="0.0" opacity="1.000"/>
<rect x="54.00" y="754.00" width="190.00" height="30.00" rx="5.40" stroke="#667085" fill="#F2F4F7" stroke-width="1.0" opacity="1.000"/>
<rect x="54.00" y="798.00" width="340.00" height="170.00" rx="18.00" stroke="#175CD3" fill="#EFF8FF" stroke-width="1.6" opacity="1.000"/>
<rect x="54.00" y="798.00" width="340.00" height="6.00" rx="1.08" stroke="#175CD3" fill="#175CD3" stroke-width="0.0" opacity="1.000"/>
<rect x="72.00" y="816.00" width="52.00" height="52.00" rx="4.16" stroke="#EFF8FF" fill="#EFF8FF" stroke-width="0.0" opacity="1.000"/>
<ellipse cx="98.00" cy="830.75" rx="16.25" ry="5.00" stroke="#175CD3" fill="none" stroke-width="2.1" opacity="1.000"/>
<rect x="81.75" y="830.75" width="32.50" height="23.75" rx="0.00" stroke="#175CD3" fill="none" stroke-width="2.1" opacity="1.000"/>
<ellipse cx="98.00" cy="854.50" rx="16.25" ry="5.00" stroke="#175CD3" fill="none" stroke-width="2.1" opacity="1.000"/>
<rect x="534.00" y="754.00" width="190.00" height="30.00" rx="5.40" stroke="#667085" fill="#F2F4F7" stroke-width="1.0" opacity="1.000"/>
<rect x="534.00" y="798.00" width="340.00" height="170.00" rx="18.00" stroke="#4F46E5" fill="#FFFFFF" stroke-width="1.6" opacity="1.000"/>
<rect x="534.00" y="798.00" width="340.00" height="6.00" rx="1.08" stroke="#4F46E5" fill="#4F46E5" stroke-width="0.0" opacity="1.000"/>
<rect x="552.00" y="816.00" width="52.00" height="52.00" rx="4.16" stroke="#FFFFFF" fill="#FFFFFF" stroke-width="0.0" opacity="1.000"/>
<rect x="560.50" y="832.00" width="8.75" height="20.00" rx="0.70" stroke="#4F46E5" fill="none" stroke-width="2.1" opacity="1.000"/>
<rect x="573.00" y="832.00" width="8.75" height="20.00" rx="0.70" stroke="#4F46E5" fill="none" stroke-width="2.1" opacity="1.000"/>
<rect x="585.50" y="832.00" width="8.75" height="20.00" rx="0.70" stroke="#4F46E5" fill="none" stroke-width="2.1" opacity="1.000"/>
<rect x="1014.00" y="754.00" width="190.00" height="30.00" rx="5.40" stroke="#667085" fill="#F2F4F7" stroke-width="1.0" opacity="1.000"/>
<rect x="1014.00" y="798.00" width="340.00" height="170.00" rx="18.00" stroke="#C11574" fill="#FDF2FA" stroke-width="1.6" opacity="1.000"/>
<rect x="1014.00" y="798.00" width="340.00" height="6.00" rx="1.08" stroke="#C11574" fill="#C11574" stroke-width="0.0" opacity="1.000"/>
<rect x="1032.00" y="816.00" width="52.00" height="52.00" rx="4.16" stroke="#FDF2FA" fill="#FDF2FA" stroke-width="0.0" opacity="1.000"/>
<ellipse cx="1058.00" cy="842.00" rx="16.25" ry="16.25" stroke="#C11574" fill="none" stroke-width="2.1" opacity="1.000"/>
<rect x="54.00" y="1016.00" width="190.00" height="30.00" rx="5.40" stroke="#667085" fill="#F2F4F7" stroke-width="1.0" opacity="1.000"/>
<rect x="54.00" y="1060.00" width="340.00" height="170.00" rx="18.00" stroke="#D92D20" fill="#FEF3F2" stroke-width="2.2" opacity="1.000"/>
<rect x="54.00" y="1060.00" width="340.00" height="6.00" rx="1.08" stroke="#D92D20" fill="#D92D20" stroke-width="0.0" opacity="1.000"/>
<rect x="72.00" y="1078.00" width="52.00" height="52.00" rx="4.16" stroke="#FEF3F2" fill="#FEF3F2" stroke-width="0.0" opacity="1.000"/>
<ellipse cx="98.00" cy="1115.88" rx="1.88" ry="1.88" stroke="#D92D20" fill="#D92D20" stroke-width="2.1" opacity="1.000"/>
<rect x="534.00" y="1016.00" width="190.00" height="30.00" rx="5.40" stroke="#667085" fill="#F2F4F7" stroke-width="1.0" opacity="1.000"/>
<rect x="534.00" y="1060.00" width="340.00" height="170.00" rx="18.00" stroke="#C11574" fill="#FDF2FA" stroke-width="2.2" opacity="1.000"/>
<rect x="534.00" y="1060.00" width="340.00" height="6.00" rx="1.08" stroke="#C11574" fill="#C11574" stroke-width="0.0" opacity="1.000"/>
<rect x="552.00" y="1078.00" width="52.00" height="52.00" rx="4.16" stroke="#FDF2FA" fill="#FDF2FA" stroke-width="0.0" opacity="1.000"/>
<rect x="1014.00" y="1016.00" width="190.00" height="30.00" rx="5.40" stroke="#667085" fill="#F2F4F7" stroke-width="1.0" opacity="1.000"/>
<rect x="1014.00" y="1060.00" width="340.00" height="170.00" rx="18.00" stroke="#15803D" fill="#ECFDF3" stroke-width="1.6" opacity="1.000"/>
<rect x="1014.00" y="1060.00" width="340.00" height="6.00" rx="1.08" stroke="#15803D" fill="#15803D" stroke-width="0.0" opacity="1.000"/>
<rect x="1032.00" y="1078.00" width="52.00" height="52.00" rx="4.16" stroke="#ECFDF3" fill="#ECFDF3" stroke-width="0.0" opacity="1.000"/>
<rect x="54.00" y="1278.00" width="190.00" height="30.00" rx="5.40" stroke="#667085" fill="#F2F4F7" stroke-width="1.0" opacity="1.000"/>
<rect x="54.00" y="1322.00" width="340.00" height="170.00" rx="18.00" stroke="#4F46E5" fill="#EEF2FF" stroke-width="1.6" opacity="1.000"/>
<rect x="54.00" y="1322.00" width="340.00" height="6.00" rx="1.08" stroke="#4F46E5" fill="#4F46E5" stroke-width="0.0" opacity="1.000"/>
<rect x="72.00" y="1340.00" width="52.00" height="52.00" rx="4.16" stroke="#EEF2FF" fill="#EEF2FF" stroke-width="0.0" opacity="1.000"/>
<rect x="80.50" y="1348.50" width="15.00" height="15.00" rx="1.20" stroke="#4F46E5" fill="none" stroke-width="2.1" opacity="1.000"/>
<rect x="100.50" y="1348.50" width="15.00" height="15.00" rx="1.20" stroke="#4F46E5" fill="none" stroke-width="2.1" opacity="1.000"/>
<rect x="80.50" y="1368.50" width="15.00" height="15.00" rx="1.20" stroke="#4F46E5" fill="none" stroke-width="2.1" opacity="1.000"/>
<rect x="100.50" y="1368.50" width="15.00" height="15.00" rx="1.20" stroke="#4F46E5" fill="none" stroke-width="2.1" opacity="1.000"/>
<rect x="534.00" y="1278.00" width="190.00" height="30.00" rx="5.40" stroke="#667085" fill="#F2F4F7" stroke-width="1.0" opacity="1.000"/>
<rect x="534.00" y="1322.00" width="340.00" height="170.00" rx="18.00" stroke="#15803D" fill="#ECFDF3" stroke-width="1.6" opacity="1.000"/>
<rect x="534.00" y="1322.00" width="340.00" height="6.00" rx="1.08" stroke="#15803D" fill="#15803D" stroke-width="0.0" opacity="1.000"/>
<rect x="552.00" y="1340.00" width="52.00" height="52.00" rx="4.16" stroke="#ECFDF3" fill="#ECFDF3" stroke-width="0.0" opacity="1.000"/>
<rect x="564.25" y="1348.50" width="27.50" height="35.00" rx="2.20" stroke="#15803D" fill="none" stroke-width="2.1" opacity="1.000"/>
<polyline points="98.00,310.50 98.00,325.50" stroke="#175CD3" fill="none" stroke-width="2.1" opacity="1.000" stroke-linejoin="round" stroke-linecap="round"/>
<polyline points="88.00,316.75 108.00,316.75" stroke="#175CD3" fill="none" stroke-width="2.1" opacity="1.000" stroke-linejoin="round" stroke-linecap="round"/>
<polyline points="98.00,325.50 89.25,335.50 98.00,325.50 106.75,335.50" stroke="#175CD3" fill="none" stroke-width="2.1" opacity="1.000" stroke-linejoin="round" stroke-linecap="round"/>
<polyline points="575.50,314.25 589.25,314.25" stroke="#4F46E5" fill="none" stroke-width="2.1" opacity="1.000" stroke-linejoin="round" stroke-linecap="round"/>
<polyline points="575.50,324.25 589.25,324.25" stroke="#4F46E5" fill="none" stroke-width="2.1" opacity="1.000" stroke-linejoin="round" stroke-linecap="round"/>
<polyline points="1051.75,311.75 1054.25,308.00 1060.50,308.00 1064.25,311.75 1064.25,315.50 1059.25,319.25 1058.00,323.00" stroke="#D97706" fill="none" stroke-width="2.1" opacity="1.000" stroke-linejoin="round" stroke-linecap="round"/>
<polyline points="197.75,569.75 200.25,566.00 206.50,566.00 210.25,569.75 210.25,573.50 205.25,577.25 204.00,581.00" stroke="#D97706" fill="none" stroke-width="2.1" opacity="1.000" stroke-linejoin="round" stroke-linecap="round"/>
<polyline points="561.75,571.25 589.25,571.25" stroke="#7F56D9" fill="none" stroke-width="2.1" opacity="1.000" stroke-linejoin="round" stroke-linecap="round"/><polygon points="589.25,571.25 572.05,578.99 572.05,563.51" fill="#7F56D9" opacity="1.000"/>
<polyline points="594.25,588.75 566.75,588.75" stroke="#7F56D9" fill="none" stroke-width="2.1" opacity="1.000" stroke-linejoin="round" stroke-linecap="round"/><polygon points="566.75,588.75 583.95,581.01 583.95,596.49" fill="#7F56D9" opacity="1.000"/>
<polyline points="1060.50,561.25 1046.75,581.25 1056.75,581.25 1050.50,598.75 1071.75,575.00 1060.50,575.00 1060.50,561.25" stroke="#0E7490" fill="none" stroke-width="2.4" opacity="1.000" stroke-linejoin="round" stroke-linecap="round"/>
<polyline points="81.75,834.50 81.75,850.75 114.25,850.75 114.25,834.50" stroke="#175CD3" fill="none" stroke-width="2.1" opacity="1.000" stroke-linejoin="round" stroke-linecap="round"/>
<polyline points="559.25,827.00 595.50,827.00" stroke="#4F46E5" fill="none" stroke-width="2.1" opacity="1.000" stroke-linejoin="round" stroke-linecap="round"/><polygon points="595.50,827.00 578.30,834.74 578.30,819.26" fill="#4F46E5" opacity="1.000"/>
<polyline points="1043.00,842.00 1073.00,842.00" stroke="#C11574" fill="none" stroke-width="2.1" opacity="1.000" stroke-linejoin="round" stroke-linecap="round"/>
<polyline points="1058.00,827.00 1050.50,842.00 1058.00,857.00 1065.50,842.00 1058.00,827.00" stroke="#C11574" fill="none" stroke-width="2.1" opacity="1.000" stroke-linejoin="round" stroke-linecap="round"/>
<polyline points="98.00,1086.50 115.50,1120.25 80.50,1120.25 98.00,1086.50" stroke="#D92D20" fill="none" stroke-width="2.1" opacity="1.000" stroke-linejoin="round" stroke-linecap="round"/>
<polyline points="98.00,1096.50 98.00,1109.00" stroke="#D92D20" fill="none" stroke-width="2.8" opacity="1.000" stroke-linejoin="round" stroke-linecap="round"/>
<polyline points="593.00,1094.00 573.00,1094.00 564.25,1104.00 573.00,1114.00 589.25,1114.00" stroke="#C11574" fill="none" stroke-width="2.1" opacity="1.000" stroke-linejoin="round" stroke-linecap="round"/><polygon points="589.25,1114.00 572.05,1121.74 572.05,1106.26" fill="#C11574" opacity="1.000"/>
<polyline points="1043.00,1105.25 1053.00,1115.25 1073.00,1092.75" stroke="#15803D" fill="none" stroke-width="2.8" opacity="1.000" stroke-linejoin="round" stroke-linecap="round"/>
<polyline points="583.00,1348.50 591.75,1357.25 583.00,1357.25 583.00,1348.50" stroke="#15803D" fill="none" stroke-width="2.1" opacity="1.000" stroke-linejoin="round" stroke-linecap="round"/>
<polyline points="569.25,1363.50 586.75,1363.50" stroke="#15803D" fill="none" stroke-width="2.1" opacity="1.000" stroke-linejoin="round" stroke-linecap="round"/>
<polyline points="569.25,1371.00 586.75,1371.00" stroke="#15803D" fill="none" stroke-width="2.1" opacity="1.000" stroke-linejoin="round" stroke-linecap="round"/>
<polyline points="569.25,1378.50 581.75,1378.50" stroke="#15803D" fill="none" stroke-width="2.1" opacity="1.000" stroke-linejoin="round" stroke-linecap="round"/>
<text x="54.00" y="53.88" font-size="13.00" font-family="NanumGothic, Noto Sans CJK KR, Apple SD Gothic Neo, Arial, sans-serif" text-anchor="start" fill="#4F46E5" opacity="1.000"><tspan x="54.00" dy="0.00">IM-CODE-MAP v5.1 · NATIVE EXCALIDRAW COMPONENTS</tspan></text>
<text x="54.00" y="122.00" font-size="40.00" font-family="NanumGothic, Noto Sans CJK KR, Apple SD Gothic Neo, Arial, sans-serif" text-anchor="start" fill="#101828" opacity="1.000"><tspan x="54.00" dy="0.00">im-code-map Architecture Stencil Library</tspan></text>
<text x="54.00" y="165.00" font-size="16.00" font-family="NanumGothic, Noto Sans CJK KR, Apple SD Gothic Neo, Arial, sans-serif" text-anchor="start" fill="#667085" opacity="1.000"><tspan x="54.00" dy="0.00">외부 로고나 이모지 없이, 같은 아이콘·색·카드 규칙으로 흐름을 조립합니다.</tspan></text>
<text x="149.00" y="249.12" font-size="11.00" font-family="NanumGothic, Noto Sans CJK KR, Apple SD Gothic Neo, Arial, sans-serif" text-anchor="middle" fill="#667085" opacity="1.000"><tspan x="149.00" dy="0.00">Actor / 사용자</tspan></text>
<text x="140.00" y="315.38" font-size="17.00" font-family="NanumGothic, Noto Sans CJK KR, Apple SD Gothic Neo, Arial, sans-serif" text-anchor="start" fill="#101828" opacity="1.000"><tspan x="140.00" dy="0.00">사용자</tspan></text>
<text x="72.00" y="356.00" font-size="14.00" font-family="NanumGothic, Noto Sans CJK KR, Apple SD Gothic Neo, Arial, sans-serif" text-anchor="start" fill="#667085" opacity="1.000"><tspan x="72.00" dy="0.00">업무 흐름을 시작하는 사람 또는 역할</tspan></text>
<text x="629.00" y="249.12" font-size="11.00" font-family="NanumGothic, Noto Sans CJK KR, Apple SD Gothic Neo, Arial, sans-serif" text-anchor="middle" fill="#667085" opacity="1.000"><tspan x="629.00" dy="0.00">Service / 서비스</tspan></text>
<text x="620.00" y="315.38" font-size="17.00" font-family="NanumGothic, Noto Sans CJK KR, Apple SD Gothic Neo, Arial, sans-serif" text-anchor="start" fill="#101828" opacity="1.000"><tspan x="620.00" dy="0.00">주문 서비스</tspan></text>
<text x="552.00" y="356.00" font-size="14.00" font-family="NanumGothic, Noto Sans CJK KR, Apple SD Gothic Neo, Arial, sans-serif" text-anchor="start" fill="#667085" opacity="1.000"><tspan x="552.00" dy="0.00">업무 규칙을 실행하고 다른 컴포넌트를 조정</tspan></text>
<text x="1109.00" y="249.12" font-size="11.00" font-family="NanumGothic, Noto Sans CJK KR, Apple SD Gothic Neo, Arial, sans-serif" text-anchor="middle" fill="#667085" opacity="1.000"><tspan x="1109.00" dy="0.00">Decision card / 판단</tspan></text>
<text x="1100.00" y="315.38" font-size="17.00" font-family="NanumGothic, Noto Sans CJK KR, Apple SD Gothic Neo, Arial, sans-serif" text-anchor="start" fill="#101828" opacity="1.000"><tspan x="1100.00" dy="0.00">주문 가능한가?</tspan></text>
<text x="1301.00" y="429.12" font-size="11.00" font-family="NanumGothic, Noto Sans CJK KR, Apple SD Gothic Neo, Arial, sans-serif" text-anchor="middle" fill="#D97706" opacity="1.000"><tspan x="1301.00" dy="0.00">조건</tspan></text>
<text x="1032.00" y="356.00" font-size="14.00" font-family="NanumGothic, Noto Sans CJK KR, Apple SD Gothic Neo, Arial, sans-serif" text-anchor="start" fill="#667085" opacity="1.000"><tspan x="1032.00" dy="0.00">정책과 현재 상태를 기준으로 흐름을 분기</tspan></text>
<text x="149.00" y="511.12" font-size="11.00" font-family="NanumGothic, Noto Sans CJK KR, Apple SD Gothic Neo, Arial, sans-serif" text-anchor="middle" fill="#667085" opacity="1.000"><tspan x="149.00" dy="0.00">Decision diamond / 상세…</tspan></text>
<text x="204.00" y="643.25" font-size="15.00" font-family="NanumGothic, Noto Sans CJK KR, Apple SD Gothic Neo, Arial, sans-serif" text-anchor="middle" fill="#101828" opacity="1.000"><tspan x="204.00" dy="0.00">승인됐는가?</tspan><tspan x="204.00" dy="18.75">Atlas의 명시적 조건 분기</tspan></text>
<text x="629.00" y="511.12" font-size="11.00" font-family="NanumGothic, Noto Sans CJK KR, Apple SD Gothic Neo, Arial, sans-serif" text-anchor="middle" fill="#667085" opacity="1.000"><tspan x="629.00" dy="0.00">State transition / 상태…</tspan></text>
<text x="620.00" y="577.38" font-size="17.00" font-family="NanumGothic, Noto Sans CJK KR, Apple SD Gothic Neo, Arial, sans-serif" text-anchor="start" fill="#101828" opacity="1.000"><tspan x="620.00" dy="0.00">주문 상태 변경</tspan></text>
<text x="552.00" y="618.00" font-size="14.00" font-family="NanumGothic, Noto Sans CJK KR, Apple SD Gothic Neo, Arial, sans-serif" text-anchor="start" fill="#667085" opacity="1.000"><tspan x="552.00" dy="0.00">업무 엔티티의 전후 상태</tspan><tspan x="552.00" dy="17.50">PENDING → PAID</tspan></text>
<text x="1109.00" y="511.12" font-size="11.00" font-family="NanumGothic, Noto Sans CJK KR, Apple SD Gothic Neo, Arial, sans-serif" text-anchor="middle" fill="#667085" opacity="1.000"><tspan x="1109.00" dy="0.00">Event / 비동기 이벤트</tspan></text>
<text x="1100.00" y="577.38" font-size="17.00" font-family="NanumGothic, Noto Sans CJK KR, Apple SD Gothic Neo, Arial, sans-serif" text-anchor="start" fill="#101828" opacity="1.000"><tspan x="1100.00" dy="0.00">order.placed</tspan></text>
<text x="1032.00" y="618.00" font-size="14.00" font-family="NanumGothic, Noto Sans CJK KR, Apple SD Gothic Neo, Arial, sans-serif" text-anchor="start" fill="#667085" opacity="1.000"><tspan x="1032.00" dy="0.00">커밋 이후 후속 처리를 깨우는 이벤트</tspan></text>
<text x="149.00" y="773.12" font-size="11.00" font-family="NanumGothic, Noto Sans CJK KR, Apple SD Gothic Neo, Arial, sans-serif" text-anchor="middle" fill="#667085" opacity="1.000"><tspan x="149.00" dy="0.00">Database / 저장소</tspan></text>
<text x="140.00" y="839.38" font-size="17.00" font-family="NanumGothic, Noto Sans CJK KR, Apple SD Gothic Neo, Arial, sans-serif" text-anchor="start" fill="#101828" opacity="1.000"><tspan x="140.00" dy="0.00">주문 저장소</tspan></text>
<text x="72.00" y="880.00" font-size="14.00" font-family="NanumGothic, Noto Sans CJK KR, Apple SD Gothic Neo, Arial, sans-serif" text-anchor="start" fill="#667085" opacity="1.000"><tspan x="72.00" dy="0.00">상태와 이력을 영속적으로 저장</tspan></text>
<text x="629.00" y="773.12" font-size="11.00" font-family="NanumGothic, Noto Sans CJK KR, Apple SD Gothic Neo, Arial, sans-serif" text-anchor="middle" fill="#667085" opacity="1.000"><tspan x="629.00" dy="0.00">Queue / 메시지 큐</tspan></text>
<text x="620.00" y="839.38" font-size="17.00" font-family="NanumGothic, Noto Sans CJK KR, Apple SD Gothic Neo, Arial, sans-serif" text-anchor="start" fill="#101828" opacity="1.000"><tspan x="620.00" dy="0.00">이벤트 큐</tspan></text>
<text x="552.00" y="880.00" font-size="14.00" font-family="NanumGothic, Noto Sans CJK KR, Apple SD Gothic Neo, Arial, sans-serif" text-anchor="start" fill="#667085" opacity="1.000"><tspan x="552.00" dy="0.00">생산자와 소비자의 비동기 경계</tspan></text>
<text x="1109.00" y="773.12" font-size="11.00" font-family="NanumGothic, Noto Sans CJK KR, Apple SD Gothic Neo, Arial, sans-serif" text-anchor="middle" fill="#667085" opacity="1.000"><tspan x="1109.00" dy="0.00">External system / 외부…</tspan></text>
<text x="1100.00" y="839.38" font-size="17.00" font-family="NanumGothic, Noto Sans CJK KR, Apple SD Gothic Neo, Arial, sans-serif" text-anchor="start" fill="#101828" opacity="1.000"><tspan x="1100.00" dy="0.00">결제 게이트웨이</tspan></text>
<text x="1032.00" y="880.00" font-size="14.00" font-family="NanumGothic, Noto Sans CJK KR, Apple SD Gothic Neo, Arial, sans-serif" text-anchor="start" fill="#667085" opacity="1.000"><tspan x="1032.00" dy="0.00">네트워크·timeout·재시도 경계</tspan></text>
<text x="149.00" y="1035.12" font-size="11.00" font-family="NanumGothic, Noto Sans CJK KR, Apple SD Gothic Neo, Arial, sans-serif" text-anchor="middle" fill="#667085" opacity="1.000"><tspan x="149.00" dy="0.00">Risk / 미확인 경계</tspan></text>
<text x="140.00" y="1101.38" font-size="17.00" font-family="NanumGothic, Noto Sans CJK KR, Apple SD Gothic Neo, Arial, sans-serif" text-anchor="start" fill="#101828" opacity="1.000"><tspan x="140.00" dy="0.00">확인이 필요한 것</tspan></text>
<text x="72.00" y="1142.00" font-size="14.00" font-family="NanumGothic, Noto Sans CJK KR, Apple SD Gothic Neo, Arial, sans-serif" text-anchor="start" fill="#667085" opacity="1.000"><tspan x="72.00" dy="0.00">현재 설명 또는 안전한 변경을 막는 모름</tspan></text>
<text x="629.00" y="1035.12" font-size="11.00" font-family="NanumGothic, Noto Sans CJK KR, Apple SD Gothic Neo, Arial, sans-serif" text-anchor="middle" fill="#667085" opacity="1.000"><tspan x="629.00" dy="0.00">Compensation / 보상</tspan></text>
<text x="620.00" y="1101.38" font-size="17.00" font-family="NanumGothic, Noto Sans CJK KR, Apple SD Gothic Neo, Arial, sans-serif" text-anchor="start" fill="#101828" opacity="1.000"><tspan x="620.00" dy="0.00">재고 해제</tspan></text>
<text x="552.00" y="1142.00" font-size="14.00" font-family="NanumGothic, Noto Sans CJK KR, Apple SD Gothic Neo, Arial, sans-serif" text-anchor="start" fill="#667085" opacity="1.000"><tspan x="552.00" dy="0.00">부분 성공을 되돌려 일관성을 복원</tspan></text>
<text x="1109.00" y="1035.12" font-size="11.00" font-family="NanumGothic, Noto Sans CJK KR, Apple SD Gothic Neo, Arial, sans-serif" text-anchor="middle" fill="#667085" opacity="1.000"><tspan x="1109.00" dy="0.00">Outcome / 종료 결과</tspan></text>
<text x="1100.00" y="1101.38" font-size="17.00" font-family="NanumGothic, Noto Sans CJK KR, Apple SD Gothic Neo, Arial, sans-serif" text-anchor="start" fill="#101828" opacity="1.000"><tspan x="1100.00" dy="0.00">주문 완료</tspan></text>
<text x="1032.00" y="1142.00" font-size="14.00" font-family="NanumGothic, Noto Sans CJK KR, Apple SD Gothic Neo, Arial, sans-serif" text-anchor="start" fill="#667085" opacity="1.000"><tspan x="1032.00" dy="0.00">사용자에게 관찰되는 최종 결과</tspan></text>
<text x="149.00" y="1297.12" font-size="11.00" font-family="NanumGothic, Noto Sans CJK KR, Apple SD Gothic Neo, Arial, sans-serif" text-anchor="middle" fill="#667085" opacity="1.000"><tspan x="149.00" dy="0.00">Domain / 도메인</tspan></text>
<text x="140.00" y="1363.38" font-size="17.00" font-family="NanumGothic, Noto Sans CJK KR, Apple SD Gothic Neo, Arial, sans-serif" text-anchor="start" fill="#101828" opacity="1.000"><tspan x="140.00" dy="0.00">Ordering</tspan></text>
<text x="72.00" y="1404.00" font-size="14.00" font-family="NanumGothic, Noto Sans CJK KR, Apple SD Gothic Neo, Arial, sans-serif" text-anchor="start" fill="#667085" opacity="1.000"><tspan x="72.00" dy="0.00">명확한 책임과 계약을 가진 업무 경계</tspan></text>
<text x="629.00" y="1297.12" font-size="11.00" font-family="NanumGothic, Noto Sans CJK KR, Apple SD Gothic Neo, Arial, sans-serif" text-anchor="middle" fill="#667085" opacity="1.000"><tspan x="629.00" dy="0.00">Deep Atlas link /…</tspan></text>
<text x="620.00" y="1363.38" font-size="17.00" font-family="NanumGothic, Noto Sans CJK KR, Apple SD Gothic Neo, Arial, sans-serif" text-anchor="start" fill="#101828" opacity="1.000"><tspan x="620.00" dy="0.00">Deep Atlas 열기</tspan></text>
<text x="552.00" y="1404.00" font-size="14.00" font-family="NanumGothic, Noto Sans CJK KR, Apple SD Gothic Neo, Arial, sans-serif" text-anchor="start" fill="#667085" opacity="1.000"><tspan x="552.00" dy="0.00">상태·오류·보상·코드 근거로 확장</tspan></text>
</svg>