<svg xmlns="http://www.w3.org/2000/svg" width="1554" height="844" viewBox="0 0 1554 844"><defs><filter id="card" x="-20%" y="-20%" width="140%" height="140%"><feDropShadow dx="0" dy="2" stdDeviation="2" flood-color="#101828" flood-opacity="0.05"/></filter><marker id="arrow" markerWidth="8" markerHeight="8" refX="7" refY="4" orient="auto"><path d="M0,0 L8,4 L0,8" fill="none" stroke="#9aa4b2" stroke-width="1.2"/></marker></defs><rect width="100%" height="100%" fill="#fcfcfb"/><text x="80" y="70" font-family="'Noto Sans CJK KR', 'NanumGothic', 'NanumBarunGothic', 'Apple SD Gothic Neo', 'Malgun Gothic', 'Arial Unicode MS', 'DejaVu Sans', sans-serif" font-size="27" font-weight="600" fill="#1f2937">Agent Operations</text><text x="80" y="108" font-family="'Noto Sans CJK KR', 'NanumGothic', 'NanumBarunGothic', 'Apple SD Gothic Neo', 'Malgun Gothic', 'Arial Unicode MS', 'DejaVu Sans', sans-serif" font-size="14" fill="#667085">배정된 Task가 실제 Agent 실행을 거쳐 완료되기까지 어떻게 이어지는가?</text><rect x="80" y="170" width="260" height="386" rx="18" fill="#f7f8fa" stroke="#e5e7eb"/><text x="98" y="201" font-family="'Noto Sans CJK KR', 'NanumGothic', 'NanumBarunGothic', 'Apple SD Gothic Neo', 'Malgun Gothic', 'Arial Unicode MS', 'DejaVu Sans', sans-serif" font-size="12" font-weight="600" fill="#667085">시작·입력</text><rect x="458" y="170" width="260" height="480" rx="18" fill="#f7f8fa" stroke="#e5e7eb"/><text x="476" y="201" font-family="'Noto Sans CJK KR', 'NanumGothic', 'NanumBarunGothic', 'Apple SD Gothic Neo', 'Malgun Gothic', 'Arial Unicode MS', 'DejaVu Sans', sans-serif" font-size="12" font-weight="600" fill="#667085">준비·대기</text><rect x="836" y="170" width="260" height="530" rx="18" fill="#f7f8fa" stroke="#e5e7eb"/><text x="854" y="201" font-family="'Noto Sans CJK KR', 'NanumGothic', 'NanumBarunGothic', 'Apple SD Gothic Neo', 'Malgun Gothic', 'Arial Unicode MS', 'DejaVu Sans', sans-serif" font-size="12" font-weight="600" fill="#667085">핵심 처리</text><rect x="1214" y="170" width="260" height="336" rx="18" fill="#f7f8fa" stroke="#e5e7eb"/><text x="1232" y="201" font-family="'Noto Sans CJK KR', 'NanumGothic', 'NanumBarunGothic', 'Apple SD Gothic Neo', 'Malgun Gothic', 'Arial Unicode MS', 'DejaVu Sans', sans-serif" font-size="12" font-weight="600" fill="#667085">결과·복구</text><path d="M 210.0 294.0 L 210.0 299.5 Q 210.0 305.0 210.0 305.0 L 210.0 305.0 Q 210.0 305.0 210.0 310.5 L 210.0 316.0" fill="none" stroke="#7c3aed" stroke-width="1.45" stroke-linecap="round" stroke-linejoin="round" marker-end="url(#arrow)"/><path d="M 210.0 388.0 L 210.0 393.5 Q 210.0 399.0 210.0 399.0 L 210.0 399.0 Q 210.0 399.0 210.0 404.5 L 210.0 410.0" fill="none" stroke="#7c3aed" stroke-width="1.45" stroke-linecap="round" stroke-linejoin="round" marker-end="url(#arrow)"/><path d="M 320.0 471.0 L 389.0 471.0 Q 399.0 471.0 399.0 461.0 L 399.0 268.0 Q 399.0 258.0 409.0 258.0 L 478.0 258.0" fill="none" stroke="#7c3aed" stroke-width="1.45" stroke-linecap="round" stroke-linejoin="round" marker-end="url(#arrow)"/><rect x="378.0" y="353.5" width="42" height="22" rx="11" fill="#fcfcfb" stroke="#eef0f3"/><text x="399.0" y="368.5" text-anchor="middle" font-family="'Noto Sans CJK KR', 'NanumGothic', 'NanumBarunGothic', 'Apple SD Gothic Neo', 'Malgun Gothic', 'Arial Unicode MS', 'DejaVu Sans', sans-serif" font-size="11" fill="#7c3aed">통과</text><path d="M 588.0 294.0 L 588.0 299.5 Q 588.0 305.0 588.0 305.0 L 588.0 305.0 Q 588.0 305.0 588.0 310.5 L 588.0 316.0" fill="none" stroke="#7c3aed" stroke-width="1.45" stroke-linecap="round" stroke-linejoin="round" marker-end="url(#arrow)"/><path d="M 588.0 413.0 L 588.0 418.5 Q 588.0 424.0 588.0 424.0 L 588.0 424.0 Q 588.0 424.0 588.0 429.5 L 588.0 435.0" fill="none" stroke="#7c3aed" stroke-width="1.45" stroke-linecap="round" stroke-linejoin="round" marker-end="url(#arrow)"/><path d="M 698.0 577.5 L 767.0 577.5 Q 777.0 577.5 777.0 567.5 L 777.0 268.0 Q 777.0 258.0 787.0 258.0 L 856.0 258.0" fill="none" stroke="#7c3aed" stroke-width="1.45" stroke-linecap="round" stroke-linejoin="round" marker-end="url(#arrow)"/><path d="M 966.0 294.0 L 966.0 299.5 Q 966.0 305.0 966.0 305.0 L 966.0 305.0 Q 966.0 305.0 966.0 310.5 L 966.0 316.0" fill="none" stroke="#7c3aed" stroke-width="1.45" stroke-linecap="round" stroke-linejoin="round" marker-end="url(#arrow)"/><path d="M 966.0 413.0 L 966.0 418.5 Q 966.0 424.0 966.0 424.0 L 966.0 424.0 Q 966.0 424.0 966.0 429.5 L 966.0 435.0" fill="none" stroke="#7c3aed" stroke-width="1.45" stroke-linecap="round" stroke-linejoin="round" marker-end="url(#arrow)"/><rect x="945.0" y="407.5" width="42" height="22" rx="11" fill="#fcfcfb" stroke="#eef0f3"/><text x="966.0" y="422.5" text-anchor="middle" font-family="'Noto Sans CJK KR', 'NanumGothic', 'NanumBarunGothic', 'Apple SD Gothic Neo', 'Malgun Gothic', 'Arial Unicode MS', 'DejaVu Sans', sans-serif" font-size="11" fill="#7c3aed">통과</text><path d="M 966.0 557.0 L 966.0 562.5 Q 966.0 568.0 966.0 568.0 L 966.0 568.0 Q 966.0 568.0 966.0 573.5 L 966.0 579.0" fill="none" stroke="#7c3aed" stroke-width="1.45" stroke-linecap="round" stroke-linejoin="round" marker-end="url(#arrow)"/><path d="M 1076.0 627.5 L 1145.0 627.5 Q 1155.0 627.5 1155.0 617.5 L 1155.0 268.0 Q 1155.0 258.0 1165.0 258.0 L 1234.0 258.0" fill="none" stroke="#7c3aed" stroke-width="1.45" stroke-linecap="round" stroke-linejoin="round" marker-end="url(#arrow)"/><path d="M 1344.0 294.0 L 1344.0 299.5 Q 1344.0 305.0 1344.0 305.0 L 1344.0 305.0 Q 1344.0 305.0 1344.0 310.5 L 1344.0 316.0" fill="none" stroke="#7c3aed" stroke-width="1.45" stroke-linecap="round" stroke-linejoin="round" marker-end="url(#arrow)"/><rect x="1323.0" y="288.5" width="42" height="22" rx="11" fill="#fcfcfb" stroke="#eef0f3"/><text x="1344.0" y="303.5" text-anchor="middle" font-family="'Noto Sans CJK KR', 'NanumGothic', 'NanumBarunGothic', 'Apple SD Gothic Neo', 'Malgun Gothic', 'Arial Unicode MS', 'DejaVu Sans', sans-serif" font-size="11" fill="#7c3aed">명확</text><path d="M 588.0 507.0 L 588.0 512.5 Q 588.0 518.0 588.0 518.0 L 588.0 518.0 Q 588.0 518.0 588.0 523.5 L 588.0 529.0" fill="none" stroke="#059669" stroke-width="1.4" stroke-linecap="round" stroke-linejoin="round" marker-end="url(#arrow)"/><rect x="563.5" y="501.5" width="49.0" height="22" rx="11" fill="#fcfcfb" stroke="#eef0f3"/><text x="588.0" y="516.5" text-anchor="middle" font-family="'Noto Sans CJK KR', 'NanumGothic', 'NanumBarunGothic', 'Apple SD Gothic Neo', 'Malgun Gothic', 'Arial Unicode MS', 'DejaVu Sans', sans-serif" font-size="11" fill="#059669">ready</text><path d="M 320.0 471.0 L 767.0 471.0 Q 777.0 471.0 777.0 461.0 L 777.0 456.0 Q 777.0 446.0 787.0 446.0 L 1234.0 446.0" fill="none" stroke="#dc2626" stroke-width="1.45" stroke-linecap="round" stroke-linejoin="round" marker-end="url(#arrow)" stroke-dasharray="6 5"/><rect x="527.5" y="460.0" width="42" height="22" rx="11" fill="#fcfcfb" stroke="#eef0f3"/><text x="548.5" y="475.0" text-anchor="middle" font-family="'Noto Sans CJK KR', 'NanumGothic', 'NanumBarunGothic', 'Apple SD Gothic Neo', 'Malgun Gothic', 'Arial Unicode MS', 'DejaVu Sans', sans-serif" font-size="11" fill="#dc2626">거절</text><path d="M 698.0 471.0 L 956.0 471.0 Q 966.0 471.0 966.0 461.0 L 966.0 456.0 Q 966.0 446.0 976.0 446.0 L 1234.0 446.0" fill="none" stroke="#dc2626" stroke-width="1.45" stroke-linecap="round" stroke-linejoin="round" marker-end="url(#arrow)" stroke-dasharray="6 5"/><rect x="800.3" y="460.0" width="63.4" height="22" rx="11" fill="#fcfcfb" stroke="#eef0f3"/><text x="832.0" y="475.0" text-anchor="middle" font-family="'Noto Sans CJK KR', 'NanumGothic', 'NanumBarunGothic', 'Apple SD Gothic Neo', 'Malgun Gothic', 'Arial Unicode MS', 'DejaVu Sans', sans-serif" font-size="11" fill="#dc2626">blocked</text><path d="M 1076.0 364.5 L 1152.0 364.5 Q 1162.0 364.5 1162.0 374.5 L 1162.0 436.0 Q 1162.0 446.0 1172.0 446.0 L 1234.0 446.0" fill="none" stroke="#dc2626" stroke-width="1.45" stroke-linecap="round" stroke-linejoin="round" marker-end="url(#arrow)" stroke-dasharray="6 5"/><rect x="1094.5" y="353.5" width="49.0" height="22" rx="11" fill="#fcfcfb" stroke="#eef0f3"/><text x="1119.0" y="368.5" text-anchor="middle" font-family="'Noto Sans CJK KR', 'NanumGothic', 'NanumBarunGothic', 'Apple SD Gothic Neo', 'Malgun Gothic', 'Arial Unicode MS', 'DejaVu Sans', sans-serif" font-size="11" fill="#dc2626">설정 필요</text><path d="M 1344.0 294.0 L 1344.0 342.0 Q 1344.0 352.0 1344.0 352.0 L 1344.0 352.0 Q 1344.0 352.0 1344.0 362.0 L 1344.0 410.0" fill="none" stroke="#dc2626" stroke-width="1.45" stroke-linecap="round" stroke-linejoin="round" marker-end="url(#arrow)" stroke-dasharray="6 5"/><rect x="1323.0" y="312.0" width="42" height="22" rx="11" fill="#fcfcfb" stroke="#eef0f3"/><text x="1344.0" y="327.0" text-anchor="middle" font-family="'Noto Sans CJK KR', 'NanumGothic', 'NanumBarunGothic', 'Apple SD Gothic Neo', 'Malgun Gothic', 'Arial Unicode MS', 'DejaVu Sans', sans-serif" font-size="11" fill="#dc2626">미정</text><path d="M 1344.0 482.0 L 1344.0 745.0 Q 1344.0 755.0 1334.0 755.0 L 598.0 755.0 Q 588.0 755.0 588.0 745.0 L 588.0 294.0" fill="none" stroke="#b45309" stroke-width="1.45" stroke-linecap="round" stroke-linejoin="round" marker-end="url(#arrow)" stroke-dasharray="6 5"/><rect x="934.3" y="744.0" width="63.4" height="22" rx="11" fill="#fcfcfb" stroke="#eef0f3"/><text x="966.0" y="759.0" text-anchor="middle" font-family="'Noto Sans CJK KR', 'NanumGothic', 'NanumBarunGothic', 'Apple SD Gothic Neo', 'Malgun Gothic', 'Arial Unicode MS', 'DejaVu Sans', sans-serif" font-size="11" fill="#b45309">복구 후 재개</text><g filter="url(#card)"><rect x="100" y="222" width="220" height="72" rx="14" fill="#ffffff" stroke="#d8dee7" stroke-width="1.15"/><rect x="100" y="232" width="4" height="52" rx="2" fill="#64748b"/></g><rect x="114" y="236" width="28" height="28" rx="9" fill="#f1f5f9"/><circle cx="128" cy="250" r="5" fill="none" stroke="#64748b" stroke-width="1.5"/><text x="152" y="251" font-family="'Noto Sans CJK KR', 'NanumGothic', 'NanumBarunGothic', 'Apple SD Gothic Neo', 'Malgun Gothic', 'Arial Unicode MS', 'DejaVu Sans', sans-serif" font-size="16" font-weight="600" fill="#1f2937">업무 요청</text><text x="152" y="272" font-family="'Noto Sans CJK KR', 'NanumGothic', 'NanumBarunGothic', 'Apple SD Gothic Neo', 'Malgun Gothic', 'Arial Unicode MS', 'DejaVu Sans', sans-serif" font-size="11" fill="#667085">Board · API · Routine</text><circle cx="102" cy="224" r="10" fill="#fcfcfb" stroke="#64748b" stroke-width="1.2"/><text x="102" y="228" text-anchor="middle" font-family="'Noto Sans CJK KR', 'NanumGothic', 'NanumBarunGothic', 'Apple SD Gothic Neo', 'Malgun Gothic', 'Arial Unicode MS', 'DejaVu Sans', sans-serif" font-size="10" font-weight="600" fill="#64748b">1</text><g filter="url(#card)"><rect x="100" y="316" width="220" height="72" rx="14" fill="#ffffff" stroke="#d8dee7" stroke-width="1.15"/><rect x="100" y="326" width="4" height="52" rx="2" fill="#3b82f6"/></g><rect x="114" y="330" width="28" height="28" rx="9" fill="#eff6ff"/><circle cx="128" cy="344" r="5" fill="none" stroke="#3b82f6" stroke-width="1.5"/><text x="152" y="345" font-family="'Noto Sans CJK KR', 'NanumGothic', 'NanumBarunGothic', 'Apple SD Gothic Neo', 'Malgun Gothic', 'Arial Unicode MS', 'DejaVu Sans', sans-serif" font-size="16" font-weight="600" fill="#1f2937">Task 생성·배정</text><text x="152" y="366" font-family="'Noto Sans CJK KR', 'NanumGothic', 'NanumBarunGothic', 'Apple SD Gothic Neo', 'Malgun Gothic', 'Arial Unicode MS', 'DejaVu Sans', sans-serif" font-size="11" fill="#667085">목적과 담당 Agent 연결</text><circle cx="102" cy="318" r="10" fill="#fcfcfb" stroke="#3b82f6" stroke-width="1.2"/><text x="102" y="322" text-anchor="middle" font-family="'Noto Sans CJK KR', 'NanumGothic', 'NanumBarunGothic', 'Apple SD Gothic Neo', 'Malgun Gothic', 'Arial Unicode MS', 'DejaVu Sans', sans-serif" font-size="10" font-weight="600" fill="#3b82f6">2</text><g filter="url(#card)"><rect x="100" y="410" width="220" height="122" rx="14" fill="#ffffff" stroke="#d8dee7" stroke-width="1.15"/><rect x="100" y="420" width="4" height="102" rx="2" fill="#7c3aed"/></g><rect x="114" y="424" width="28" height="28" rx="9" fill="#f5f3ff"/><circle cx="128" cy="438" r="5" fill="none" stroke="#7c3aed" stroke-width="1.5"/><text x="152" y="439" font-family="'Noto Sans CJK KR', 'NanumGothic', 'NanumBarunGothic', 'Apple SD Gothic Neo', 'Malgun Gothic', 'Arial Unicode MS', 'DejaVu Sans', sans-serif" font-size="16" font-weight="600" fill="#1f2937">실행 가능한가?</text><text x="152" y="460" font-family="'Noto Sans CJK KR', 'NanumGothic', 'NanumBarunGothic', 'Apple SD Gothic Neo', 'Malgun Gothic', 'Arial Unicode MS', 'DejaVu Sans', sans-serif" font-size="11" fill="#667085">권한·예산·일시정지</text><circle cx="102" cy="412" r="10" fill="#fcfcfb" stroke="#7c3aed" stroke-width="1.2"/><text x="102" y="416" text-anchor="middle" font-family="'Noto Sans CJK KR', 'NanumGothic', 'NanumBarunGothic', 'Apple SD Gothic Neo', 'Malgun Gothic', 'Arial Unicode MS', 'DejaVu Sans', sans-serif" font-size="10" font-weight="600" fill="#7c3aed">3</text><rect x="114" y="472" width="66" height="19" rx="9.5" fill="#f9fafb" stroke="#e7eaf0"/><circle cx="123.5" cy="481.5" r="2.5" fill="#7c3aed"/><text x="130" y="485" font-family="'Noto Sans CJK KR', 'NanumGothic', 'NanumBarunGothic', 'Apple SD Gothic Neo', 'Malgun Gothic', 'Arial Unicode MS', 'DejaVu Sans', sans-serif" font-size="9" fill="#667085">회사 범위</text><rect x="188" y="472" width="66" height="19" rx="9.5" fill="#f9fafb" stroke="#e7eaf0"/><circle cx="197.5" cy="481.5" r="2.5" fill="#7c3aed"/><text x="204" y="485" font-family="'Noto Sans CJK KR', 'NanumGothic', 'NanumBarunGothic', 'Apple SD Gothic Neo', 'Malgun Gothic', 'Arial Unicode MS', 'DejaVu Sans', sans-serif" font-size="9" fill="#667085">예산 한도</text><rect x="114" y="497" width="70.0" height="19" rx="9.5" fill="#f9fafb" stroke="#e7eaf0"/><circle cx="123.5" cy="506.5" r="2.5" fill="#7c3aed"/><text x="130" y="510" font-family="'Noto Sans CJK KR', 'NanumGothic', 'NanumBarunGothic', 'Apple SD Gothic Neo', 'Malgun Gothic', 'Arial Unicode MS', 'DejaVu Sans', sans-serif" font-size="9" fill="#667085">Agent 상태</text><g filter="url(#card)"><rect x="478" y="222" width="220" height="72" rx="14" fill="#ffffff" stroke="#d8dee7" stroke-width="1.15"/><rect x="478" y="232" width="4" height="52" rx="2" fill="#64748b"/></g><rect x="492" y="236" width="28" height="28" rx="9" fill="#f1f5f9"/><circle cx="506" cy="250" r="5" fill="none" stroke="#64748b" stroke-width="1.5"/><text x="530" y="251" font-family="'Noto Sans CJK KR', 'NanumGothic', 'NanumBarunGothic', 'Apple SD Gothic Neo', 'Malgun Gothic', 'Arial Unicode MS', 'DejaVu Sans', sans-serif" font-size="16" font-weight="600" fill="#1f2937">Wake 요청</text><text x="530" y="272" font-family="'Noto Sans CJK KR', 'NanumGothic', 'NanumBarunGothic', 'Apple SD Gothic Neo', 'Malgun Gothic', 'Arial Unicode MS', 'DejaVu Sans', sans-serif" font-size="11" fill="#667085">중복 요청 병합</text><circle cx="480" cy="224" r="10" fill="#fcfcfb" stroke="#64748b" stroke-width="1.2"/><text x="480" y="228" text-anchor="middle" font-family="'Noto Sans CJK KR', 'NanumGothic', 'NanumBarunGothic', 'Apple SD Gothic Neo', 'Malgun Gothic', 'Arial Unicode MS', 'DejaVu Sans', sans-serif" font-size="10" font-weight="600" fill="#64748b">4</text><g filter="url(#card)"><rect x="478" y="316" width="220" height="97" rx="14" fill="#ffffff" stroke="#d8dee7" stroke-width="1.15"/><rect x="478" y="326" width="4" height="77" rx="2" fill="#2563eb"/></g><rect x="492" y="330" width="28" height="28" rx="9" fill="#eff6ff"/><circle cx="506" cy="344" r="5" fill="none" stroke="#2563eb" stroke-width="1.5"/><text x="530" y="345" font-family="'Noto Sans CJK KR', 'NanumGothic', 'NanumBarunGothic', 'Apple SD Gothic Neo', 'Malgun Gothic', 'Arial Unicode MS', 'DejaVu Sans', sans-serif" font-size="16" font-weight="600" fill="#1f2937">Heartbeat Queue</text><text x="530" y="366" font-family="'Noto Sans CJK KR', 'NanumGothic', 'NanumBarunGothic', 'Apple SD Gothic Neo', 'Malgun Gothic', 'Arial Unicode MS', 'DejaVu Sans', sans-serif" font-size="11" fill="#667085">DB-backed 실행 대기열</text><circle cx="480" cy="318" r="10" fill="#fcfcfb" stroke="#2563eb" stroke-width="1.2"/><text x="480" y="322" text-anchor="middle" font-family="'Noto Sans CJK KR', 'NanumGothic', 'NanumBarunGothic', 'Apple SD Gothic Neo', 'Malgun Gothic', 'Arial Unicode MS', 'DejaVu Sans', sans-serif" font-size="10" font-weight="600" fill="#2563eb">5</text><rect x="492" y="378" width="70.0" height="19" rx="9.5" fill="#f9fafb" stroke="#e7eaf0"/><circle cx="501.5" cy="387.5" r="2.5" fill="#2563eb"/><text x="508" y="391" font-family="'Noto Sans CJK KR', 'NanumGothic', 'NanumBarunGothic', 'Apple SD Gothic Neo', 'Malgun Gothic', 'Arial Unicode MS', 'DejaVu Sans', sans-serif" font-size="9" fill="#667085">Postgres</text><g filter="url(#card)"><rect x="478" y="435" width="220" height="72" rx="14" fill="#ffffff" stroke="#d8dee7" stroke-width="1.15"/><rect x="478" y="445" width="4" height="52" rx="2" fill="#64748b"/></g><rect x="492" y="449" width="28" height="28" rx="9" fill="#f1f5f9"/><circle cx="506" cy="463" r="5" fill="none" stroke="#64748b" stroke-width="1.5"/><text x="530" y="464" font-family="'Noto Sans CJK KR', 'NanumGothic', 'NanumBarunGothic', 'Apple SD Gothic Neo', 'Malgun Gothic', 'Arial Unicode MS', 'DejaVu Sans', sans-serif" font-size="16" font-weight="600" fill="#1f2937">지금 시작할 수 있나?</text><text x="530" y="485" font-family="'Noto Sans CJK KR', 'NanumGothic', 'NanumBarunGothic', 'Apple SD Gothic Neo', 'Malgun Gothic', 'Arial Unicode MS', 'DejaVu Sans', sans-serif" font-size="11" fill="#667085">의존성·동시성·소유권</text><circle cx="480" cy="437" r="10" fill="#fcfcfb" stroke="#64748b" stroke-width="1.2"/><text x="480" y="441" text-anchor="middle" font-family="'Noto Sans CJK KR', 'NanumGothic', 'NanumBarunGothic', 'Apple SD Gothic Neo', 'Malgun Gothic', 'Arial Unicode MS', 'DejaVu Sans', sans-serif" font-size="10" font-weight="600" fill="#64748b">6</text><g filter="url(#card)"><rect x="478" y="529" width="220" height="97" rx="14" fill="#ffffff" stroke="#d8dee7" stroke-width="1.15"/><rect x="478" y="539" width="4" height="77" rx="2" fill="#3b82f6"/></g><rect x="492" y="543" width="28" height="28" rx="9" fill="#eff6ff"/><circle cx="506" cy="557" r="5" fill="none" stroke="#3b82f6" stroke-width="1.5"/><text x="530" y="558" font-family="'Noto Sans CJK KR', 'NanumGothic', 'NanumBarunGothic', 'Apple SD Gothic Neo', 'Malgun Gothic', 'Arial Unicode MS', 'DejaVu Sans', sans-serif" font-size="16" font-weight="600" fill="#1f2937">Run Claim</text><text x="530" y="579" font-family="'Noto Sans CJK KR', 'NanumGothic', 'NanumBarunGothic', 'Apple SD Gothic Neo', 'Malgun Gothic', 'Arial Unicode MS', 'DejaVu Sans', sans-serif" font-size="11" fill="#667085">실행 Lock 설정</text><circle cx="480" cy="531" r="10" fill="#fcfcfb" stroke="#3b82f6" stroke-width="1.2"/><text x="480" y="535" text-anchor="middle" font-family="'Noto Sans CJK KR', 'NanumGothic', 'NanumBarunGothic', 'Apple SD Gothic Neo', 'Malgun Gothic', 'Arial Unicode MS', 'DejaVu Sans', sans-serif" font-size="10" font-weight="600" fill="#3b82f6">7</text><rect x="492" y="591" width="94" height="19" rx="9.5" fill="#f9fafb" stroke="#e7eaf0"/><circle cx="501.5" cy="600.5" r="2.5" fill="#3b82f6"/><text x="508" y="604" font-family="'Noto Sans CJK KR', 'NanumGothic', 'NanumBarunGothic', 'Apple SD Gothic Neo', 'Malgun Gothic', 'Arial Unicode MS', 'DejaVu Sans', sans-serif" font-size="9" fill="#667085">queued → run…</text><g filter="url(#card)"><rect x="856" y="222" width="220" height="72" rx="14" fill="#ffffff" stroke="#d8dee7" stroke-width="1.15"/><rect x="856" y="232" width="4" height="52" rx="2" fill="#7c3aed"/></g><rect x="870" y="236" width="28" height="28" rx="9" fill="#f5f3ff"/><circle cx="884" cy="250" r="5" fill="none" stroke="#7c3aed" stroke-width="1.5"/><text x="908" y="251" font-family="'Noto Sans CJK KR', 'NanumGothic', 'NanumBarunGothic', 'Apple SD Gothic Neo', 'Malgun Gothic', 'Arial Unicode MS', 'DejaVu Sans', sans-serif" font-size="16" font-weight="600" fill="#1f2937">Task Checkout</text><text x="908" y="272" font-family="'Noto Sans CJK KR', 'NanumGothic', 'NanumBarunGothic', 'Apple SD Gothic Neo', 'Malgun Gothic', 'Arial Unicode MS', 'DejaVu Sans', sans-serif" font-size="11" fill="#667085">in_progress 전환</text><circle cx="858" cy="224" r="10" fill="#fcfcfb" stroke="#7c3aed" stroke-width="1.2"/><text x="858" y="228" text-anchor="middle" font-family="'Noto Sans CJK KR', 'NanumGothic', 'NanumBarunGothic', 'Apple SD Gothic Neo', 'Malgun Gothic', 'Arial Unicode MS', 'DejaVu Sans', sans-serif" font-size="10" font-weight="600" fill="#7c3aed">8</text><g filter="url(#card)"><rect x="856" y="316" width="220" height="97" rx="14" fill="#ffffff" stroke="#d8dee7" stroke-width="1.15"/><rect x="856" y="326" width="4" height="77" rx="2" fill="#7c3aed"/></g><rect x="870" y="330" width="28" height="28" rx="9" fill="#f5f3ff"/><circle cx="884" cy="344" r="5" fill="none" stroke="#7c3aed" stroke-width="1.5"/><text x="908" y="345" font-family="'Noto Sans CJK KR', 'NanumGothic', 'NanumBarunGothic', 'Apple SD Gothic Neo', 'Malgun Gothic', 'Arial Unicode MS', 'DejaVu Sans', sans-serif" font-size="16" font-weight="600" fill="#1f2937">실행 환경 준비</text><text x="908" y="366" font-family="'Noto Sans CJK KR', 'NanumGothic', 'NanumBarunGothic', 'Apple SD Gothic Neo', 'Malgun Gothic', 'Arial Unicode MS', 'DejaVu Sans', sans-serif" font-size="11" fill="#667085">Workspace·Trust·Secret</text><circle cx="858" cy="318" r="10" fill="#fcfcfb" stroke="#7c3aed" stroke-width="1.2"/><text x="858" y="322" text-anchor="middle" font-family="'Noto Sans CJK KR', 'NanumGothic', 'NanumBarunGothic', 'Apple SD Gothic Neo', 'Malgun Gothic', 'Arial Unicode MS', 'DejaVu Sans', sans-serif" font-size="10" font-weight="600" fill="#7c3aed">9</text><rect x="870" y="378" width="66" height="19" rx="9.5" fill="#f9fafb" stroke="#e7eaf0"/><circle cx="879.5" cy="387.5" r="2.5" fill="#7c3aed"/><text x="886" y="391" font-family="'Noto Sans CJK KR', 'NanumGothic', 'NanumBarunGothic', 'Apple SD Gothic Neo', 'Malgun Gothic', 'Arial Unicode MS', 'DejaVu Sans', sans-serif" font-size="9" fill="#667085">격리 정책</text><rect x="944" y="378" width="75.5" height="19" rx="9.5" fill="#f9fafb" stroke="#e7eaf0"/><circle cx="953.5" cy="387.5" r="2.5" fill="#7c3aed"/><text x="960" y="391" font-family="'Noto Sans CJK KR', 'NanumGothic', 'NanumBarunGothic', 'Apple SD Gothic Neo', 'Malgun Gothic', 'Arial Unicode MS', 'DejaVu Sans', sans-serif" font-size="9" fill="#667085">Secret 준비</text><g filter="url(#card)"><rect x="856" y="435" width="220" height="122" rx="14" fill="#ffffff" stroke="#d8dee7" stroke-width="1.15"/><rect x="856" y="445" width="4" height="102" rx="2" fill="#c05621"/></g><rect x="870" y="449" width="28" height="28" rx="9" fill="#fff1e8"/><circle cx="884" cy="463" r="5" fill="none" stroke="#c05621" stroke-width="1.5"/><text x="908" y="464" font-family="'Noto Sans CJK KR', 'NanumGothic', 'NanumBarunGothic', 'Apple SD Gothic Neo', 'Malgun Gothic', 'Arial Unicode MS', 'DejaVu Sans', sans-serif" font-size="16" font-weight="600" fill="#1f2937">Agent Adapter 실행</text><text x="908" y="485" font-family="'Noto Sans CJK KR', 'NanumGothic', 'NanumBarunGothic', 'Apple SD Gothic Neo', 'Malgun Gothic', 'Arial Unicode MS', 'DejaVu Sans', sans-serif" font-size="11" fill="#667085">실제 AI 런타임 호출</text><circle cx="858" cy="437" r="10" fill="#fcfcfb" stroke="#c05621" stroke-width="1.2"/><text x="858" y="441" text-anchor="middle" font-family="'Noto Sans CJK KR', 'NanumGothic', 'NanumBarunGothic', 'Apple SD Gothic Neo', 'Malgun Gothic', 'Arial Unicode MS', 'DejaVu Sans', sans-serif" font-size="10" font-weight="600" fill="#c05621">10</text><rect x="870" y="497" width="66" height="19" rx="9.5" fill="#f9fafb" stroke="#e7eaf0"/><circle cx="879.5" cy="506.5" r="2.5" fill="#c05621"/><text x="886" y="510" font-family="'Noto Sans CJK KR', 'NanumGothic', 'NanumBarunGothic', 'Apple SD Gothic Neo', 'Malgun Gothic', 'Arial Unicode MS', 'DejaVu Sans', sans-serif" font-size="9" fill="#667085">Claude</text><rect x="944" y="497" width="66" height="19" rx="9.5" fill="#f9fafb" stroke="#e7eaf0"/><circle cx="953.5" cy="506.5" r="2.5" fill="#c05621"/><text x="960" y="510" font-family="'Noto Sans CJK KR', 'NanumGothic', 'NanumBarunGothic', 'Apple SD Gothic Neo', 'Malgun Gothic', 'Arial Unicode MS', 'DejaVu Sans', sans-serif" font-size="9" fill="#667085">Codex</text><rect x="870" y="522" width="66" height="19" rx="9.5" fill="#f9fafb" stroke="#e7eaf0"/><circle cx="879.5" cy="531.5" r="2.5" fill="#c05621"/><text x="886" y="535" font-family="'Noto Sans CJK KR', 'NanumGothic', 'NanumBarunGothic', 'Apple SD Gothic Neo', 'Malgun Gothic', 'Arial Unicode MS', 'DejaVu Sans', sans-serif" font-size="9" fill="#667085">HTTP</text><rect x="944" y="522" width="66" height="19" rx="9.5" fill="#f9fafb" stroke="#e7eaf0"/><circle cx="953.5" cy="531.5" r="2.5" fill="#c05621"/><text x="960" y="535" font-family="'Noto Sans CJK KR', 'NanumGothic', 'NanumBarunGothic', 'Apple SD Gothic Neo', 'Malgun Gothic', 'Arial Unicode MS', 'DejaVu Sans', sans-serif" font-size="9" fill="#667085">MCP</text><g filter="url(#card)"><rect x="856" y="579" width="220" height="97" rx="14" fill="#ffffff" stroke="#d8dee7" stroke-width="1.15"/><rect x="856" y="589" width="4" height="77" rx="2" fill="#059669"/></g><rect x="870" y="593" width="28" height="28" rx="9" fill="#ecfdf5"/><circle cx="884" cy="607" r="5" fill="none" stroke="#059669" stroke-width="1.5"/><text x="908" y="608" font-family="'Noto Sans CJK KR', 'NanumGothic', 'NanumBarunGothic', 'Apple SD Gothic Neo', 'Malgun Gothic', 'Arial Unicode MS', 'DejaVu Sans', sans-serif" font-size="16" font-weight="600" fill="#1f2937">결과와 세션 저장</text><text x="908" y="629" font-family="'Noto Sans CJK KR', 'NanumGothic', 'NanumBarunGothic', 'Apple SD Gothic Neo', 'Malgun Gothic', 'Arial Unicode MS', 'DejaVu Sans', sans-serif" font-size="11" fill="#667085">로그·비용·사용량</text><circle cx="858" cy="581" r="10" fill="#fcfcfb" stroke="#059669" stroke-width="1.2"/><text x="858" y="585" text-anchor="middle" font-family="'Noto Sans CJK KR', 'NanumGothic', 'NanumBarunGothic', 'Apple SD Gothic Neo', 'Malgun Gothic', 'Arial Unicode MS', 'DejaVu Sans', sans-serif" font-size="10" font-weight="600" fill="#059669">11</text><rect x="870" y="641" width="75.5" height="19" rx="9.5" fill="#f9fafb" stroke="#e7eaf0"/><circle cx="879.5" cy="650.5" r="2.5" fill="#059669"/><text x="886" y="654" font-family="'Noto Sans CJK KR', 'NanumGothic', 'NanumBarunGothic', 'Apple SD Gothic Neo', 'Malgun Gothic', 'Arial Unicode MS', 'DejaVu Sans', sans-serif" font-size="9" fill="#667085">Run event</text><rect x="953.5" y="641" width="92.0" height="19" rx="9.5" fill="#f9fafb" stroke="#e7eaf0"/><circle cx="963.0" cy="650.5" r="2.5" fill="#059669"/><text x="969.5" y="654" font-family="'Noto Sans CJK KR', 'NanumGothic', 'NanumBarunGothic', 'Apple SD Gothic Neo', 'Malgun Gothic', 'Arial Unicode MS', 'DejaVu Sans', sans-serif" font-size="9" fill="#667085">Work product</text><g filter="url(#card)"><rect x="1234" y="222" width="220" height="72" rx="14" fill="#ffffff" stroke="#d8dee7" stroke-width="1.15"/><rect x="1234" y="232" width="4" height="52" rx="2" fill="#7c3aed"/></g><rect x="1248" y="236" width="28" height="28" rx="9" fill="#f5f3ff"/><circle cx="1262" cy="250" r="5" fill="none" stroke="#7c3aed" stroke-width="1.5"/><text x="1286" y="251" font-family="'Noto Sans CJK KR', 'NanumGothic', 'NanumBarunGothic', 'Apple SD Gothic Neo', 'Malgun Gothic', 'Arial Unicode MS', 'DejaVu Sans', sans-serif" font-size="16" font-weight="600" fill="#1f2937">다음 상태가 명확한가?</text><text x="1286" y="272" font-family="'Noto Sans CJK KR', 'NanumGothic', 'NanumBarunGothic', 'Apple SD Gothic Neo', 'Malgun Gothic', 'Arial Unicode MS', 'DejaVu Sans', sans-serif" font-size="11" fill="#667085">완료·검토·차단·계속</text><circle cx="1236" cy="224" r="10" fill="#fcfcfb" stroke="#7c3aed" stroke-width="1.2"/><text x="1236" y="228" text-anchor="middle" font-family="'Noto Sans CJK KR', 'NanumGothic', 'NanumBarunGothic', 'Apple SD Gothic Neo', 'Malgun Gothic', 'Arial Unicode MS', 'DejaVu Sans', sans-serif" font-size="10" font-weight="600" fill="#7c3aed">12</text><g filter="url(#card)"><rect x="1234" y="316" width="220" height="72" rx="14" fill="#ffffff" stroke="#d8dee7" stroke-width="1.15"/><rect x="1234" y="326" width="4" height="52" rx="2" fill="#16a34a"/></g><rect x="1248" y="330" width="28" height="28" rx="9" fill="#f0fdf4"/><circle cx="1262" cy="344" r="5" fill="none" stroke="#16a34a" stroke-width="1.5"/><text x="1286" y="345" font-family="'Noto Sans CJK KR', 'NanumGothic', 'NanumBarunGothic', 'Apple SD Gothic Neo', 'Malgun Gothic', 'Arial Unicode MS', 'DejaVu Sans', sans-serif" font-size="16" font-weight="600" fill="#1f2937">Task 완료</text><text x="1286" y="366" font-family="'Noto Sans CJK KR', 'NanumGothic', 'NanumBarunGothic', 'Apple SD Gothic Neo', 'Malgun Gothic', 'Arial Unicode MS', 'DejaVu Sans', sans-serif" font-size="11" fill="#667085">검증된 종료 상태</text><circle cx="1236" cy="318" r="10" fill="#fcfcfb" stroke="#16a34a" stroke-width="1.2"/><text x="1236" y="322" text-anchor="middle" font-family="'Noto Sans CJK KR', 'NanumGothic', 'NanumBarunGothic', 'Apple SD Gothic Neo', 'Malgun Gothic', 'Arial Unicode MS', 'DejaVu Sans', sans-serif" font-size="10" font-weight="600" fill="#16a34a">13</text><g filter="url(#card)"><rect x="1234" y="410" width="220" height="72" rx="14" fill="#ffffff" stroke="#d8dee7" stroke-width="1.15"/><rect x="1234" y="420" width="4" height="52" rx="2" fill="#dc2626"/></g><rect x="1248" y="424" width="28" height="28" rx="9" fill="#fef2f2"/><circle cx="1262" cy="438" r="5" fill="none" stroke="#dc2626" stroke-width="1.5"/><text x="1286" y="439" font-family="'Noto Sans CJK KR', 'NanumGothic', 'NanumBarunGothic', 'Apple SD Gothic Neo', 'Malgun Gothic', 'Arial Unicode MS', 'DejaVu Sans', sans-serif" font-size="16" font-weight="600" fill="#1f2937">복구 경로</text><text x="1286" y="460" font-family="'Noto Sans CJK KR', 'NanumGothic', 'NanumBarunGothic', 'Apple SD Gothic Neo', 'Malgun Gothic', 'Arial Unicode MS', 'DejaVu Sans', sans-serif" font-size="11" fill="#667085">재시도 또는 운영자 개입</text></svg>